<svg width="18" height="18" viewBox="0 0 18 18" fill="none" xmlns="http://www.w3.org/2000/svg">
    <g clip-path="url(#clip0_1_84726)">
        <path d="M9 18C13.9706 18 18 13.9706 18 9C18 4.02944 13.9706 0 9 0C4.02944 0 0 4.02944 0 9C0 13.9706 4.02944 18 9 18Z" fill="#CFE9FE"/>
        <path fill-rule="evenodd" clip-rule="evenodd" d="M11.1745 3.90001C10.5836 3.32835 9.63815 3.32835 9.04724 3.90001L3.3627 9.40668C3.16179 9.59335 2.85452 9.59335 2.65361 9.40668C2.46452 9.22001 2.4527 8.91668 2.65361 8.73001L8.33815 3.21168C9.33088 2.26668 10.9027 2.26668 11.8954 3.21168C12.4509 3.74835 12.7227 4.51835 12.6045 5.27668C13.3845 5.17168 14.1763 5.41668 14.7318 5.96501L14.7554 6.00001C15.7127 6.92168 15.7363 8.43835 14.8027 9.39501C14.7909 9.40668 14.7672 9.43001 14.7554 9.44168L9.61452 14.4233C9.55543 14.4817 9.54361 14.5867 9.61452 14.645L10.6663 15.6717C10.8554 15.8583 10.8672 16.1617 10.6663 16.3483C10.4654 16.535 10.1582 16.535 9.95724 16.3483L8.90543 15.3217C8.45634 14.89 8.44452 14.1783 8.88179 13.735C8.88179 13.735 8.89361 13.7233 8.90543 13.7117L14.0463 8.73001C14.6254 8.17001 14.6372 7.26001 14.07 6.68835L14.0463 6.66501L14.0227 6.64168C13.4318 6.07001 12.4863 6.07001 11.8954 6.64168L7.6527 10.7483L7.59361 10.8067C7.3927 10.9933 7.08543 10.9933 6.88452 10.8067C6.69543 10.62 6.68361 10.3167 6.88452 10.13L11.1863 5.96501C11.7654 5.40501 11.7772 4.49501 11.21 3.92335C11.21 3.92335 11.1982 3.91168 11.1863 3.90001H11.1745Z" fill="#0176D3"/>
        <path fill-rule="evenodd" clip-rule="evenodd" d="M10.4655 5.27663C10.6546 5.08996 10.6664 4.78663 10.4655 4.59996C10.2646 4.41329 9.95732 4.41329 9.75641 4.59996L5.54914 8.67163C4.59187 9.59329 4.56823 11.11 5.50187 12.0666C5.51368 12.0783 5.53732 12.1016 5.54914 12.1133C6.54187 13.0583 8.11368 13.0583 9.10641 12.1133L13.3137 8.04163C13.5028 7.85496 13.5146 7.55163 13.3137 7.36496C13.1128 7.17829 12.8055 7.17829 12.6046 7.36496L8.39732 11.4366C7.80641 12.0083 6.86096 12.0083 6.27005 11.4366C5.69096 10.8766 5.67914 9.96663 6.24641 9.39496L6.27005 9.37163L10.4773 5.29996L10.4655 5.27663Z" fill="#0176D3"/>
    </g>
    <defs>
        <clipPath id="clip0_1_84726">
            <rect width="18" height="18" fill="white"/>
        </clipPath>
    </defs>
</svg>
