<svg width="18" height="18" viewBox="0 0 18 18" fill="none" xmlns="http://www.w3.org/2000/svg">
<path d="M9 18C13.9706 18 18 13.9706 18 9C18 4.02944 13.9706 0 9 0C4.02944 0 0 4.02944 0 9C0 13.9706 4.02944 18 9 18Z" fill="#CFE9FE"/>
<path d="M12.8743 9.50914C13.0338 9.75419 13.3048 9.91596 13.6119 9.91596C14.1014 9.91596 14.5001 9.50506 14.5001 9C14.5001 8.49494 14.1014 8.08404 13.6119 8.08404C13.3048 8.08404 13.034 8.24559 12.8743 8.49063L10.3704 7.63865L12.8743 6.78668C13.034 7.03172 13.3048 7.19327 13.6119 7.19327C14.1014 7.19327 14.5001 6.78237 14.5001 6.27731C14.5001 5.77225 14.1014 5.36135 13.6119 5.36135C13.3708 5.36135 13.1526 5.46163 12.9924 5.62295L9.87104 4.73808C9.7903 4.31787 9.4306 4 9.00006 4C8.5693 4 8.20982 4.31787 8.1293 4.73808L5.00926 5.62431C4.84888 5.46209 4.62998 5.36135 4.3882 5.36135C3.89848 5.36135 3.50006 5.77225 3.50006 6.27731C3.50006 6.78237 3.89848 7.19327 4.3882 7.19327C4.771 7.19327 5.09506 6.94074 5.21958 6.58974L7.69194 7.61733L5.12586 8.49063C4.96636 8.24559 4.69532 8.08404 4.3882 8.08404C3.89848 8.08404 3.50006 8.49494 3.50006 9C3.50006 9.50506 3.89848 9.91596 4.3882 9.91596C4.69532 9.91596 4.96614 9.75419 5.12586 9.50914L7.6299 10.3613L5.12586 11.2133C4.96614 10.9685 4.69532 10.8067 4.3882 10.8067C3.89848 10.8067 3.50006 11.2176 3.50006 11.7227C3.50006 12.2278 3.89848 12.6387 4.3882 12.6387C4.62932 12.6387 4.84756 12.5384 5.00794 12.377L8.1293 13.2617C8.20982 13.6819 8.5693 14 9.00006 14C9.4306 14 9.7903 13.6819 9.87082 13.2617L12.9906 12.3755C13.151 12.5379 13.3701 12.6387 13.6119 12.6387C14.1014 12.6387 14.5001 12.2278 14.5001 11.7227C14.5001 11.2176 14.1014 10.8067 13.6119 10.8067C13.2291 10.8067 12.9051 11.0593 12.7805 11.41L10.308 10.3824L12.8743 9.50914ZM12.7394 11.8824C12.7445 11.9126 12.753 11.9412 12.761 11.9702L9.84024 12.8C9.72342 12.4345 9.3932 12.1681 9.00028 12.1681C8.60714 12.1681 8.27692 12.4347 8.16032 12.8L5.23872 11.972C5.26072 11.8922 5.27634 11.8096 5.27634 11.7227C5.27634 11.6952 5.27084 11.6694 5.26842 11.6424L8.16362 10.6572C8.28374 11.0166 8.61132 11.2771 9.00006 11.2771C9.38286 11.2771 9.70692 11.0245 9.83144 10.6738L12.7394 11.8824ZM5.26864 8.91991L8.16384 7.93475C8.28396 8.29392 8.61154 8.55439 9.00028 8.55439C9.38902 8.55439 9.7166 8.29392 9.83672 7.93452L12.7319 8.91968C12.7295 8.94645 12.724 8.97232 12.724 8.99977C12.724 9.02723 12.7295 9.05287 12.7317 9.07964L9.83672 10.065C9.7166 9.70563 9.38902 9.44516 9.00028 9.44516C8.61154 9.44516 8.28396 9.70563 8.16384 10.065L5.26864 9.07964C5.27084 9.05287 5.27656 9.027 5.27656 8.99955C5.27656 8.97209 5.27084 8.94691 5.26864 8.91991ZM5.26072 6.11757C5.25566 6.0874 5.24708 6.05881 5.23916 6.02977L8.15988 5.20025C8.2767 5.56578 8.60692 5.83215 8.99984 5.83215C9.39276 5.83215 9.7232 5.56578 9.8398 5.20025L12.761 6.02841C12.7387 6.10827 12.7233 6.19063 12.7233 6.27753C12.7233 6.30499 12.7288 6.33085 12.7313 6.35763L9.83606 7.34279C9.71594 6.98339 9.38836 6.72292 8.99962 6.72292C8.61682 6.72292 8.29276 6.97545 8.16824 7.32645L5.26072 6.11757Z" fill="#0176D3"/>
</svg>
