<svg id="icon" xmlns="http://www.w3.org/2000/svg" viewBox="0 0 24 24">
    <path fill="#000000" d="M23.15 11.41c.26.58.42 1.2.49 1.83.07.63.03 1.27-.1 1.9-.13.62-.36 1.22-.68 1.77-.21.37-.46.71-.74 1.03-.28.31-.6.6-.94.85-.35.25-.71.46-1.1.63-.39.17-.79.3-1.21.39-.2.6-.49 1.18-.86 1.69-.37.51-.83.97-1.34 1.34-.52.37-1.09.66-1.69.86-.61.2-1.24.29-1.88.29-.42 0-.85-.04-1.26-.13-.41-.09-.82-.22-1.21-.39-.39-.17-.75-.39-1.1-.64-.34-.25-.65-.54-.93-.85-.63.13-1.27.17-1.9.1-.63-.07-1.25-.23-1.84-.49-.58-.26-1.12-.61-1.59-1.04-.47-.43-.88-.93-1.19-1.48-.21-.37-.39-.75-.52-1.16-.13-.41-.22-.82-.27-1.24-.04-.42-.04-.84 0-1.27.05-.42.14-.83.27-1.24-.42-.47-.77-1.01-1.03-1.59-.26-.58-.43-1.2-.49-1.83-.07-.63-.03-1.27.1-1.9.13-.62.36-1.22.68-1.77.21-.37.46-.71.74-1.03.28-.31.6-.6.94-.85.35-.25.71-.46 1.1-.63.39-.17.8-.3 1.21-.38.2-.61.49-1.18.86-1.69.37-.52.83-.97 1.34-1.34.52-.37 1.09-.66 1.69-.86.61-.2 1.24-.3 1.88-.29.42 0 .85.04 1.26.13.41.09.82.22 1.21.39.39.17.75.39 1.1.64.34.25.66.54.94.85.62-.13 1.26-.16 1.89-.1.63.07 1.25.23 1.83.49.58.26 1.12.61 1.59 1.04.47.42.88.92 1.19 1.47.21.37.39.75.52 1.16.13.4.22.82.27 1.24.04.42.04.85 0 1.27-.05.42-.14.84-.27 1.24.43.47.78 1.01 1.04 1.59zm-8.33 10.67c.54-.22 1.04-.56 1.46-.97.42-.42.75-.91.97-1.46.23-.55.34-1.13.34-1.72v-5.58l-2.02-1.16v6.73c0 .07-.01.14-.03.2-.02.07-.04.13-.08.19-.03.06-.07.12-.12.16-.05.05-.1.09-.16.13l-4.78 2.76c.2.17.41.31.64.44.23.13.46.24.71.33.24.09.5.15.75.2.26.04.52.07.78.07.59 0 1.17-.12 1.72-.35zm-11.38-3.79c.3.51.69.96 1.16 1.32.47.36 1 .62 1.57.77.57.16 1.17.19 1.75.12.58-.08 1.15-.27 1.66-.56l4.83-2.79v-2.35l-5.83 3.37c-.06.04-.12.06-.19.08-.07.02-.13.03-.2.03-.07 0-.14-.01-.2-.03-.07-.02-.13-.04-.19-.08l-4.78-2.76c-.04.26-.07.52-.07.78s.03.52.07.78c.05.25.12.51.2.75.09.24.2.48.33.7zm-1.26-10.42c-.29.51-.48 1.08-.56 1.66-.08.58-.04 1.18.12 1.75.15.57.41 1.1.77 1.57.36.47.81.86 1.32 1.16l4.83 2.79.02-.02h.04l2.02-1.17-5.83-3.37c-.06-.03-.11-.08-.16-.12-.05-.05-.09-.1-.13-.16-.03-.06-.06-.12-.08-.19-.02-.06-.02-.13-.02-.2v-5.68c-.24.09-.48.2-.71.33-.22.13-.44.28-.64.45-.2.17-.38.35-.55.55-.17.2-.31.41-.44.64zm16.58 3.86c.06.03.12.07.17.12.05.05.09.1.12.16.03.06.06.13.08.19.01.07.02.14.02.21v5.68c.8-.3 1.5-.81 2.02-1.49.52-.68.83-1.49.91-2.34.07-.85-.1-1.71-.49-2.46-.4-.76-1-1.39-1.74-1.81l-4.83-2.79-.02.02h-.04l-2.01 1.17zm2.01-3.03h-.01zm0 0c.14-.84.05-1.71-.28-2.49-.33-.79-.88-1.47-1.58-1.96-.7-.49-1.52-.77-2.38-.8-.85-.04-1.7.17-2.44.6l-4.83 2.79v2.33l5.83-3.37c.06-.03.13-.06.19-.08.07-.02.13-.02.2-.02.07 0 .14.01.21.02.06.02.13.05.19.08l4.78 2.76zm-12.63-2.58c0-.07.01-.14.03-.2.02-.07.04-.13.08-.19.03-.06.07-.11.12-.16.05-.05.1-.09.16-.12l4.78-2.76c-.66-.55-1.46-.9-2.3-1.01-.85-.11-1.71.03-2.48.39-.77.36-1.43.94-1.89 1.66-.46.72-.7 1.56-.7 2.41v5.58l2.02 1.17zm1.09 7.37 2.6 1.5 2.6-1.5v-3 l-2.6-1.5-2.6 1.5z"/>
</svg>