<?xml version="1.0" encoding="UTF-8"?>
<svg version="1.1" xmlns="http://www.w3.org/2000/svg" width="1056" height="992">
<path d="M0 0 C348.48 0 696.96 0 1056 0 C1056 327.36 1056 654.72 1056 992 C707.52 992 359.04 992 0 992 C0 664.64 0 337.28 0 0 Z " fill="#FCFDFD" transform="translate(0,0)"/>
<path d="M0 0 C1.4061637 -0.00067662 2.81232729 -0.00164959 4.2184906 -0.00289917 C7.14038221 -0.00435885 10.06224289 -0.00227774 12.98413086 0.00244141 C16.69075001 0.00814296 20.39729678 0.00484585 24.10391331 -0.00113106 C26.99961371 -0.00477932 29.89529751 -0.00357879 32.79099846 -0.00100327 C34.80968652 -0.00003144 36.82837527 -0.00301659 38.84706116 -0.00613403 C49.06512767 0.01952683 59.24752497 0.36470598 69.3359375 2.10546875 C77.14159246 3.37337454 84.98439188 4.1408921 92.85351562 4.90039062 C100.41969351 5.68789965 107.53422556 7.15210197 114.87109375 9.1328125 C116.32367965 9.48298807 117.77795725 9.82627595 119.234375 10.16015625 C144.25910693 15.9272237 168.68018446 23.34461415 192.73242188 32.34667969 C195.42569755 33.33667371 198.14110343 34.24958034 200.87109375 35.1328125 C200.87109375 35.7928125 200.87109375 36.4528125 200.87109375 37.1328125 C201.70640625 37.27976562 201.70640625 37.27976562 202.55859375 37.4296875 C203.32171875 37.57921875 204.08484375 37.72875 204.87109375 37.8828125 C205.61359375 38.02203125 206.35609375 38.16125 207.12109375 38.3046875 C210.20153135 39.23231928 212.85108581 40.54961587 215.70263672 42.02246094 C217.87516528 43.13489732 220.06857413 44.18090709 222.28125 45.2109375 C259.76230587 62.69729626 297.10115132 85.57642851 327.43237305 113.93066406 C329.83606388 116.10118076 332.31786167 118.10295501 334.859375 120.109375 C340.94637429 125.06608403 346.4826969 130.47440124 351.99755859 136.0534668 C353.62801143 137.7023082 355.26645755 139.34287351 356.90625 140.98242188 C362.43392502 146.52848434 367.80911838 152.15417329 372.87109375 158.1328125 C373.85549548 159.26283103 374.84114407 160.39176475 375.828125 161.51953125 C382.4732369 169.1792165 388.8413961 176.97725991 394.87109375 185.1328125 C395.30679688 185.71546875 395.7425 186.298125 396.19140625 186.8984375 C397.49607797 188.65325912 398.78022545 190.42126574 400.05859375 192.1953125 C400.81527344 193.23816406 401.57195313 194.28101563 402.3515625 195.35546875 C403.87109375 198.1328125 403.87109375 198.1328125 403.70385742 200.12133789 C402.62609023 202.72459906 401.39920231 203.5320389 399.06640625 205.09375 C398.26493164 205.6405542 397.46345703 206.1873584 396.63769531 206.75073242 C395.33010254 207.62048706 395.33010254 207.62048706 393.99609375 208.5078125 C392.15866859 209.75953777 390.3227674 211.0135026 388.48828125 212.26953125 C387.55081055 212.90938965 386.61333984 213.54924805 385.64746094 214.20849609 C381.40135648 217.15149604 377.26111085 220.23070916 373.12109375 223.3203125 C366.68825854 228.10516458 360.16876726 232.71835191 353.53100586 237.21362305 C348.05987556 240.94283332 342.83324578 244.93295929 337.640625 249.0390625 C332.4908292 252.93227907 332.4908292 252.93227907 329.87109375 254.1328125 C326.77022913 252.99354034 325.13982245 251.55404194 323.2421875 248.89453125 C322.77014893 248.24572998 322.29811035 247.59692871 321.81176758 246.9284668 C321.06769653 245.88493042 321.06769653 245.88493042 320.30859375 244.8203125 C315.27559384 237.9308084 309.989206 231.39866214 304.40332031 224.95214844 C303.23723139 223.56755719 302.09805335 222.16025216 300.97167969 220.74316406 C295.4081494 213.76547546 289.44104446 207.39230183 283.11523438 201.11621094 C281.49763088 199.50933943 279.89102462 197.89202756 278.28515625 196.2734375 C269.17496028 187.15036628 259.49384615 179.10241032 248.890625 171.76171875 C248.22417969 171.22417969 247.55773437 170.68664062 246.87109375 170.1328125 C246.87109375 169.4728125 246.87109375 168.8128125 246.87109375 168.1328125 C246.21109375 168.1328125 245.55109375 168.1328125 244.87109375 168.1328125 C244.87109375 167.4728125 244.87109375 166.8128125 244.87109375 166.1328125 C244.319375 166.03871094 243.76765625 165.94460937 243.19921875 165.84765625 C240.2470381 164.9411981 238.14388031 163.46937732 235.62109375 161.6953125 C234.7290625 161.07785156 233.83703125 160.46039063 232.91796875 159.82421875 C232.2425 159.26605469 231.56703125 158.70789063 230.87109375 158.1328125 C230.87109375 157.4728125 230.87109375 156.8128125 230.87109375 156.1328125 C230.35160156 156.0503125 229.83210937 155.9678125 229.296875 155.8828125 C225.90157058 154.83305654 223.05966846 152.98995545 220.05859375 151.1328125 C218.72144534 150.31755877 217.38420291 149.50245923 216.046875 148.6875 C215.01747803 148.05666504 215.01747803 148.05666504 213.96728516 147.41308594 C210.57301117 145.33999337 207.15892707 143.30015135 203.74609375 141.2578125 C202.53505822 140.53141342 201.3241156 139.80485939 200.11328125 139.078125 C199.04335938 138.43617188 197.9734375 137.79421875 196.87109375 137.1328125 C196.00355469 136.59269531 195.13601563 136.05257812 194.2421875 135.49609375 C191.89002933 134.14369968 189.59525559 133.15014644 187.05859375 132.1953125 C184.00226388 131.04357971 181.07969331 129.76191502 178.16796875 128.2890625 C163.82504206 121.03630525 148.9748611 115.2718545 133.74609375 110.1953125 C133.0523465 109.96238495 132.35859924 109.7294574 131.64382935 109.48947144 C122.81639267 106.53950056 113.97940448 104.08285876 104.87109375 102.1328125 C102.68359375 101.61197917 100.49609375 101.09114583 98.30859375 100.5703125 C93.13943373 99.37021731 87.97143244 98.43638372 82.72265625 97.66015625 C79.87109375 97.1328125 79.87109375 97.1328125 76.80249023 96.16943359 C72.29510134 94.87152149 67.77841183 94.42806886 63.1171875 94.01953125 C62.16525009 93.93523361 61.21331268 93.85093597 60.23252869 93.76408386 C49.29619824 92.88553108 38.36875506 92.86745476 27.40356445 92.92700195 C23.94019139 92.94527769 20.47708831 92.94751034 17.01367188 92.94726562 C-12.55576687 92.98588258 -12.55576687 92.98588258 -41.87890625 96.3828125 C-43.20417088 96.60472702 -44.5294478 96.82656814 -45.85473633 97.04833984 C-55.36242839 98.67321705 -64.65249039 100.79930892 -73.90454102 103.51245117 C-76.55118782 104.25058415 -79.21584592 104.89028317 -81.88671875 105.53515625 C-88.13734678 107.08316527 -94.21682652 109.01361413 -100.31640625 111.0703125 C-101.33154297 111.40482422 -102.34667969 111.73933594 -103.39257812 112.08398438 C-108.77268401 113.8842906 -113.97058837 115.85971543 -119.12524414 118.22875977 C-121.95083835 119.50366842 -124.84493325 120.5645048 -127.75390625 121.6328125 C-132.5489109 123.4504538 -136.744167 125.50196895 -141.12890625 128.1328125 C-142.77666009 128.84360827 -144.42511228 129.55302651 -146.08203125 130.2421875 C-162.11313409 137.21755286 -177.01957316 146.41574535 -191.33984375 156.36328125 C-194.12890625 158.1328125 -194.12890625 158.1328125 -196.12890625 158.1328125 C-196.12890625 158.7928125 -196.12890625 159.4528125 -196.12890625 160.1328125 C-197.49101539 161.0862889 -198.86185736 162.02923891 -200.26953125 162.9140625 C-203.09976215 164.76917183 -205.73129154 166.87576532 -208.39453125 168.9609375 C-210.12890625 170.1328125 -210.12890625 170.1328125 -212.12890625 170.1328125 C-212.12890625 170.7928125 -212.12890625 171.4528125 -212.12890625 172.1328125 C-213.74609375 173.54296875 -213.74609375 173.54296875 -216.00390625 175.1953125 C-221.32626066 179.22236693 -226.21435364 183.62298775 -231.12890625 188.1328125 C-232.06734375 188.9784375 -233.00578125 189.8240625 -233.97265625 190.6953125 C-244.22471182 199.95309544 -254.26665497 209.51825245 -263.12890625 220.1328125 C-264.2271875 221.41478516 -264.2271875 221.41478516 -265.34765625 222.72265625 C-271.80029647 230.32901221 -277.81768419 238.22226079 -283.73779297 246.24804688 C-285.03091479 248.00004766 -286.3310029 249.74663885 -287.6328125 251.4921875 C-288.35339844 252.46671875 -289.07398438 253.44125 -289.81640625 254.4453125 C-290.43902344 255.28707031 -291.06164062 256.12882813 -291.703125 256.99609375 C-293.28605943 259.1650649 -293.28605943 259.1650649 -294.12890625 262.1328125 C-294.78890625 262.1328125 -295.44890625 262.1328125 -296.12890625 262.1328125 C-296.38542969 262.83148438 -296.64195312 263.53015625 -296.90625 264.25 C-298.25870262 267.43884994 -299.90922145 270.28874471 -301.69140625 273.2578125 C-303.48203686 276.24343776 -305.02773597 278.82930167 -306.12890625 282.1328125 C-306.78890625 282.1328125 -307.44890625 282.1328125 -308.12890625 282.1328125 C-308.41048584 282.8551709 -308.69206543 283.5775293 -308.98217773 284.32177734 C-310.06231542 286.96957494 -311.23548541 289.53372353 -312.4765625 292.109375 C-312.91677734 293.0271875 -313.35699219 293.945 -313.81054688 294.890625 C-314.73490941 296.80995201 -315.65938953 298.72922239 -316.58398438 300.6484375 C-317.02291016 301.56367188 -317.46183594 302.47890625 -317.9140625 303.421875 C-318.3150415 304.25412598 -318.71602051 305.08637695 -319.12915039 305.94384766 C-320.22103344 308.23172759 -320.22103344 308.23172759 -321.12890625 311.1328125 C-321.78890625 311.1328125 -322.44890625 311.1328125 -323.12890625 311.1328125 C-323.2578125 311.85339844 -323.38671875 312.57398438 -323.51953125 313.31640625 C-325.00246042 320.17020069 -327.91420436 326.68958486 -330.62890625 333.1328125 C-338.3026853 351.44258926 -343.29665018 370.52416871 -347.43359375 389.91259766 C-347.973281 392.41206212 -348.53371346 394.90385022 -349.10546875 397.39599609 C-351.58958823 408.41827856 -353.10938644 419.24133706 -353.87890625 430.5078125 C-353.9392807 431.34221863 -353.99965515 432.17662476 -354.06185913 433.03631592 C-355.07386746 447.27188858 -355.41907446 461.488701 -355.44140625 475.7578125 C-355.44499146 476.67101257 -355.44857666 477.58421265 -355.45227051 478.52508545 C-355.49130096 496.9129955 -353.93000344 515.12319312 -351.31640625 533.3203125 C-351.14826416 534.4966626 -350.98012207 535.6730127 -350.80688477 536.88500977 C-349.42593657 546.07480907 -347.36438905 554.90260634 -344.75415039 563.81005859 C-344.03420936 566.48460719 -343.47605543 569.17703102 -342.90234375 571.88671875 C-340.96017065 580.42523145 -338.1008698 588.64490142 -335.25073242 596.91650391 C-334.3192243 599.62461977 -333.40217188 602.33733361 -332.48632812 605.05078125 C-329.19617685 614.71134289 -325.59233174 623.94700025 -321.12890625 633.1328125 C-320.57843629 634.39538168 -320.03616172 635.661609 -319.5078125 636.93359375 C-317.83816681 640.80736094 -315.97065977 644.55773365 -314.06640625 648.3203125 C-313.53950195 649.36735352 -313.53950195 649.36735352 -313.00195312 650.43554688 C-312.66099609 651.11294922 -312.32003906 651.79035156 -311.96875 652.48828125 C-311.6476123 653.12813965 -311.32647461 653.76799805 -310.99560547 654.42724609 C-310.31164345 655.77320628 -309.60181907 657.10602363 -308.8828125 658.43359375 C-308.12890625 660.1328125 -308.12890625 660.1328125 -308.12890625 663.1328125 C-307.46890625 663.1328125 -306.80890625 663.1328125 -306.12890625 663.1328125 C-305.76539063 663.82246094 -305.401875 664.51210938 -305.02734375 665.22265625 C-302.13395602 670.63106563 -299.1287551 675.83359437 -295.62109375 680.8671875 C-294.41984611 682.69107135 -293.31446416 684.57789918 -292.2421875 686.48046875 C-290.19593864 690.10008571 -287.88358979 693.45882062 -285.44140625 696.8203125 C-285.00425293 697.42552734 -284.56709961 698.03074219 -284.11669922 698.65429688 C-282.79166277 700.48358463 -281.46058981 702.30836068 -280.12890625 704.1328125 C-279.39285156 705.14988281 -278.65679687 706.16695312 -277.8984375 707.21484375 C-272.03217033 715.19681384 -265.68466202 722.71495865 -259.12890625 730.1328125 C-258.47003418 730.88071045 -257.81116211 731.6286084 -257.13232422 732.39916992 C-251.37495843 738.87189129 -245.37647676 745.06847241 -239.25390625 751.1953125 C-238.33738281 752.12408203 -237.42085938 753.05285156 -236.4765625 754.00976562 C-230.34241117 760.1568582 -223.95144245 765.76346421 -217.12890625 771.1328125 C-216.53190918 771.60936279 -215.93491211 772.08591309 -215.31982422 772.5769043 C-190.83820246 792.02377573 -162.43999524 812.02952774 -132.87890625 822.7578125 C-129.97212368 823.82363278 -127.57632248 824.93107807 -124.87890625 826.3828125 C-115.26387112 831.31743395 -104.63793267 834.30886137 -94.40234375 837.69921875 C-91.89943634 838.52978241 -89.4271694 839.39261913 -86.953125 840.30859375 C-68.4782051 847.00373907 -48.81507372 850.05221273 -29.44140625 852.9453125 C-28.74904877 853.05045166 -28.05669128 853.15559082 -27.34335327 853.26391602 C-10.61743331 855.77776752 6.037519 856.34086405 22.93359375 856.3203125 C24.20793777 856.31990463 24.20793777 856.31990463 25.50802612 856.31948853 C39.38384634 856.2991692 53.08087777 855.76288546 66.87109375 854.1328125 C67.79051758 854.03097656 68.70994141 853.92914062 69.65722656 853.82421875 C100.15823369 850.39642607 135.8382686 842.89382145 162.953125 827.98828125 C164.87109375 827.1328125 164.87109375 827.1328125 168.87109375 827.1328125 C168.87109375 826.4728125 168.87109375 825.8128125 168.87109375 825.1328125 C169.48210938 824.89949219 170.093125 824.66617188 170.72265625 824.42578125 C178.03615403 821.51068284 185.07601631 818.14125402 192.12109375 814.6328125 C193.05518066 814.17028076 193.98926758 813.70774902 194.95166016 813.23120117 C200.45850339 810.4660358 205.69088396 807.46392252 210.87109375 804.1328125 C212.30589021 803.2948329 213.74300782 802.46079975 215.18359375 801.6328125 C234.80969924 789.86924542 254.62538024 775.73249023 270.6484375 759.28125 C272.87109375 757.1328125 272.87109375 757.1328125 274.87109375 757.1328125 C274.87109375 756.4728125 274.87109375 755.8128125 274.87109375 755.1328125 C275.53109375 755.1328125 276.19109375 755.1328125 276.87109375 755.1328125 C277.09796875 754.5759375 277.32484375 754.0190625 277.55859375 753.4453125 C279.82709824 749.44842364 282.49009321 746.59314601 286.87109375 745.1328125 C287.56342288 743.81262214 288.22688583 742.47714073 288.87109375 741.1328125 C290.01393388 739.9022724 291.20711182 738.71750671 292.43359375 737.5703125 C296.44420557 733.66068731 299.94703073 729.48675227 303.44921875 725.12109375 C305.59812242 722.4696239 307.79263728 719.87181075 310.01635742 717.28369141 C315.30613148 711.1218564 320.17665232 704.7648182 324.87109375 698.1328125 C325.86638252 696.79595872 326.86472334 695.46134416 327.87109375 694.1328125 C331.14741851 694.7555622 333.29407332 695.9125094 336.00390625 697.8359375 C336.80078857 698.39748535 337.5976709 698.9590332 338.41870117 699.53759766 C339.26924072 700.14651855 340.11978027 700.75543945 340.99609375 701.3828125 C341.88337158 702.01106934 342.77064941 702.63932617 343.68481445 703.28662109 C350.24488289 707.94162652 356.76909719 712.64696139 363.28076172 717.36938477 C369.06321555 721.56163187 374.88678051 725.69257464 380.7277832 729.80273438 C386.00152347 733.51441402 391.25496974 737.25350118 396.49511719 741.01245117 C398.93141318 742.75807122 401.37691644 744.47002763 403.87109375 746.1328125 C402.31448265 754.60769518 394.44988657 762.07115767 389.24829102 768.75366211 C387.36742031 771.1705495 385.57110594 773.58279421 383.87109375 776.1328125 C383.21109375 776.1328125 382.55109375 776.1328125 381.87109375 776.1328125 C381.64679687 776.66519531 381.4225 777.19757812 381.19140625 777.74609375 C379.42541805 780.93845703 377.12728417 783.5794186 374.74609375 786.3203125 C374.22257324 786.92617188 373.69905273 787.53203125 373.15966797 788.15625 C342.99948153 822.74530941 342.99948153 822.74530941 329.87109375 832.1328125 C329.21109375 832.1328125 328.55109375 832.1328125 327.87109375 832.1328125 C327.87109375 832.7928125 327.87109375 833.4528125 327.87109375 834.1328125 C324.42689991 837.38359589 320.60072634 840.21667083 316.87109375 843.1328125 C315.8032666 843.97102539 315.8032666 843.97102539 314.71386719 844.82617188 C312.41784311 846.62340114 310.1147341 848.41108684 307.80859375 850.1953125 C307.05843994 850.77966064 306.30828613 851.36400879 305.53540039 851.96606445 C304.83020264 852.50706787 304.12500488 853.04807129 303.3984375 853.60546875 C302.76671631 854.09281494 302.13499512 854.58016113 301.48413086 855.08227539 C299.87109375 856.1328125 299.87109375 856.1328125 297.87109375 856.1328125 C297.87109375 856.7928125 297.87109375 857.4528125 297.87109375 858.1328125 C296.15065659 859.41188096 294.36601307 860.60492241 292.55859375 861.7578125 C288.55730037 864.34012435 284.66402997 867.00042218 280.87109375 869.8828125 C269.31710697 878.38036673 256.54003841 885.44948517 243.87109375 892.1328125 C242.68052843 892.77258006 241.49046038 893.41327353 240.30078125 894.0546875 C236.5010285 896.10011208 232.68971198 898.12285043 228.87109375 900.1328125 C227.82566406 900.68324219 226.78023437 901.23367188 225.703125 901.80078125 C219.54799434 904.96372157 213.32827744 907.57039092 206.83984375 909.97265625 C204.31814757 910.95810857 202.0008569 912.04071763 199.62109375 913.3203125 C195.55898856 915.46420135 191.36965054 916.34139973 186.87109375 917.1328125 C186.87109375 917.7928125 186.87109375 918.4528125 186.87109375 919.1328125 C151.05234972 931.32881968 115.2027996 942.33393148 77.41572571 946.39894104 C74.05328056 946.76231861 70.71168348 947.15647037 67.36547852 947.65307617 C54.38048339 949.4984711 41.42265507 949.43572501 28.32714844 949.39355469 C24.40674089 949.3829093 20.48679923 949.39346076 16.56640625 949.40625 C-4.41103795 949.41863967 -25.17072908 948.26371249 -45.94140625 945.2578125 C-47.1435376 945.08781738 -48.34566895 944.91782227 -49.58422852 944.74267578 C-61.89699694 942.95474261 -74.31748759 941.12952363 -86.12890625 937.1328125 C-88.12294426 936.68848881 -90.12373216 936.27382145 -92.12890625 935.8828125 C-98.67008822 934.51453964 -105.11515998 932.87529197 -111.56640625 931.1328125 C-112.50162109 930.88370117 -113.43683594 930.63458984 -114.40039062 930.37792969 C-119.52306561 928.97699743 -124.26033367 927.27923256 -129.12890625 925.1328125 C-132.10969793 924.07321518 -135.11904563 923.10620628 -138.12890625 922.1328125 C-139.7348964 921.59922301 -141.34036401 921.06405827 -142.9453125 920.52734375 C-143.72841797 920.26630859 -144.51152344 920.00527344 -145.31835938 919.73632812 C-148.921875 918.53515625 -152.52539063 917.33398437 -156.12890625 916.1328125 C-156.12890625 915.4728125 -156.12890625 914.8128125 -156.12890625 914.1328125 C-156.72058594 914.02324219 -157.31226563 913.91367187 -157.921875 913.80078125 C-162.63658361 912.85476305 -166.04302657 911.72385815 -170.12890625 909.1328125 C-171.57957871 908.55084018 -173.03928752 907.99123771 -174.50390625 907.4453125 C-180.97433277 904.92213288 -186.97290337 901.572224 -193.05664062 898.25341797 C-195.93512055 896.69684129 -198.83510145 895.18242782 -201.734375 893.66503906 C-208.67050061 890.02817674 -215.48585597 886.28713986 -222.12890625 882.1328125 C-223.48039753 881.29285414 -224.83196714 880.45302181 -226.18359375 879.61328125 C-237.12171572 872.80427285 -237.12171572 872.80427285 -241.12890625 870.1328125 C-241.12890625 869.4728125 -241.12890625 868.8128125 -241.12890625 868.1328125 C-241.74765625 867.9884375 -242.36640625 867.8440625 -243.00390625 867.6953125 C-245.12890625 867.1328125 -245.12890625 867.1328125 -247.12890625 866.1328125 C-247.12890625 865.4728125 -247.12890625 864.8128125 -247.12890625 864.1328125 C-247.98097656 863.90722656 -248.83304687 863.68164062 -249.7109375 863.44921875 C-253.6614623 861.92770234 -256.58674786 859.72811353 -259.81640625 857.0703125 C-260.42653564 856.57934082 -261.03666504 856.08836914 -261.6652832 855.58251953 C-263.49357412 854.10776026 -265.31207882 852.62165797 -267.12890625 851.1328125 C-268.10859375 850.33746094 -269.08828125 849.54210937 -270.09765625 848.72265625 C-271.88955449 847.26287708 -273.67742594 845.79813896 -275.4609375 844.328125 C-277.32617012 842.79333622 -279.19923735 841.26804168 -281.078125 839.75 C-282.04363281 838.96882812 -283.00914062 838.18765625 -284.00390625 837.3828125 C-284.86757813 836.68671875 -285.73125 835.990625 -286.62109375 835.2734375 C-289.26722433 833.0147466 -291.68309875 830.60570964 -294.12890625 828.1328125 C-295.65956659 826.72491843 -297.20139432 825.32907314 -298.75390625 823.9453125 C-300.05134766 822.78128906 -300.05134766 822.78128906 -301.375 821.59375 C-303.23866789 819.92834465 -305.1059666 818.26699496 -306.9765625 816.609375 C-311.72003787 812.36830349 -316.16858902 808.12763303 -320.2578125 803.25390625 C-322.57591929 800.6260733 -325.06140797 798.2078314 -327.56640625 795.7578125 C-332.53842954 790.85801793 -336.87708472 785.66096351 -341.12890625 780.1328125 C-342.09430032 778.92023698 -343.06189852 777.70941424 -344.03125 776.5 C-345.04305238 775.23183755 -346.05477155 773.96360871 -347.06640625 772.6953125 C-347.55173828 772.09162842 -348.03707031 771.48794434 -348.53710938 770.8659668 C-350.56987723 768.29854619 -352.08461656 766.26568156 -353.12890625 763.1328125 C-353.78890625 763.1328125 -354.44890625 763.1328125 -355.12890625 763.1328125 C-356.32433103 761.45156238 -357.43603468 759.71033167 -358.50390625 757.9453125 C-360.83492309 754.10991695 -363.28981262 750.60805159 -366.12890625 747.1328125 C-369.12890625 742.52566964 -369.12890625 742.52566964 -369.12890625 740.1328125 C-369.78890625 740.1328125 -370.44890625 740.1328125 -371.12890625 740.1328125 C-372.41686856 738.25132178 -373.60713468 736.30275934 -374.75390625 734.33203125 C-375.10146973 733.73985306 -375.4490332 733.14767487 -375.80712891 732.53755188 C-376.92139086 730.6357983 -378.02533724 728.72828735 -379.12890625 726.8203125 C-380.23467377 724.92440196 -381.34248226 723.02969685 -382.45068359 721.13520813 C-383.45872859 719.40937797 -384.46190202 717.68070513 -385.46484375 715.9519043 C-386.63003173 713.97795687 -387.85742843 712.04002923 -389.12890625 710.1328125 C-389.12890625 709.1428125 -389.12890625 708.1528125 -389.12890625 707.1328125 C-389.78890625 707.1328125 -390.44890625 707.1328125 -391.12890625 707.1328125 C-391.62519531 706.06804688 -392.12148438 705.00328125 -392.6328125 703.90625 C-395.88168328 696.95808216 -399.1503759 690.03186983 -402.62890625 683.1953125 C-413.60568082 661.29143202 -421.49357432 638.39260501 -429.06640625 615.1328125 C-429.30573883 614.40070557 -429.54507141 613.66859863 -429.79165649 612.91430664 C-432.24580111 605.38771278 -434.6282493 597.91839907 -436.12890625 590.1328125 C-436.41094211 588.82773073 -436.69476685 587.52303413 -436.98046875 586.21875 C-437.23570312 584.99414062 -437.4909375 583.76953125 -437.75390625 582.5078125 C-438.14449219 580.66316406 -438.14449219 580.66316406 -438.54296875 578.78125 C-439.12890625 575.1328125 -439.12890625 575.1328125 -439.12890625 568.1328125 C-467.50890625 568.1328125 -495.88890625 568.1328125 -525.12890625 568.1328125 C-525.12890625 505.1028125 -525.12890625 442.0728125 -525.12890625 377.1328125 C-497.07890625 377.1328125 -469.02890625 377.1328125 -440.12890625 377.1328125 C-439.79890625 374.1628125 -439.46890625 371.1928125 -439.12890625 368.1328125 C-438.83140679 366.45937802 -438.50763559 364.78975335 -438.12890625 363.1328125 C-437.96390625 362.3903125 -437.79890625 361.6478125 -437.62890625 360.8828125 C-437.12890625 359.1328125 -437.12890625 359.1328125 -436.12890625 358.1328125 C-435.86971806 356.72132984 -435.64904508 355.30279416 -435.44140625 353.8828125 C-432.4330707 336.64100876 -426.82711572 318.6123671 -419.31640625 302.81640625 C-417.61312596 298.9672169 -416.38385673 294.99600513 -415.09765625 290.9921875 C-413.37296316 285.90156111 -411.11847887 281.10108331 -408.70703125 276.3046875 C-407.05425815 272.98277721 -405.4936674 269.62780463 -403.94140625 266.2578125 C-402.67726678 263.54631037 -401.40498197 260.83871582 -400.12890625 258.1328125 C-399.68635498 257.19236084 -399.68635498 257.19236084 -399.23486328 256.23291016 C-381.64135892 219.14942087 -357.01596115 184.94994177 -329.43237305 154.67138672 C-327.98127944 153.07218467 -326.53748668 151.46629769 -325.10424805 149.85107422 C-319.4634523 143.50147012 -313.58422485 137.43698562 -307.56640625 131.4453125 C-306.67244141 130.54748047 -305.77847656 129.64964844 -304.85742188 128.72460938 C-299.77652271 123.65114386 -294.59599877 118.78599455 -289.12890625 114.1328125 C-288.1646875 113.2871875 -287.20046875 112.4415625 -286.20703125 111.5703125 C-276.55795886 103.25398491 -266.37435976 95.69401609 -256.12890625 88.1328125 C-255.07316406 87.34648438 -254.01742188 86.56015625 -252.9296875 85.75 C-236.86105009 73.88466834 -219.91035942 63.42953781 -202.06640625 54.4453125 C-201.39359619 54.10612793 -200.72078613 53.76694336 -200.02758789 53.41748047 C-195.38742361 51.1328125 -195.38742361 51.1328125 -193.12890625 51.1328125 C-193.12890625 50.4728125 -193.12890625 49.8128125 -193.12890625 49.1328125 C-192.28070313 48.78089844 -191.4325 48.42898437 -190.55859375 48.06640625 C-184.44986841 45.4953713 -178.49830599 42.84884021 -172.62890625 39.7578125 C-166.39738819 36.58165677 -160.01096075 34.08859865 -153.44140625 31.6953125 C-151.98734375 31.16381592 -151.98734375 31.16381592 -150.50390625 30.62158203 C-143.52498683 28.1328125 -143.52498683 28.1328125 -140.12890625 28.1328125 C-140.12890625 27.4728125 -140.12890625 26.8128125 -140.12890625 26.1328125 C-138.67484375 25.67841797 -138.67484375 25.67841797 -137.19140625 25.21484375 C-136.23258545 24.91513672 -136.23258545 24.91513672 -135.25439453 24.609375 C-133.81538225 24.15978697 -132.37625108 23.71057932 -130.93701172 23.26171875 C-127.33411927 22.13752262 -123.73283912 21.00897177 -120.13671875 19.86328125 C-94.05867332 11.57823966 -67.7277406 5.87767036 -40.56640625 2.4453125 C-39.1599585 2.26645508 -39.1599585 2.26645508 -37.72509766 2.08398438 C-25.15689181 0.56056548 -12.6556554 -0.01957429 0 0 Z " fill="#5DA2D9" transform="translate(544.12890625,17.8671875)"/>
<path d="M0 0 C1.10786362 -0.00287018 2.21572723 -0.00574036 3.35716248 -0.00869751 C5.69115716 -0.01073253 8.02516912 -0.00524215 10.35913086 0.00732422 C13.92535594 0.02340036 17.49045034 0.00744771 21.05664062 -0.01171875 C23.32942958 -0.00973652 25.60221783 -0.00589326 27.875 0 C29.46895348 -0.00910904 29.46895348 -0.00910904 31.09510803 -0.0184021 C37.4018716 0.04135654 42.18013217 0.42274676 47.00683594 4.92382812 C50.27646445 9.51615749 51.2564846 13.31825478 51.62109375 18.8984375 C51.68989746 19.69999268 51.75870117 20.50154785 51.82958984 21.32739258 C52.65968354 31.66215763 53.02727925 42.03788103 53.37109375 52.3984375 C54.36109375 52.7284375 55.35109375 53.0584375 56.37109375 53.3984375 C56.37109375 54.0584375 56.37109375 54.7184375 56.37109375 55.3984375 C56.93054688 55.48480469 57.49 55.57117188 58.06640625 55.66015625 C73.10699851 58.29588705 86.29396681 65.02719577 99.625 72.1328125 C103.45453368 73.89777539 105.35842586 73.66559578 109.37109375 72.3984375 C111.21477634 70.8895641 112.7615366 69.24448448 114.3671875 67.484375 C116.65580711 65.10206921 119.10643494 63.08951418 121.68359375 61.0234375 C126.35723441 57.27036243 130.80004177 53.33713021 135.1796875 49.24609375 C139.20841866 45.84932042 141.9582604 45.17508031 147.2734375 45.1328125 C152.7239989 45.82301394 155.97510905 48.56103221 159.89453125 52.24609375 C160.41131439 52.73006119 160.92809753 53.21402863 161.46054077 53.71266174 C166.86825401 58.80533833 172.16849341 64.00971304 177.42041016 69.26245117 C179.02490385 70.86470743 180.63732313 72.45871938 182.25 74.05273438 C183.28303816 75.08284611 184.3156088 76.11342695 185.34765625 77.14453125 C186.26627441 78.05904053 187.18489258 78.9735498 188.13134766 79.91577148 C192.45893316 84.71272123 193.08969613 88.78460667 193.02734375 95.15234375 C191.80268014 101.2100548 187.51403797 105.04798831 183.37109375 109.3984375 C182.54544922 110.543125 182.54544922 110.543125 181.703125 111.7109375 C181.26355469 112.2678125 180.82398438 112.8246875 180.37109375 113.3984375 C179.71109375 113.3984375 179.05109375 113.3984375 178.37109375 113.3984375 C178.15710938 113.92824219 177.943125 114.45804687 177.72265625 115.00390625 C175.51045249 118.92321522 172.27146568 122.10357683 169.18359375 125.35742188 C166.43099186 128.44135548 165.43359056 129.89263704 164.91015625 134.12890625 C165.14972512 137.53559252 165.14972512 137.53559252 167.37109375 140.3984375 C167.37109375 141.3884375 167.37109375 142.3784375 167.37109375 143.3984375 C168.03109375 143.3984375 168.69109375 143.3984375 169.37109375 143.3984375 C173.4407143 151.94324216 177.0758839 160.52490813 180.37109375 169.3984375 C180.67015625 170.18476563 180.96921875 170.97109375 181.27734375 171.78125 C182.41807638 174.78137683 183.49763646 177.78509577 184.49609375 180.8359375 C185.12814545 183.30238027 185.12814545 183.30238027 186.37109375 184.3984375 C187.86341691 184.61487415 189.36473922 184.76989805 190.8671875 184.8984375 C192.28185303 185.0212207 192.28185303 185.0212207 193.72509766 185.14648438 C194.74265137 185.22962891 195.76020508 185.31277344 196.80859375 185.3984375 C197.84161621 185.48673828 198.87463867 185.57503906 199.93896484 185.66601562 C207.18440949 186.2685938 214.42970236 186.73658273 221.69702148 186.96875 C226.6017578 187.17367192 230.4404313 187.62581601 234.13671875 191.01953125 C234.6265625 191.61894531 235.11640625 192.21835937 235.62109375 192.8359375 C236.12125 193.43277344 236.62140625 194.02960938 237.13671875 194.64453125 C239.42752628 197.89950778 239.49376156 200.75528899 239.48461914 204.60424805 C239.48454361 205.66512131 239.48446808 206.72599457 239.48439026 207.8190155 C239.47922897 208.96284195 239.47406769 210.1066684 239.46875 211.28515625 C239.46662758 213.04337456 239.46662758 213.04337456 239.46446228 214.83711243 C239.45885763 218.58674657 239.44630431 222.33632135 239.43359375 226.0859375 C239.42857935 228.62565018 239.42401634 231.1653638 239.41992188 233.70507812 C239.40888669 239.93621823 239.392144 246.16732362 239.37109375 252.3984375 C238.71109375 252.3984375 238.05109375 252.3984375 237.37109375 252.3984375 C237.27828125 253.15640625 237.18546875 253.914375 237.08984375 254.6953125 C236.00371457 258.78010267 233.92480346 259.98605728 230.44140625 262.17578125 C224.64191508 264.48524784 218.53173499 264.23928547 212.36303711 264.32055664 C209.33408273 264.43898248 206.36852664 264.96027455 203.37109375 265.3984375 C199.6676231 265.65040056 195.9576712 265.78744876 192.24804688 265.91601562 C187.84252847 265.96105619 187.84252847 265.96105619 184.37109375 268.3984375 C183.55870623 270.97688484 182.82093072 273.53969564 182.12109375 276.1484375 C180.13314549 283.26407824 177.63570309 289.90850644 174.60546875 296.640625 C173.31502114 299.40176031 173.31502114 299.40176031 172.37109375 302.3984375 C171.71109375 302.3984375 171.05109375 302.3984375 170.37109375 302.3984375 C170.28859375 303.0790625 170.20609375 303.7596875 170.12109375 304.4609375 C169.30537604 307.65583185 168.01581299 309.83131665 166.2109375 312.5546875 C165.02148915 315.16594155 164.88224707 316.53992723 165.37109375 319.3984375 C167.11266654 321.78536467 168.81926318 323.86484666 170.80859375 326.0234375 C171.91251418 327.26338371 173.01536763 328.50428061 174.1171875 329.74609375 C174.66745605 330.35984863 175.21772461 330.97360352 175.78466797 331.60595703 C178.05277911 334.16866433 180.21256854 336.80512267 182.37109375 339.4609375 C183.05171875 340.29753906 183.73234375 341.13414062 184.43359375 341.99609375 C185.07296875 342.78886719 185.71234375 343.58164062 186.37109375 344.3984375 C187.0878125 345.26855469 187.80453125 346.13867188 188.54296875 347.03515625 C192.14026143 351.68550256 192.60540224 356.3683597 192.83203125 362.0546875 C191.66199197 368.00403978 186.6507 372.39522839 182.46875 376.49609375 C181.62938148 377.33121742 181.62938148 377.33121742 180.77305603 378.18321228 C178.99791641 379.94724868 177.21594099 381.7041869 175.43359375 383.4609375 C174.2410721 384.64341209 173.04901053 385.82635085 171.85742188 387.00976562 C169.17268331 389.67463576 166.48371071 392.33513282 163.7895813 394.99050903 C162.40123198 396.36852361 161.02937727 397.76309344 159.65795898 399.15795898 C155.48629907 403.24500105 151.75737596 404.61080433 145.99609375 404.9609375 C139.71648586 404.7333544 136.87832304 402.54292745 132.37109375 398.3984375 C131.30168716 397.47638201 130.22843629 396.558775 129.15234375 395.64453125 C126.73370052 393.58746701 124.32024942 391.52475151 121.9140625 389.453125 C121.31899902 388.94104492 120.72393555 388.42896484 120.11083984 387.90136719 C118.99106907 386.934021 117.87398006 385.9635572 116.76025391 384.98925781 C115.30641892 383.71918757 113.83907538 382.46462986 112.37109375 381.2109375 C111.54609375 380.49550781 110.72109375 379.78007813 109.87109375 379.04296875 C107.00171748 377.15545717 104.76118734 376.72857743 101.37109375 376.3984375 C101.37109375 377.0584375 101.37109375 377.7184375 101.37109375 378.3984375 C100.10417868 379.07252058 98.83238626 379.73744247 97.55859375 380.3984375 C96.85089844 380.7696875 96.14320313 381.1409375 95.4140625 381.5234375 C93.37109375 382.3984375 93.37109375 382.3984375 90.37109375 382.3984375 C90.37109375 383.0584375 90.37109375 383.7184375 90.37109375 384.3984375 C89.33210938 384.78515625 88.293125 385.171875 87.22265625 385.5703125 C78.04322731 388.98780252 78.04322731 388.98780252 68.93359375 392.5859375 C65.03710366 394.17095042 61.09803366 395.52300298 57.0859375 396.78515625 C55.36378895 397.26317726 55.36378895 397.26317726 54.37109375 398.3984375 C54.23731818 399.90515304 54.16755847 401.41764371 54.125 402.9296875 C54.0935791 403.87787354 54.0621582 404.82605957 54.02978516 405.80297852 C53.98217041 407.33523071 53.98217041 407.33523071 53.93359375 408.8984375 C53.65256924 416.27561767 53.30493684 423.62079019 52.49609375 430.9609375 C52.28339844 432.91193359 52.28339844 432.91193359 52.06640625 434.90234375 C50.94443255 440.54372836 48.76156137 444.67319225 44.37109375 448.3984375 C41.19236562 450.32624514 38.76688124 450.66251976 35.07104492 450.70483398 C34.01282028 450.72082138 32.95459564 450.73680878 31.86430359 450.75328064 C30.15643425 450.76132469 30.15643425 450.76132469 28.4140625 450.76953125 C27.23773758 450.77855972 26.06141266 450.7875882 24.84944153 450.79689026 C22.36050971 450.81139718 19.87153971 450.82028058 17.38256836 450.82397461 C13.58316413 450.83586063 9.78538914 450.88503728 5.98632812 450.93554688 C3.56641417 450.94501238 1.14649024 450.9522468 -1.2734375 450.95703125 C-2.40594437 450.97656357 -3.53845123 450.99609589 -4.70527649 451.01622009 C-11.72358322 450.97626869 -15.409347 450.18796097 -20.62890625 445.3984375 C-23.79960283 441.45988956 -24.26721277 437.48821469 -24.69140625 432.5859375 C-24.76810547 431.82345703 -24.84480469 431.06097656 -24.92382812 430.27539062 C-25.38987596 425.50503113 -25.76173136 420.72836113 -26.125 415.94921875 C-26.20935303 414.86294189 -26.29370605 413.77666504 -26.38061523 412.6574707 C-26.54465023 410.5043702 -26.69928864 408.35053084 -26.84399414 406.19604492 C-26.91739014 405.21095947 -26.99078613 404.22587402 -27.06640625 403.2109375 C-27.12699219 402.33050781 -27.18757812 401.45007813 -27.25 400.54296875 C-27.45427591 398.19087312 -27.45427591 398.19087312 -29.62890625 396.3984375 C-31.46625552 395.87675643 -33.32491658 395.42867791 -35.19140625 395.0234375 C-39.90144422 393.90627712 -44.07622076 392.49718856 -48.4375 390.421875 C-50.69845529 389.36595649 -52.98451599 388.47319331 -55.31640625 387.5859375 C-61.96583317 384.97028615 -68.27744223 381.6565372 -74.62890625 378.3984375 C-74.62890625 377.7384375 -74.62890625 377.0784375 -74.62890625 376.3984375 C-79.99913517 377.60872308 -82.86128755 379.0234247 -86.87890625 382.9609375 C-91.46457094 387.32613754 -96.18816183 391.38019379 -101.11328125 395.35546875 C-103.3193579 397.14704963 -105.48256311 398.97366919 -107.62890625 400.8359375 C-111.33348799 404.00026774 -113.46291008 405.70640934 -118.31640625 405.8359375 C-119.12464844 405.87589844 -119.93289063 405.91585938 -120.765625 405.95703125 C-128.2443352 404.49801957 -133.90211538 398.57384195 -139.0859375 393.33984375 C-139.75558029 392.67307114 -140.42522308 392.00629852 -141.11515808 391.31932068 C-142.51787704 389.91862952 -143.9168698 388.5141976 -145.31225586 387.10620117 C-147.44253952 384.95979565 -149.58843624 382.82994088 -151.73632812 380.70117188 C-153.10382791 379.33169042 -154.4703972 377.96127905 -155.8359375 376.58984375 C-156.47344437 375.95840958 -157.11095123 375.3269754 -157.76777649 374.67640686 C-162.44615754 369.92362052 -165.97270854 365.20963582 -166.50390625 358.3359375 C-166.30859708 350.75999749 -161.02406731 346.15199798 -156.09960938 340.97851562 C-153.919543 338.63631948 -151.93786688 336.1475036 -149.94140625 333.6484375 C-147.11274153 330.12923076 -144.15384895 326.88026779 -141.00390625 323.6484375 C-137.97373257 320.26216984 -137.97373257 320.26216984 -137.37890625 315.7109375 C-138.47890659 312.39215631 -138.47890659 312.39215631 -140.421875 309.8046875 C-143.24373616 305.66933395 -145.16987948 301.1505654 -147.19140625 296.5859375 C-147.57748047 295.73451172 -147.96355469 294.88308594 -148.36132812 294.00585938 C-150.79554564 288.56100828 -152.85485364 283.09116574 -154.62890625 277.3984375 C-154.91894531 276.48191406 -155.20898438 275.56539062 -155.5078125 274.62109375 C-155.96902322 273.16366786 -156.42729068 271.70530772 -156.8828125 270.24609375 C-157.57058336 268.19615653 -157.57058336 268.19615653 -159.62890625 266.3984375 C-162.62153492 266.05983412 -165.54364613 265.83600584 -168.546875 265.6875 C-170.37698101 265.57597745 -172.20705831 265.46398311 -174.03710938 265.3515625 C-176.92230427 265.18497232 -179.80759303 265.02390116 -182.69360352 264.87207031 C-185.4791754 264.72187377 -188.26274731 264.54970179 -191.046875 264.375 C-191.90129684 264.33629791 -192.75571869 264.29759583 -193.6360321 264.25772095 C-199.34371017 263.88389274 -202.92183708 262.69877469 -207.62890625 259.3984375 C-213.44045331 251.59872961 -212.78773865 242.45341543 -212.83203125 233.0703125 C-212.83773132 232.11827942 -212.8434314 231.16624634 -212.8493042 230.18536377 C-212.85868671 228.18869111 -212.86526104 226.19200344 -212.86914062 224.1953125 C-212.87892381 221.14295987 -212.91004134 218.09125986 -212.94140625 215.0390625 C-212.94793038 213.0911498 -212.95318316 211.14323233 -212.95703125 209.1953125 C-212.96937805 208.28690613 -212.98172485 207.37849976 -212.9944458 206.44256592 C-212.97725047 201.56382494 -212.75771554 198.37573744 -209.62890625 194.3984375 C-209.02828369 193.53968018 -209.02828369 193.53968018 -208.41552734 192.66357422 C-202.42246938 186.35853153 -193.37690879 187.00184747 -185.25390625 186.5234375 C-183.67560387 186.40866366 -182.09747371 186.29149533 -180.51953125 186.171875 C-173.22085696 185.63858336 -165.95008645 185.24696481 -158.62890625 185.3984375 C-158.45004883 184.78484375 -158.27119141 184.17125 -158.08691406 183.5390625 C-154.87966961 172.59270321 -151.51891309 161.72178527 -146.62890625 151.3984375 C-145.96890625 151.3984375 -145.30890625 151.3984375 -144.62890625 151.3984375 C-144.43554688 150.79515625 -144.2421875 150.191875 -144.04296875 149.5703125 C-143.65238281 148.37148438 -143.65238281 148.37148438 -143.25390625 147.1484375 C-142.87105469 145.96507812 -142.87105469 145.96507812 -142.48046875 144.7578125 C-141.67716958 142.53215792 -140.73178963 140.48912078 -139.62890625 138.3984375 C-138.96890625 138.3984375 -138.30890625 138.3984375 -137.62890625 138.3984375 C-137.31382915 134.84994622 -137.29832217 132.92818828 -139.2109375 129.86328125 C-139.94699219 129.02925781 -140.68304688 128.19523437 -141.44140625 127.3359375 C-142.25609375 126.39492188 -143.07078125 125.45390625 -143.91015625 124.484375 C-144.34972656 123.98776367 -144.78929687 123.49115234 -145.2421875 122.97949219 C-146.69859302 121.31898476 -148.1197983 119.63309883 -149.53515625 117.9375 C-154.5409963 111.8559695 -154.5409963 111.8559695 -159.953125 106.14453125 C-161.62890625 104.3984375 -161.62890625 104.3984375 -161.62890625 102.3984375 C-162.28890625 102.3984375 -162.94890625 102.3984375 -163.62890625 102.3984375 C-165.84429724 97.13688389 -166.52429107 92.02783712 -165.62890625 86.3984375 C-164.25418182 83.52122615 -162.81721918 81.79516119 -160.62890625 79.3984375 C-159.96890625 79.3984375 -159.30890625 79.3984375 -158.62890625 79.3984375 C-158.62890625 78.7384375 -158.62890625 78.0784375 -158.62890625 77.3984375 C-157.96890625 77.3984375 -157.30890625 77.3984375 -156.62890625 77.3984375 C-155.96890625 76.0784375 -155.30890625 74.7584375 -154.62890625 73.3984375 C-153.96890625 73.3984375 -153.30890625 73.3984375 -152.62890625 73.3984375 C-152.26986206 72.55261108 -152.26986206 72.55261108 -151.90356445 71.68969727 C-150.35585197 68.90760923 -148.48266695 66.9929481 -146.234375 64.73828125 C-145.36103516 63.86236328 -144.48769531 62.98644531 -143.58789062 62.08398438 C-142.67330078 61.17712891 -141.75871094 60.27027344 -140.81640625 59.3359375 C-139.46192383 57.96985352 -139.46192383 57.96985352 -138.08007812 56.57617188 C-137.20287109 55.70154297 -136.32566406 54.82691406 -135.421875 53.92578125 C-134.62289795 53.12906006 -133.8239209 52.33233887 -133.00073242 51.51147461 C-128.27508387 47.3014398 -125.15964225 46.01871823 -118.81640625 46.2109375 C-117.07423828 46.25154297 -117.07423828 46.25154297 -115.296875 46.29296875 C-114.41644531 46.32777344 -113.53601563 46.36257813 -112.62890625 46.3984375 C-112.62890625 47.0584375 -112.62890625 47.7184375 -112.62890625 48.3984375 C-111.81099609 48.49125 -111.81099609 48.49125 -110.9765625 48.5859375 C-107.65174657 49.73662255 -105.54251752 51.99637214 -103.06640625 54.3984375 C-97.46397324 59.68890208 -91.65481322 64.59103937 -85.62890625 69.3984375 C-84.77425781 70.14480469 -83.91960937 70.89117187 -83.0390625 71.66015625 C-80.63357377 73.76913047 -80.63357377 73.76913047 -77.00390625 73.2734375 C-73.53071436 72.56996258 -73.53071436 72.56996258 -70.62890625 70.3984375 C-69.30890625 70.3984375 -67.98890625 70.3984375 -66.62890625 70.3984375 C-66.62890625 69.7384375 -66.62890625 69.0784375 -66.62890625 68.3984375 C-43.19600869 57.79942723 -43.19600869 57.79942723 -32.078125 55.1171875 C-29.47739211 54.56651187 -29.47739211 54.56651187 -27.62890625 52.3984375 C-27.26644398 49.52787922 -27.01855644 46.73082455 -26.84765625 43.84765625 C-26.78864136 42.99669876 -26.72962646 42.14574127 -26.66882324 41.26899719 C-26.4801056 38.54181805 -26.30324172 35.81407142 -26.12890625 33.0859375 C-25.95424271 30.36854819 -25.77675627 27.65152993 -25.58898926 24.93501282 C-25.47209523 23.24378955 -25.36264661 21.55203084 -25.26159668 19.85978699 C-24.79989691 13.17492585 -23.43595136 8.33540274 -18.62890625 3.3984375 C-12.47657648 -0.02495744 -6.94088373 -0.03974109 0 0 Z " fill="#2E4658" transform="translate(537.62890625,261.6015625)"/>
<path d="M0 0 C1.64258789 0.00676758 1.64258789 0.00676758 3.31835938 0.01367188 C5.98313309 0.02530844 8.64778517 0.04165436 11.3125 0.0625 C11.3125 0.7225 11.3125 1.3825 11.3125 2.0625 C12.92125 1.9696875 12.92125 1.9696875 14.5625 1.875 C24.71533087 1.9107494 34.21287415 5.9215861 43.3125 10.0625 C44.02019531 10.38089844 44.72789062 10.69929688 45.45703125 11.02734375 C73.88376938 24.51701785 92.96925962 48.80601933 103.8671875 77.73828125 C113.38007228 104.82238482 109.31817735 135.44474559 97.43603516 160.94335938 C84.80178361 186.97757468 61.98737903 208.44360725 34.61376953 218.23828125 C31.53487404 219.29012294 28.46061717 220.24586779 25.3125 221.0625 C24.31186523 221.32289063 23.31123047 221.58328125 22.28027344 221.8515625 C13.33508216 223.98486045 4.86227349 224.5189329 -4.3125 224.4375 C-6.28476562 224.45490234 -6.28476562 224.45490234 -8.296875 224.47265625 C-16.55352701 224.44803403 -23.78735051 223.40163819 -31.6875 221.0625 C-33.602839 220.5780536 -35.51935764 220.09822477 -37.4375 219.625 C-42.22907353 218.29704962 -46.35350573 216.46937111 -50.6875 214.0625 C-51.52925781 213.6190625 -52.37101562 213.175625 -53.23828125 212.71875 C-69.18692228 204.23687019 -81.63409588 194.47798121 -92.6875 180.0625 C-93.265 179.33804688 -93.8425 178.61359375 -94.4375 177.8671875 C-95.6875 176.0625 -95.6875 176.0625 -95.6875 174.0625 C-96.3475 174.0625 -97.0075 174.0625 -97.6875 174.0625 C-103.64453125 162.1484375 -103.64453125 162.1484375 -104.69799805 160.03100586 C-105.55201284 158.33203688 -106.43363023 156.64699457 -107.3203125 154.96484375 C-108.82363345 151.77350814 -109.80793317 148.64830583 -110.75 145.25 C-111.07097656 144.10917969 -111.39195312 142.96835937 -111.72265625 141.79296875 C-112.20025391 139.94638672 -112.20025391 139.94638672 -112.6875 138.0625 C-112.86845215 137.44608643 -113.0494043 136.82967285 -113.23583984 136.19458008 C-115.30529906 128.40471759 -115.17309747 120.37909894 -115.1875 112.375 C-115.18951416 111.59893402 -115.19152832 110.82286804 -115.19360352 110.02328491 C-115.15889504 90.20193931 -110.66035551 73.2368697 -100.6875 56.0625 C-100.11 55.05960937 -99.5325 54.05671875 -98.9375 53.0234375 C-82.56169773 26.10950322 -57.03076942 9.41188882 -26.89453125 1.640625 C-17.97366161 0.03247798 -9.03993873 -0.07196522 0 0 Z " fill="#2F475A" transform="translate(554.6875,374.9375)"/>
<path d="M0 0 C0 0.66 0 1.32 0 2 C0.57105469 2.25910156 1.14210938 2.51820313 1.73046875 2.78515625 C10.19179008 7.31436612 15.40416841 14.83096951 20 23 C20.38929688 23.67933594 20.77859375 24.35867188 21.1796875 25.05859375 C30.78170443 42.96002841 30.68102736 61.06324214 25 80 C24.05964083 83.02960905 23.06715955 86.01195327 22 89 C21.34 89 20.68 89 20 89 C19.74347656 89.88945313 19.48695313 90.77890625 19.22265625 91.6953125 C14.81342964 103.61290264 2.99405649 112.49303138 -8 118 C-8.59941406 118.34675781 -9.19882812 118.69351563 -9.81640625 119.05078125 C-20.01236604 124.75435271 -30.81355549 126.36380125 -42.3125 126.4375 C-43.21887207 126.44749023 -44.12524414 126.45748047 -45.05908203 126.46777344 C-61.26705725 126.26100138 -77.21853016 117.80817039 -88.640625 106.59375 C-101.02254014 92.98184329 -108.88423141 76.33786046 -109.375 57.75 C-109.28585188 56.16424401 -109.15828652 54.58035275 -109 53 C-108.92910156 51.97261719 -108.85820312 50.94523437 -108.78515625 49.88671875 C-107.40172624 36.16122776 -102.27815737 23.26286747 -93 13 C-92.5771875 12.42636719 -92.154375 11.85273438 -91.71875 11.26171875 C-69.63639353 -18.02433328 -28.69463416 -17.02838139 0 0 Z " fill="#FCFCFC" transform="translate(591,430)"/>
<path d="M0 0 C1.64258789 0.00676758 1.64258789 0.00676758 3.31835938 0.01367188 C5.98313309 0.02530844 8.64778517 0.04165436 11.3125 0.0625 C11.3125 0.7225 11.3125 1.3825 11.3125 2.0625 C12.92125 1.9696875 12.92125 1.9696875 14.5625 1.875 C24.71533087 1.9107494 34.21287415 5.9215861 43.3125 10.0625 C44.02019531 10.38089844 44.72789062 10.69929688 45.45703125 11.02734375 C73.88376938 24.51701785 92.96925962 48.80601933 103.8671875 77.73828125 C113.38007228 104.82238482 109.31817735 135.44474559 97.43603516 160.94335938 C84.80178361 186.97757468 61.98737903 208.44360725 34.61376953 218.23828125 C31.53487404 219.29012294 28.46061717 220.24586779 25.3125 221.0625 C24.31186523 221.32289063 23.31123047 221.58328125 22.28027344 221.8515625 C13.33508216 223.98486045 4.86227349 224.5189329 -4.3125 224.4375 C-6.28476562 224.45490234 -6.28476562 224.45490234 -8.296875 224.47265625 C-16.55352701 224.44803403 -23.78735051 223.40163819 -31.6875 221.0625 C-33.602839 220.5780536 -35.51935764 220.09822477 -37.4375 219.625 C-42.22907353 218.29704962 -46.35350573 216.46937111 -50.6875 214.0625 C-51.52925781 213.6190625 -52.37101562 213.175625 -53.23828125 212.71875 C-69.18692228 204.23687019 -81.63409588 194.47798121 -92.6875 180.0625 C-93.265 179.33804688 -93.8425 178.61359375 -94.4375 177.8671875 C-95.6875 176.0625 -95.6875 176.0625 -95.6875 174.0625 C-96.3475 174.0625 -97.0075 174.0625 -97.6875 174.0625 C-103.64453125 162.1484375 -103.64453125 162.1484375 -104.69799805 160.03100586 C-105.55201284 158.33203688 -106.43363023 156.64699457 -107.3203125 154.96484375 C-108.82363345 151.77350814 -109.80793317 148.64830583 -110.75 145.25 C-111.07097656 144.10917969 -111.39195312 142.96835937 -111.72265625 141.79296875 C-112.20025391 139.94638672 -112.20025391 139.94638672 -112.6875 138.0625 C-112.86845215 137.44608643 -113.0494043 136.82967285 -113.23583984 136.19458008 C-115.30529906 128.40471759 -115.17309747 120.37909894 -115.1875 112.375 C-115.18951416 111.59893402 -115.19152832 110.82286804 -115.19360352 110.02328491 C-115.15889504 90.20193931 -110.66035551 73.2368697 -100.6875 56.0625 C-100.11 55.05960937 -99.5325 54.05671875 -98.9375 53.0234375 C-82.56169773 26.10950322 -57.03076942 9.41188882 -26.89453125 1.640625 C-17.97366161 0.03247798 -9.03993873 -0.07196522 0 0 Z M-42.6875 26.0625 C-43.7496875 26.59359375 -44.811875 27.1246875 -45.90625 27.671875 C-62.24008274 36.24610746 -77.06112708 49.61847662 -85.6875 66.0625 C-85.6875 67.0525 -85.6875 68.0425 -85.6875 69.0625 C-86.3475 69.0625 -87.0075 69.0625 -87.6875 69.0625 C-94.57643074 86.03735213 -94.57643074 86.03735213 -96.6875 104.0625 C-96.71825625 105.44281339 -96.75372574 106.82302682 -96.79296875 108.203125 C-96.98481724 116.70872316 -96.5092977 124.71936277 -94.6875 133.0625 C-94.51605469 133.99964844 -94.34460938 134.93679688 -94.16796875 135.90234375 C-91.37972264 149.30391375 -84.28864255 161.54999244 -75.6875 172.0625 C-74.95015625 172.97515625 -74.2128125 173.8878125 -73.453125 174.828125 C-64.15248632 185.70926437 -52.73716162 193.30756073 -39.6875 199.0625 C-39.04039062 199.35511719 -38.39328125 199.64773438 -37.7265625 199.94921875 C-35.73616704 200.77058281 -33.74586763 201.42783665 -31.6875 202.0625 C-30.5840625 202.41441406 -29.480625 202.76632812 -28.34375 203.12890625 C-6.52926637 209.60398566 19.0909283 206.89614968 39.12890625 196.0546875 C61.53248259 183.35584715 79.04593443 164.17434331 86.4453125 139.24609375 C86.77273438 138.00988281 87.10015625 136.77367187 87.4375 135.5 C87.77007813 134.26121094 88.10265625 133.02242188 88.4453125 131.74609375 C94.21659658 107.2311348 88.79634373 82.4933523 76 61.125 C61.27117984 39.58284807 38.68966548 24.02987506 13 19.1875 C-5.67195224 16.11596063 -25.55351774 17.49550887 -42.6875 26.0625 Z " fill="#F9FAF9" transform="translate(554.6875,374.9375)"/>
<path d="M0 0 C1 3 1 3 0 5.3125 C-2.57725066 8.77568057 -5.63853487 11.32003739 -9 14 C-8.50128936 9.54326841 -6.97995638 7.42312822 -3.9375 4.1875 C-3.20402344 3.39730469 -2.47054688 2.60710938 -1.71484375 1.79296875 C-1.14894531 1.20128906 -0.58304687 0.60960937 0 0 Z " fill="#44596B" transform="translate(392,590)"/>
<path d="M0 0 C0.66 0.99 1.32 1.98 2 3 C1.375 6.0625 1.375 6.0625 0 9 C-2.0859375 10.18359375 -2.0859375 10.18359375 -4 11 C-3.52269162 9.5410574 -3.04308958 8.08286504 -2.5625 6.625 C-2.29566406 5.81289063 -2.02882813 5.00078125 -1.75390625 4.1640625 C-1 2 -1 2 0 0 Z " fill="#5B6E7D" transform="translate(391,413)"/>
<path d="M0 0 C-0.33 2.64 -0.66 5.28 -1 8 C-1.66 8 -2.32 8 -3 8 C-3 5.69 -3 3.38 -3 1 C-1 0 -1 0 0 0 Z " fill="#3A4E5E" transform="translate(644,498)"/>
<path d="M0 0 C0.66 0.66 1.32 1.32 2 2 C1.34 3.65 0.68 5.3 0 7 C-0.99 7 -1.98 7 -3 7 C-1.125 1.125 -1.125 1.125 0 0 Z " fill="#3C5163" transform="translate(452,430)"/>
</svg>
