<?xml version="1.0" encoding="UTF-8"?>
<svg version="1.1" xmlns="http://www.w3.org/2000/svg" width="1056" height="992">
<path d="M0 0 C348.48 0 696.96 0 1056 0 C1056 327.36 1056 654.72 1056 992 C707.52 992 359.04 992 0 992 C0 664.64 0 337.28 0 0 Z " fill="#FCFDFD" transform="translate(0,0)"/>
<path d="M0 0 C0.78139595 -0.0041605 1.5627919 -0.008321 2.36786652 -0.01260757 C29.09910972 -0.13583267 54.70861393 1.79992024 80.97668457 7.05706787 C85.48631849 7.93572366 90.01724149 8.69841875 94.54672241 9.46711731 C101.88907532 10.73507129 109.06195833 12.5585968 116.25 14.5 C117.63517822 14.8714917 117.63517822 14.8714917 119.04833984 15.25048828 C156.03550248 25.22395105 156.03550248 25.22395105 170.9296875 32.4609375 C173.28652742 33.5163574 175.5698658 34.20976322 178.0625 34.875 C182.7319752 36.19874531 186.86986052 38.1710643 191.17431641 40.39892578 C194.94703677 42.35026445 198.74472365 44.21850918 202.59375 46.015625 C215.22017672 51.91138275 227.35091022 58.25026852 239.25 65.5 C240.20583984 66.0779834 241.16167969 66.6559668 242.14648438 67.25146484 C254.35360987 74.65569096 266.2413313 82.25991417 277.46484375 91.09570312 C279.24819001 92.49857617 281.04420159 93.88361887 282.84375 95.265625 C294.27892012 104.09081541 305.17713869 113.51155764 315.8125 123.28125 C317.88530242 125.16803169 319.98974471 126.997533 322.125 128.8125 C330.13565228 135.78259332 337.72384483 143.46500742 344.58984375 151.5625 C346.52666913 153.82288915 348.54539882 155.99850672 350.5625 158.1875 C355.28813874 163.43112612 359.56913143 168.97500769 363.81542969 174.60644531 C365.41064395 176.71204127 367.02055936 178.80586161 368.6328125 180.8984375 C369.21192383 181.65116943 369.79103516 182.40390137 370.38769531 183.17944336 C371.51890989 184.64973616 372.65102556 186.11933625 373.78417969 187.58813477 C382.25 198.62738689 382.25 198.62738689 382.25 201.5 C381.28320312 202.03367188 380.31640625 202.56734375 379.3203125 203.1171875 C374.76388906 205.72380041 370.44927778 208.65342484 366.125 211.625 C365.28533691 212.20048584 364.44567383 212.77597168 363.58056641 213.36889648 C357.75219144 217.39271904 352.13038832 221.59648827 346.55859375 225.96875 C342.69510634 228.96536073 338.69262476 231.75966244 334.6875 234.5625 C326.92369109 239.99638787 319.30818305 245.59103614 311.80859375 251.38671875 C310.72771484 252.21623047 310.72771484 252.21623047 309.625 253.0625 C309.01398437 253.53816406 308.40296875 254.01382813 307.7734375 254.50390625 C306.25 255.5 306.25 255.5 304.25 255.5 C302.64957422 253.25819376 301.15784201 251.0126402 299.6875 248.6875 C295.28426705 241.90247837 290.48555767 235.67080615 285.25 229.5 C283.66327031 227.56528049 282.07991311 225.62778999 280.5 223.6875 C279.7575 222.78128906 279.015 221.87507812 278.25 220.94140625 C277.08061842 219.5139385 275.91305985 218.08496695 274.75 216.65234375 C272.55915881 213.97540967 270.26142616 211.48624368 267.80664062 209.05224609 C265.95363114 207.20446782 264.12191703 205.33652015 262.2890625 203.46875 C260.81782266 201.97905375 259.3464657 200.48947315 257.875 199 C256.78058594 197.88044922 256.78058594 197.88044922 255.6640625 196.73828125 C252.43798521 193.48339969 249.29690734 190.39632385 245.5234375 187.78125 C242.36866369 185.58269642 239.91710359 183.25397992 237.25 180.5 C228.6870493 172.92010708 219.55497726 166.13241646 210.25 159.5 C209.49396484 158.9548877 208.73792969 158.40977539 207.95898438 157.84814453 C201.82433579 153.47544668 195.50406141 149.54701387 189 145.75 C188.04609375 145.18667969 187.0921875 144.62335938 186.109375 144.04296875 C181.55732401 141.36863879 177.01697469 138.77151143 172.25 136.5 C172.25 135.84 172.25 135.18 172.25 134.5 C168.95 133.51 165.65 132.52 162.25 131.5 C162.25 130.84 162.25 130.18 162.25 129.5 C161.05375 129.231875 159.8575 128.96375 158.625 128.6875 C153.83362476 127.61357107 149.78174199 125.30448634 145.4609375 123.03515625 C139.43940621 119.90827292 133.52063357 117.45454688 127.046875 115.43359375 C124.51556834 114.58864641 122.21104085 113.59737833 119.8125 112.4375 C115.13505127 110.26036023 110.32339276 109.28804845 105.296875 108.2109375 C102.86739796 107.64405952 100.73176033 107.00659828 98.4375 106.0625 C89.42313037 102.43383426 79.3473259 100.51221708 69.77734375 98.9921875 C67.25 98.5 67.25 98.5 64.03222656 97.53393555 C60.39960496 96.54089704 56.93925955 95.93932898 53.20703125 95.46484375 C52.55731857 95.38126114 51.9076059 95.29767853 51.23820496 95.21156311 C49.87128712 95.03683182 48.50403473 94.8646995 47.13647461 94.69506836 C45.08429528 94.44020677 43.03334379 94.17687953 40.98242188 93.91210938 C29.2917267 92.42715374 17.70068417 91.3504883 5.90625 91.296875 C4.86615784 91.28995132 3.82606567 91.28302765 2.75445557 91.27589417 C-0.58040186 91.25872484 -3.91510047 91.25230832 -7.25 91.25 C-8.38739624 91.24866058 -9.52479248 91.24732117 -10.69665527 91.24594116 C-31.99339929 91.25138454 -52.79861713 92.18885209 -73.6640625 96.8203125 C-76.64363523 97.47657282 -79.60974182 97.97672328 -82.625 98.4375 C-96.02744969 100.63707084 -108.9142186 104.29226641 -121.75415039 108.65405273 C-124.07593132 109.44205855 -126.40179948 110.21693697 -128.72851562 110.99023438 C-136.44743547 113.57547305 -144.00904467 116.30441731 -151.45385742 119.61938477 C-153.75 120.5 -153.75 120.5 -156.75 120.5 C-156.75 121.16 -156.75 121.82 -156.75 122.5 C-157.28625 122.6959375 -157.8225 122.891875 -158.375 123.09375 C-166.79358185 126.3061036 -174.77069651 130.34118846 -182.75 134.5 C-183.45157227 134.86335449 -184.15314453 135.22670898 -184.87597656 135.60107422 C-209.85323561 148.65034767 -232.81543055 165.70256184 -253.75 184.5 C-254.29188965 184.98404297 -254.8337793 185.46808594 -255.39208984 185.96679688 C-267.8265365 197.11307614 -280.33992802 208.65728708 -290.64453125 221.83203125 C-292.65550256 224.38025649 -294.7462599 226.82767789 -296.87451172 229.27709961 C-301.67345141 234.81828617 -305.93778418 240.48475257 -309.9140625 246.66015625 C-311.66637578 249.37064935 -313.49886365 251.99922839 -315.375 254.625 C-318.15920709 258.57819698 -320.69332089 262.62266205 -323.14453125 266.7890625 C-325.01468323 269.9469347 -326.94327017 273.06715043 -328.875 276.1875 C-334.28286174 284.41277134 -334.28286174 284.41277134 -337.75 293.5 C-338.41 293.83 -339.07 294.16 -339.75 294.5 C-340.7259401 296.22186824 -340.7259401 296.22186824 -341.58984375 298.32421875 C-341.93080078 299.10603516 -342.27175781 299.88785156 -342.62304688 300.69335938 C-342.97431641 301.51642578 -343.32558594 302.33949219 -343.6875 303.1875 C-344.38281271 304.79613626 -345.07940315 306.40422091 -345.77734375 308.01171875 C-346.11161377 308.78346436 -346.44588379 309.55520996 -346.7902832 310.3503418 C-347.61372501 312.19475927 -348.50733889 314.00756662 -349.4140625 315.8125 C-350.88768695 318.77698428 -351.85233787 321.70583257 -352.80859375 324.86328125 C-353.62470522 327.14907063 -354.55427543 329.26637758 -355.57421875 331.46484375 C-358.24374162 337.40030474 -360.16743815 343.55048894 -362.125 349.75 C-362.7120874 351.60347046 -362.7120874 351.60347046 -363.31103516 353.49438477 C-364.46562771 357.16039392 -365.60890111 360.829772 -366.75 364.5 C-367.06324219 365.49306152 -367.37648438 366.48612305 -367.69921875 367.50927734 C-370.95500681 377.88986405 -373.44406664 388.05383011 -374.72607422 398.87280273 C-375.30816484 403.77281174 -376.1554536 408.52425812 -377.2265625 413.34375 C-381.55170595 433.06135481 -382.03912185 453.02202429 -382.0625 473.125 C-382.06599457 474.10421417 -382.06948914 475.08342834 -382.0730896 476.09231567 C-382.16644108 489.60270289 -382.16644108 489.60270289 -380.27368164 502.94042969 C-379.17165641 508.32673857 -378.84109929 513.8457387 -378.3125 519.3125 C-377.3219282 528.93502004 -376.06600015 538.10842312 -373.75 547.5 C-373.35512572 549.33893644 -372.96498173 551.17889147 -372.578125 553.01953125 C-369.56894967 567.05177944 -365.68270763 580.601161 -361.08959961 594.18139648 C-360.67202393 595.42477783 -360.25444824 596.66815918 -359.82421875 597.94921875 C-359.44869873 599.04580811 -359.07317871 600.14239746 -358.6862793 601.2722168 C-357.69925458 604.6749427 -357.17110791 607.98595584 -356.75 611.5 C-356.09 611.5 -355.43 611.5 -354.75 611.5 C-354.358125 612.7375 -353.96625 613.975 -353.5625 615.25 C-349.22297536 628.22782721 -343.29268546 640.21992413 -336.10546875 651.8359375 C-334.75 654.5 -334.75 654.5 -334.75 658.5 C-334.09 658.5 -333.43 658.5 -332.75 658.5 C-332.49009277 659.00112305 -332.23018555 659.50224609 -331.96240234 660.01855469 C-322.07607364 678.91699837 -310.11722496 695.92464105 -296.75 712.5 C-296.07839844 713.36496094 -295.40679687 714.22992187 -294.71484375 715.12109375 C-289.96899141 721.21176667 -284.81914432 726.84906661 -279.546875 732.48046875 C-277.43454428 734.74238811 -275.41566509 737.05656418 -273.4375 739.4375 C-252.77798772 763.26379883 -225.16059402 782.11333605 -198.46582031 798.44677734 C-196.9998079 799.34666032 -195.54199314 800.25987529 -194.0859375 801.17578125 C-186.58846886 805.82722082 -178.68208882 809.65704597 -170.75 813.5 C-170.05422852 813.83821777 -169.35845703 814.17643555 -168.64160156 814.52490234 C-158.17584009 819.59250863 -147.60382642 824.32266776 -136.75 828.5 C-135.93418457 828.81437012 -135.11836914 829.12874023 -134.27783203 829.45263672 C-102.06521746 841.66995646 -68.43451332 848.28641226 -34.09643555 850.26635742 C-31.75 850.5 -31.75 850.5 -28.75 851.5 C-27.12525697 851.60706114 -25.49657147 851.65866097 -23.8684082 851.67700195 C-22.86972717 851.68966599 -21.87104614 851.70233002 -20.84210205 851.71537781 C-19.75596619 851.72293594 -18.66983032 851.73049408 -17.55078125 851.73828125 C-16.41960876 851.74789383 -15.28843628 851.75750641 -14.12298584 851.76741028 C-10.43612702 851.79226533 -6.74943308 851.80469684 -3.0625 851.8125 C-1.19378738 851.81742462 -1.19378738 851.81742462 0.712677 851.82244873 C22.76838839 851.84132488 44.82665846 851.31253453 66.25 845.5 C72.88480815 843.75927424 79.49218419 842.24728065 86.25 841.0625 C92.16780749 840.01213809 97.72614248 838.49603285 103.3828125 836.46484375 C106.3567387 835.46408112 109.31498229 834.75158796 112.375 834.0625 C117.33559786 832.88540898 121.40392667 831.03250102 125.875 828.625 C128.9184388 827.1833711 131.88144269 826.63504918 135.171875 826.01953125 C137.85501221 825.34874695 140.03497804 824.0332056 142.3671875 822.57421875 C145.39952374 820.8441514 148.64988922 819.69473712 151.8984375 818.43359375 C156.06947772 816.77764921 159.94142508 814.68870451 163.8125 812.4375 C166.61050614 810.86044199 169.28459763 809.68616095 172.25 808.5 C172.91 807.84 173.57 807.18 174.25 806.5 C176.23821313 806.10235737 178.23944339 805.76224651 180.25 805.5 C180.25 804.84 180.25 804.18 180.25 803.5 C182.80607984 801.87065053 185.36050006 800.35804955 188 798.875 C189.57951957 797.96465499 191.15764119 797.05188025 192.734375 796.13671875 C193.51103516 795.68603027 194.28769531 795.2353418 195.08789062 794.77099609 C205.46341401 788.6717442 214.91129863 781.30508931 224.39697266 773.93457031 C225.90625894 772.76611627 227.42621546 771.61145518 228.94921875 770.4609375 C234.10948027 766.55136773 238.87496121 762.28725877 243.6328125 757.8984375 C245.78433995 755.92673921 247.96519515 754.0153423 250.1875 752.125 C258.49720694 744.89247729 266.11967088 736.88447792 273.25 728.5 C274.28247562 727.31780504 275.31648352 726.13694749 276.3515625 724.95703125 C277.50524156 723.6380499 278.65888703 722.31903916 279.8125 721 C280.35511475 720.38278076 280.89772949 719.76556152 281.45678711 719.12963867 C286.48485253 713.35571431 291.02925161 707.31485415 295.35546875 701 C295.86400391 700.25878906 296.37253906 699.51757812 296.89648438 698.75390625 C297.94213059 697.22453269 298.98098469 695.6904974 300.01367188 694.15234375 C300.51833984 693.42144531 301.02300781 692.69054687 301.54296875 691.9375 C301.9918042 691.27621094 302.44063965 690.61492188 302.90307617 689.93359375 C303.56980347 689.22396484 303.56980347 689.22396484 304.25 688.5 C305.24 688.5 306.23 688.5 307.25 688.5 C307.25 689.16 307.25 689.82 307.25 690.5 C308.26707031 690.83064453 308.26707031 690.83064453 309.3046875 691.16796875 C313.10850659 692.88826359 316.09605876 695.25464018 319.375 697.8125 C325.47925115 702.48773159 331.69677964 706.93777856 338.0625 711.25 C343.87168195 715.1896659 349.63672479 719.16074602 355.2890625 723.32421875 C360.18772402 726.92389483 365.12713013 730.46728337 370.05883789 734.02148438 C370.80125732 734.55708984 371.54367676 735.09269531 372.30859375 735.64453125 C372.97173584 736.12253174 373.63487793 736.60053223 374.31811523 737.09301758 C376.30970836 738.54348531 378.28237431 740.01722708 380.25 741.5 C379.71850246 745.95330512 378.11117501 748.42721141 375.375 751.9375 C374.97933838 752.44974121 374.58367676 752.96198242 374.17602539 753.48974609 C372.8763177 755.16703236 371.56366142 756.83362689 370.25 758.5 C369.32892019 759.68059429 368.40835371 760.86158924 367.48828125 762.04296875 C365.19007637 764.98760641 362.87500812 767.91847784 360.5546875 770.84570312 C359.308231 772.42616518 358.07563235 774.01752703 356.84375 775.609375 C356.1321875 776.52203125 355.420625 777.4346875 354.6875 778.375 C354.06746094 779.17679688 353.44742188 779.97859375 352.80859375 780.8046875 C352.29425781 781.36414063 351.77992188 781.92359375 351.25 782.5 C350.59 782.5 349.93 782.5 349.25 782.5 C348.98574219 783.08265625 348.72148438 783.6653125 348.44921875 784.265625 C347.20217503 786.58910711 345.82686849 788.29587105 344.0625 790.25 C343.44375 790.9409375 342.825 791.631875 342.1875 792.34375 C341.548125 793.0553125 340.90875 793.766875 340.25 794.5 C339.01928524 795.91532198 337.79006774 797.33194761 336.5625 798.75 C331.56499004 804.44223108 331.56499004 804.44223108 329.25 806.5 C328.59 806.5 327.93 806.5 327.25 806.5 C327.25 807.16 327.25 807.82 327.25 808.5 C326.59 808.5 325.93 808.5 325.25 808.5 C325.25 809.16 325.25 809.82 325.25 810.5 C323.95703125 811.8046875 323.95703125 811.8046875 322.0625 813.375 C318.81091696 816.13165182 315.65684645 818.96089108 312.54614258 821.87353516 C307.49786242 826.59804687 302.39651358 831.14670577 296.9375 835.3984375 C294.93502357 836.9643275 292.96210577 838.54908101 291 840.1640625 C274.9988475 853.27874987 257.85028352 864.65983511 240.25 875.5 C239.14785156 876.18578125 238.04570313 876.8715625 236.91015625 877.578125 C230.52336449 881.5 230.52336449 881.5 228.25 881.5 C228.25 882.16 228.25 882.82 228.25 883.5 C223.96146306 885.38695626 219.72238653 887.08192622 215.25 888.5 C215.25 889.16 215.25 889.82 215.25 890.5 C214.64671875 890.76554688 214.0434375 891.03109375 213.421875 891.3046875 C212.62265625 891.65789063 211.8234375 892.01109375 211 892.375 C210.21109375 892.72304688 209.4221875 893.07109375 208.609375 893.4296875 C207.09694933 894.11578789 205.60375628 894.84705681 204.140625 895.6328125 C202.25 896.5 202.25 896.5 199.25 896.5 C199.25 897.16 199.25 897.82 199.25 898.5 C194.59125837 900.4212414 189.93223001 902.34178527 185.27294922 904.26171875 C183.69214349 904.91322573 182.11141256 905.56491421 180.53076172 906.21679688 C155.80796332 916.41241013 155.80796332 916.41241013 149.125 918.5625 C145.88641088 919.60764026 142.71144708 920.70783273 139.53515625 921.93359375 C134.71198738 923.7588703 129.77929899 925.12490929 124.8125 926.5 C119.7049967 927.92018919 114.62803788 929.34362472 109.62109375 931.08984375 C105.37787076 932.5306904 101.16928349 933.3670229 96.75 934.0625 C95.27060274 934.30982255 93.79143282 934.55850896 92.3125 934.80859375 C91.61382813 934.9257373 90.91515625 935.04288086 90.1953125 935.16357422 C83.74441763 935.86044279 83.74441763 935.86044279 78.25 938.5 C70.96568297 940.22385963 63.57276783 940.94141741 56.125 941.5 C54.26799698 941.64284639 52.41122868 941.78877156 50.5546875 941.9375 C49.55219971 942.01774414 48.54971191 942.09798828 47.5168457 942.18066406 C45.25710089 942.40155534 43.00236236 942.67812191 40.75463867 942.99902344 C27.77202201 944.81949409 14.85447516 944.80297139 1.76098633 944.76074219 C-2.1484357 944.75010628 -6.05738954 944.76064317 -9.96679688 944.7734375 C-31.10388299 944.78602838 -52.16126315 943.87952229 -73.0625 940.5625 C-74.65481445 940.32756836 -74.65481445 940.32756836 -76.27929688 940.08789062 C-82.80626836 939.0907696 -89.19155973 937.75120104 -95.61254883 936.21875 C-98.53301951 935.54970746 -101.4479261 934.9828346 -104.3984375 934.46484375 C-120.41571018 931.64115638 -135.91438415 926.96641129 -151.3125 921.8125 C-152.03036682 921.57266388 -152.74823364 921.33282776 -153.487854 921.08572388 C-161.76453373 918.30955543 -169.80531046 915.3122646 -177.75 911.6875 C-182.5786342 909.52293984 -187.49540543 907.59267556 -192.43359375 905.6940918 C-196.11184466 904.25450382 -199.40144117 902.5841892 -202.75 900.5 C-203.905 900.005 -205.06 899.51 -206.25 899 C-209.30061346 897.69259423 -211.91535146 896.20078912 -214.75 894.5 C-217.06183371 893.43859207 -219.39689237 892.46892667 -221.75 891.5 C-221.75 890.84 -221.75 890.18 -221.75 889.5 C-222.59820312 889.23832031 -223.44640625 888.97664062 -224.3203125 888.70703125 C-232.65214085 885.77475908 -240.74722464 881.4003419 -248.12890625 876.55859375 C-249.62917723 875.57889872 -251.18829438 874.69095941 -252.75 873.8125 C-253.74 873.1628125 -253.74 873.1628125 -254.75 872.5 C-254.75 871.84 -254.75 871.18 -254.75 870.5 C-255.56855469 870.28730469 -256.38710938 870.07460938 -257.23046875 869.85546875 C-261.71086184 868.12994555 -265.19983492 865.62561178 -269.0625 862.8125 C-269.81869629 862.27012695 -270.57489258 861.72775391 -271.35400391 861.16894531 C-275.86435079 857.91854241 -280.30646134 854.59591347 -284.65625 851.1328125 C-287.09902111 849.22781562 -289.60668443 847.42884964 -292.125 845.625 C-300.95918248 839.22698483 -309.1702111 832.22389432 -317.19140625 824.83984375 C-319.38811903 822.83094152 -321.61549369 820.87485887 -323.875 818.9375 C-327.68158991 815.63897651 -331.18983175 812.07936314 -334.72265625 808.4921875 C-336.77435513 806.40270568 -336.77435513 806.40270568 -339.375 804.4375 C-342.21896381 802.11742426 -344.42837184 799.48311139 -346.8046875 796.6953125 C-348.8223892 794.41830777 -350.94385619 792.30784537 -353.125 790.1875 C-357.59382818 785.7638115 -361.53200607 781.03870257 -365.44433594 776.12207031 C-366.88411063 774.33338986 -368.35008676 772.56841487 -369.8203125 770.8046875 C-377.3658874 761.71708296 -384.25362119 752.3619161 -390.75 742.5 C-391.21148437 741.80229492 -391.67296875 741.10458984 -392.1484375 740.38574219 C-397.19341701 732.73813858 -402.11494573 725.0158517 -406.875 717.1875 C-407.44275146 716.26312134 -407.44275146 716.26312134 -408.02197266 715.32006836 C-409.75438546 712.4349999 -411.20458184 709.84688414 -411.75 706.5 C-412.41 706.5 -413.07 706.5 -413.75 706.5 C-414.12253906 705.58992187 -414.49507812 704.67984375 -414.87890625 703.7421875 C-417.69424475 697.17361475 -421.05319578 690.85350281 -424.27929688 684.48046875 C-426.92482749 679.22914015 -429.47868108 673.97151596 -431.81787109 668.57666016 C-432.75244432 666.49455437 -433.77325493 664.47860993 -434.82421875 662.453125 C-436.82593199 658.49849698 -438.2294125 654.46977678 -439.5625 650.25 C-440.07674711 648.66621861 -440.59242763 647.08290208 -441.109375 645.5 C-441.37556641 644.68273437 -441.64175781 643.86546875 -441.91601562 643.0234375 C-443.32923726 638.74736641 -444.81949944 634.49874801 -446.3125 630.25 C-446.75662231 628.98240845 -446.75662231 628.98240845 -447.2097168 627.68920898 C-448.49636328 624.02628171 -449.79195388 620.36754848 -451.12890625 616.72265625 C-457.17258728 600.18305267 -461.25851398 583.94040217 -463.75 566.5 C-505.33 566.005 -505.33 566.005 -547.75 565.5 C-547.75 503.79 -547.75 442.08 -547.75 378.5 C-520.03 378.5 -492.31 378.5 -463.75 378.5 C-462.76 370.58 -461.77 362.66 -460.75 354.5 C-459.00222679 347.74160635 -457.18311143 341.131755 -455.0625 334.5 C-454.54438502 332.82739145 -454.02810639 331.15421295 -453.51367188 329.48046875 C-452.27995839 325.48015966 -451.02244912 321.48814806 -449.75 317.5 C-449.09 317.5 -448.43 317.5 -447.75 317.5 C-447.56824219 316.50419922 -447.56824219 316.50419922 -447.3828125 315.48828125 C-446.52219461 310.95348697 -445.68679005 306.71536657 -443.75 302.5 C-441.33684688 297.07876128 -439.40723478 291.59308335 -437.64453125 285.9296875 C-436.41275778 282.10099033 -434.89338833 278.89173538 -432.75 275.5 C-432.08459609 273.70340944 -431.42171549 271.90580336 -430.77734375 270.1015625 C-428.40979066 264.10616189 -425.51585344 258.31965874 -422.75 252.5 C-422.09 252.5 -421.43 252.5 -420.75 252.5 C-420.585 251.46875 -420.42 250.4375 -420.25 249.375 C-418.58614504 242.49607725 -414.37194198 236.49726207 -410.75 230.5 C-410.09 230.5 -409.43 230.5 -408.75 230.5 C-408.68683594 229.84902344 -408.62367188 229.19804687 -408.55859375 228.52734375 C-407.40762205 224.21815019 -405.16824147 220.82199161 -402.8125 217.0625 C-402.31741943 216.26408691 -401.82233887 215.46567383 -401.31225586 214.64306641 C-396.75430134 207.36749238 -391.86367601 200.39177206 -386.75 193.5 C-385.78115474 192.17845525 -384.81240827 190.85683807 -383.84375 189.53515625 C-378.26357384 181.96683891 -372.48113284 174.64714713 -366.33984375 167.52734375 C-363.87447588 164.64550348 -361.49446981 161.71081062 -359.125 158.75 C-355.61133487 154.42693701 -351.8592485 150.50166405 -347.87109375 146.6171875 C-345.87592462 144.62569272 -344.02246099 142.57620737 -342.1875 140.4375 C-336.80245112 134.18389485 -330.92794667 128.57803851 -324.671875 123.20703125 C-322.8400398 121.57997438 -321.13871889 119.88697671 -319.4375 118.125 C-315.7899288 114.41979224 -311.81150153 111.20340982 -307.76171875 107.94921875 C-305.6934929 106.26727633 -303.65911428 104.57506986 -301.64453125 102.83203125 C-295.04992344 97.12910581 -288.29337734 91.86782159 -281.13671875 86.88671875 C-278.67011786 85.16965353 -276.26675216 83.38619848 -273.875 81.56640625 C-269.72312553 78.43593376 -265.43049918 75.56831582 -261.0625 72.75 C-260.32966797 72.26917969 -259.59683594 71.78835937 -258.84179688 71.29296875 C-255.2292706 68.95411044 -251.82895696 66.94047081 -247.75 65.5 C-242.28172174 63.09486958 -242.28172174 63.09486958 -237.6875 59.375 C-235.02435832 56.79776611 -232.30367176 56.3200781 -228.75 55.5 C-228.75 54.84 -228.75 54.18 -228.75 53.5 C-227.925 53.1596875 -227.1 52.819375 -226.25 52.46875 C-218.70223855 49.30138582 -211.35114942 45.89550477 -204.08203125 42.12890625 C-200.98163412 40.5379954 -198.1219781 39.33065802 -194.75 38.5 C-194.42 37.84 -194.09 37.18 -193.75 36.5 C-191.90600586 35.57373047 -191.90600586 35.57373047 -189.46484375 34.6171875 C-188.55395996 34.25850586 -187.64307617 33.89982422 -186.70458984 33.53027344 C-185.7089502 33.1490332 -184.71331055 32.76779297 -183.6875 32.375 C-182.65834473 31.97829102 -181.62918945 31.58158203 -180.56884766 31.17285156 C-163.30040698 24.5921543 -146.01495833 18.98625535 -127.96630859 14.99511719 C-124.90404145 14.31101521 -121.85758228 13.56908871 -118.8125 12.8125 C-117.95785156 12.60238281 -117.10320312 12.39226563 -116.22265625 12.17578125 C-113.66897318 11.51235962 -113.66897318 11.51235962 -110.921875 10.484375 C-107.28961215 9.35712101 -103.70063587 8.85970549 -99.9375 8.4375 C-95.47969488 8.28991694 -95.47969488 8.28991694 -91.75 6.5 C-89.67526081 6.13477224 -87.58880661 5.8360342 -85.5 5.5625 C-84.85119873 5.47750244 -84.20239746 5.39250488 -83.53393555 5.30493164 C-76.64306951 4.43265998 -69.72853648 3.80067966 -62.80957031 3.19750977 C-61.52131348 3.08234009 -61.52131348 3.08234009 -60.20703125 2.96484375 C-59.44366455 2.899021 -58.68029785 2.83319824 -57.89379883 2.76538086 C-55.78355889 2.5551814 -55.78355889 2.5551814 -53.91772461 2.00415039 C-36.99616743 -1.93131707 -17.34849588 0.08420888 0 0 Z " fill="#5CA1D8" transform="translate(572.75,16.5)"/>
<path d="M0 0 C0.7788848 -0.00497769 1.5577696 -0.00995538 2.36025697 -0.01508391 C4.96090085 -0.02563147 7.55995047 -0.00053786 10.16047668 0.02450562 C12.028393 0.02427884 13.89631014 0.02186352 15.76422119 0.01742554 C20.83025007 0.01172205 25.89570289 0.03700102 30.961622 0.06810045 C36.26131027 0.09565217 41.56099957 0.09564076 46.86074829 0.09881592 C55.75730859 0.10801693 64.65365372 0.13554319 73.55012512 0.1758728 C86.10532885 0.23273542 98.66042443 0.25502781 111.21573675 0.2711575 C119.90563885 0.28360507 128.5955245 0.30428555 137.28540635 0.32653761 C139.39440551 0.33190209 141.50340527 0.3370384 143.61240554 0.34194994 C149.62153603 0.35623912 155.63060458 0.3756482 161.63968849 0.40342712 C163.46222933 0.41115802 165.28477813 0.41721578 167.10733032 0.42150497 C169.58893451 0.42770873 172.07043156 0.44005506 174.55200195 0.45410156 C175.64167535 0.4548482 175.64167535 0.4548482 176.75336236 0.45560992 C181.65291558 0.49304752 184.12576467 0.69288091 187.77302551 4.17050171 C190.07442189 7.11039525 190.93362107 9.67455609 190.59333801 13.50643921 C189.48739171 18.08335543 188.10838801 20.99719963 184.08552551 23.60800171 C181.15499001 24.0346763 178.28499744 23.93825196 175.33161926 23.82675171 C174.53912781 23.81096069 173.74663635 23.79516968 172.93013 23.77890015 C170.98152923 23.73779972 169.03340685 23.67502787 167.08552551 23.60800171 C167.08628495 24.2203314 167.08704439 24.83266108 167.08782685 25.46354622 C167.13259306 61.76350965 167.16690372 98.063469 167.18765617 134.3634544 C167.19015755 138.72304639 167.1927462 143.08263832 167.19538879 147.44223022 C167.19591341 148.31013833 167.19643804 149.17804643 167.19697855 150.07225478 C167.2056787 164.12117865 167.22144654 178.17008613 167.2398311 192.21900027 C167.25854099 206.63687093 167.26964454 221.05473301 167.2737025 235.4726153 C167.2764453 244.36760599 167.28510506 253.26255037 167.30135845 262.1575268 C167.31193875 268.25898919 167.31512376 274.36042766 167.31252827 280.46189856 C167.31124861 283.98093332 167.31319607 287.4998872 167.32393646 291.01890755 C167.3355094 294.83870998 167.3314923 298.65840768 167.32603455 302.47822571 C167.33186023 303.58427609 167.33768591 304.69032647 167.34368813 305.82989353 C167.31971236 312.04096997 166.68450563 317.61133785 165.08552551 323.60800171 C164.72974426 325.2805603 164.72974426 325.2805603 164.36677551 326.98690796 C160.0461396 344.59349929 147.89952344 361.23556506 132.65974426 371.09237671 C122.85557044 376.86478861 112.97650319 380.52958347 102.08552551 383.60800171 C101.45259583 383.78903442 100.81966614 383.97006714 100.16755676 384.15658569 C88.91618333 386.59605444 74.82029311 385.44845736 64.08552551 381.60800171 C62.49224426 381.08013062 62.49224426 381.08013062 60.86677551 380.54159546 C45.27812651 375.02365078 31.08954529 364.65644221 22.08552551 350.60800171 C21.57505676 349.81651733 21.06458801 349.02503296 20.53865051 348.20956421 C11.37040003 333.45866616 7.91994527 318.99767511 7.965271 301.75669861 C7.96441657 300.56648745 7.96356215 299.37627629 7.96268183 298.14999813 C7.96132263 294.85934241 7.96443603 291.56872637 7.96945989 288.27807534 C7.9737874 284.72465464 7.97231633 281.17123571 7.97155762 277.61781311 C7.97103384 271.4655622 7.97416537 265.31332192 7.97979546 259.16107368 C7.98793025 250.266009 7.99052771 241.37094945 7.99178345 232.47588145 C7.99397085 218.04343751 8.0006225 203.61099922 8.01008606 189.17855835 C8.01926823 175.16065499 8.02634513 161.14275317 8.03059387 147.12484741 C8.03098796 145.82826293 8.03098796 145.82826293 8.03139 144.50548483 C8.03269506 140.16899861 8.03395877 135.83251239 8.03520191 131.49602616 C8.04556482 95.53334735 8.06317468 59.57067497 8.08552551 23.60800171 C6.98853333 23.66600952 5.89154114 23.72401733 4.76130676 23.78378296 C3.30692237 23.83069858 1.85249177 23.87619682 0.39802551 23.92050171 C-0.32320496 23.96239624 -1.04443542 24.00429077 -1.78752136 24.04745483 C-6.0109676 24.14388055 -7.45274429 23.98189947 -10.87150574 21.21347046 C-13.643007 17.67887898 -14.1535358 15.73932574 -14.35197449 11.29550171 C-14.41256042 10.3506189 -14.47314636 9.40573608 -14.53556824 8.43222046 C-13.79401693 5.06026073 -12.38430965 3.76987333 -9.71445787 1.66246486 C-6.62945684 -0.1447851 -3.4647812 -0.0668259 0 0 Z " fill="#F8F9FA" transform="translate(466.9144744873047,339.3919982910156)"/>
<path d="M0 0 C0.7788848 -0.00497769 1.5577696 -0.00995538 2.36025697 -0.01508391 C4.96090085 -0.02563147 7.55995047 -0.00053786 10.16047668 0.02450562 C12.028393 0.02427884 13.89631014 0.02186352 15.76422119 0.01742554 C20.83025007 0.01172205 25.89570289 0.03700102 30.961622 0.06810045 C36.26131027 0.09565217 41.56099957 0.09564076 46.86074829 0.09881592 C55.75730859 0.10801693 64.65365372 0.13554319 73.55012512 0.1758728 C86.10532885 0.23273542 98.66042443 0.25502781 111.21573675 0.2711575 C119.90563885 0.28360507 128.5955245 0.30428555 137.28540635 0.32653761 C139.39440551 0.33190209 141.50340527 0.3370384 143.61240554 0.34194994 C149.62153603 0.35623912 155.63060458 0.3756482 161.63968849 0.40342712 C163.46222933 0.41115802 165.28477813 0.41721578 167.10733032 0.42150497 C169.58893451 0.42770873 172.07043156 0.44005506 174.55200195 0.45410156 C175.64167535 0.4548482 175.64167535 0.4548482 176.75336236 0.45560992 C181.65291558 0.49304752 184.12576467 0.69288091 187.77302551 4.17050171 C190.07442189 7.11039525 190.93362107 9.67455609 190.59333801 13.50643921 C189.48739171 18.08335543 188.10838801 20.99719963 184.08552551 23.60800171 C181.15499001 24.0346763 178.28499744 23.93825196 175.33161926 23.82675171 C174.53912781 23.81096069 173.74663635 23.79516968 172.93013 23.77890015 C170.98152923 23.73779972 169.03340685 23.67502787 167.08552551 23.60800171 C167.08628495 24.2203314 167.08704439 24.83266108 167.08782685 25.46354622 C167.13259306 61.76350965 167.16690372 98.063469 167.18765617 134.3634544 C167.19015755 138.72304639 167.1927462 143.08263832 167.19538879 147.44223022 C167.19591341 148.31013833 167.19643804 149.17804643 167.19697855 150.07225478 C167.2056787 164.12117865 167.22144654 178.17008613 167.2398311 192.21900027 C167.25854099 206.63687093 167.26964454 221.05473301 167.2737025 235.4726153 C167.2764453 244.36760599 167.28510506 253.26255037 167.30135845 262.1575268 C167.31193875 268.25898919 167.31512376 274.36042766 167.31252827 280.46189856 C167.31124861 283.98093332 167.31319607 287.4998872 167.32393646 291.01890755 C167.3355094 294.83870998 167.3314923 298.65840768 167.32603455 302.47822571 C167.33186023 303.58427609 167.33768591 304.69032647 167.34368813 305.82989353 C167.31971236 312.04096997 166.68450563 317.61133785 165.08552551 323.60800171 C164.72974426 325.2805603 164.72974426 325.2805603 164.36677551 326.98690796 C160.0461396 344.59349929 147.89952344 361.23556506 132.65974426 371.09237671 C122.85557044 376.86478861 112.97650319 380.52958347 102.08552551 383.60800171 C101.45259583 383.78903442 100.81966614 383.97006714 100.16755676 384.15658569 C88.91618333 386.59605444 74.82029311 385.44845736 64.08552551 381.60800171 C62.49224426 381.08013062 62.49224426 381.08013062 60.86677551 380.54159546 C45.27812651 375.02365078 31.08954529 364.65644221 22.08552551 350.60800171 C21.57505676 349.81651733 21.06458801 349.02503296 20.53865051 348.20956421 C11.37040003 333.45866616 7.91994527 318.99767511 7.965271 301.75669861 C7.96441657 300.56648745 7.96356215 299.37627629 7.96268183 298.14999813 C7.96132263 294.85934241 7.96443603 291.56872637 7.96945989 288.27807534 C7.9737874 284.72465464 7.97231633 281.17123571 7.97155762 277.61781311 C7.97103384 271.4655622 7.97416537 265.31332192 7.97979546 259.16107368 C7.98793025 250.266009 7.99052771 241.37094945 7.99178345 232.47588145 C7.99397085 218.04343751 8.0006225 203.61099922 8.01008606 189.17855835 C8.01926823 175.16065499 8.02634513 161.14275317 8.03059387 147.12484741 C8.03098796 145.82826293 8.03098796 145.82826293 8.03139 144.50548483 C8.03269506 140.16899861 8.03395877 135.83251239 8.03520191 131.49602616 C8.04556482 95.53334735 8.06317468 59.57067497 8.08552551 23.60800171 C6.98853333 23.66600952 5.89154114 23.72401733 4.76130676 23.78378296 C3.30692237 23.83069858 1.85249177 23.87619682 0.39802551 23.92050171 C-0.32320496 23.96239624 -1.04443542 24.00429077 -1.78752136 24.04745483 C-6.0109676 24.14388055 -7.45274429 23.98189947 -10.87150574 21.21347046 C-13.643007 17.67887898 -14.1535358 15.73932574 -14.35197449 11.29550171 C-14.41256042 10.3506189 -14.47314636 9.40573608 -14.53556824 8.43222046 C-13.79401693 5.06026073 -12.38430965 3.76987333 -9.71445787 1.66246486 C-6.62945684 -0.1447851 -3.4647812 -0.0668259 0 0 Z M29.08552551 22.60800171 C28.99386017 59.16954339 28.92343112 95.73106484 28.88126419 132.29269788 C28.8762617 136.61451484 28.87108438 140.93633157 28.86579895 145.25814819 C28.86474971 146.11850121 28.86370047 146.97885422 28.86261943 147.86527853 C28.84524024 161.77437854 28.81371634 175.68341205 28.77691433 189.59247268 C28.73943557 203.87702772 28.71727503 218.16154806 28.70917153 232.44615024 C28.7036981 241.25212784 28.68644539 250.05791743 28.65385965 258.86383712 C28.63262601 264.91209561 28.62634536 270.9602577 28.63152 277.00855071 C28.63406812 280.49197107 28.63031517 283.97506418 28.60870361 287.45842552 C28.4453082 307.38844797 28.4453082 307.38844797 33.08552551 326.60800171 C33.75418009 328.60733797 34.42142964 330.60714661 35.08552551 332.60800171 C35.74552551 332.60800171 36.40552551 332.60800171 37.08552551 332.60800171 C37.30337708 333.46522827 37.52122864 334.32245483 37.74568176 335.20565796 C39.36408201 339.31535654 41.51789509 341.87197832 44.52302551 345.04550171 C45.06016174 345.6146228 45.59729797 346.1837439 46.15071106 346.77011108 C56.33182658 357.24297054 69.32695089 363.59959511 83.99763489 364.09750366 C91.71532557 364.13215912 98.823103 363.39391461 106.08552551 360.60800171 C106.87185364 360.30636108 107.65818176 360.00472046 108.46833801 359.69393921 C121.28144628 354.35152457 130.73880947 346.38905275 138.08552551 334.60800171 C138.47611145 333.99569702 138.86669739 333.38339233 139.26911926 332.75253296 C147.60443611 318.06032077 146.65661987 300.77725674 146.56444705 284.50177276 C146.54905391 280.99347529 146.55712799 277.48521508 146.56213379 273.97689819 C146.56831961 267.12994425 146.55347161 260.28319462 146.53140817 253.43627984 C146.50659866 245.45959314 146.50379881 237.48294264 146.50200441 229.50622308 C146.49813943 215.28286209 146.47574354 201.05959269 146.44221497 186.83627319 C146.40970141 173.03223282 146.38851489 159.22824083 146.38069153 145.42416382 C146.38020604 144.57166507 146.37972055 143.71916631 146.37922034 142.84083427 C146.37729166 139.414218 146.37537952 135.98760172 146.37350424 132.56098542 C146.36598347 119.39628076 146.35035997 106.23158402 146.33300764 93.06688907 C146.32776847 89.08997311 146.32283537 85.11305732 146.31864572 81.13614011 C146.30974241 72.7835995 146.29800224 64.43108203 146.27707968 56.07856185 C146.2684617 52.62524534 146.26138696 49.17194495 146.258564 45.71861839 C146.25460847 41.98445687 146.24451638 38.25036376 146.23269653 34.51622009 C146.2328809 33.41334469 146.23306526 32.31046929 146.23325521 31.17417341 C146.22879736 30.18231502 146.22433952 29.19045662 146.21974659 28.16854191 C146.21795802 27.30575691 146.21616945 26.44297192 146.21432668 25.55404192 C146.29980414 23.60265884 146.29980414 23.60265884 145.08552551 22.60800171 C143.58001378 22.51224862 142.07001522 22.48611984 140.5614624 22.48774719 C139.58404587 22.48637253 138.60662933 22.48499786 137.59959412 22.48358154 C136.51850372 22.48717682 135.43741333 22.49077209 134.32356262 22.49447632 C133.19200241 22.49433029 132.0604422 22.49418427 130.89459229 22.49403381 C127.13399881 22.49473352 123.37345415 22.5025286 119.61286926 22.51034546 C117.01355008 22.51220943 114.41423055 22.51363343 111.81491089 22.51463318 C105.65963975 22.5180683 99.50438892 22.52595915 93.34912544 22.53598267 C86.34319206 22.54714477 79.33725784 22.5526545 72.33131778 22.5576781 C57.91604418 22.56814179 43.50078547 22.58574063 29.08552551 22.60800171 Z " fill="#304658" transform="translate(466.9144744873047,339.3919982910156)"/>
<path d="M0 0 C31.02 0 62.04 0 94 0 C94 52.8 94 105.6 94 160 C93.34 160 92.68 160 92 160 C91.938125 160.94875 91.87625 161.8975 91.8125 162.875 C90.25254325 173.33092634 83.23691143 181.86825746 75.16796875 188.234375 C63.27618506 196.59984029 52.27544761 198.36097192 38 197 C26.59006771 194.94077272 17.43146393 188.68076385 10.5625 179.4375 C9.35257269 177.6398937 8.1622683 175.82878235 7 174 C6.36964844 173.05640625 6.36964844 173.05640625 5.7265625 172.09375 C-0.26943217 162.53622466 -0.42484832 152.36912478 -0.34057617 141.45263672 C-0.33972847 139.90438351 -0.34020782 138.3561291 -0.34190369 136.80787659 C-0.3427595 132.63287458 -0.32520134 128.45813458 -0.30418181 124.28319311 C-0.28534551 119.90968521 -0.28365912 115.53617038 -0.28010559 111.16262817 C-0.27080546 102.89327532 -0.24621938 94.62404238 -0.21605712 86.35474217 C-0.1761576 75.17156946 -0.1600418 63.98836364 -0.14255047 52.80513763 C-0.11439668 35.20333539 -0.05461368 17.6017861 0 0 Z " fill="#5EA1D7" transform="translate(507,494)"/>
<path d="M0 0 C0.33 0 0.66 0 1 0 C1.98708419 59.06643719 2.15857249 118.12411426 2.12856841 177.19790995 C2.12417226 186.89083143 2.12737242 196.58374016 2.1321975 206.27666086 C2.13672896 215.76701323 2.13738237 225.25736005 2.13475883 234.74771315 C2.13321051 240.35435864 2.13296456 245.96099539 2.13629532 251.5676403 C2.13917824 256.77324433 2.13719075 261.97882397 2.13140106 267.18442535 C2.1300806 269.08598096 2.13045545 270.98753862 2.13266373 272.8890934 C2.13540039 275.48366137 2.13196471 278.07815123 2.12698364 280.67271423 C2.13032973 281.79380653 2.13032973 281.79380653 2.13374341 282.93754715 C2.11712903 287.40265641 1.72526847 291.60835199 1 296 C-1.17404599 292.73893102 -1.24981444 291.84285975 -1.24888897 288.07337761 C-1.25348777 287.05086965 -1.25808656 286.0283617 -1.26282471 284.97486866 C-1.25768115 283.8481324 -1.25253759 282.72139614 -1.24723816 281.56051636 C-1.24965257 280.36626136 -1.25206699 279.17200636 -1.25455457 277.94156182 C-1.25922596 274.62092738 -1.25488951 271.3005227 -1.24679029 267.97990918 C-1.24022366 264.40117321 -1.24515946 260.82245106 -1.24867249 257.24371338 C-1.25371937 250.23127575 -1.24806697 243.21888521 -1.23882218 236.20645343 C-1.22845127 228.04741807 -1.22850802 219.88839296 -1.22899476 211.72935225 C-1.22949563 197.17714284 -1.22032661 182.62495539 -1.20581055 168.07275391 C-1.19171744 153.93733317 -1.18463997 139.80193176 -1.18530273 125.66650391 C-1.18534269 124.79565477 -1.18538265 123.92480564 -1.18542381 123.02756713 C-1.18546417 122.15825392 -1.18550452 121.28894071 -1.1855461 120.39328468 C-1.18623513 104.31968515 -1.18035123 88.24609386 -1.17139288 72.172497 C-1.16837097 66.47874565 -1.16731267 60.78499581 -1.16686058 55.09124374 C-1.16617994 48.15861681 -1.16173604 41.22600378 -1.15252777 34.29338275 C-1.14789657 30.75306731 -1.14486913 27.2127697 -1.14612198 23.67245102 C-1.14741134 19.8434587 -1.14099556 16.01450253 -1.13371277 12.18551636 C-1.13526137 11.05431866 -1.13680997 9.92312095 -1.1384055 8.75764453 C-1.13518106 7.74035207 -1.13195661 6.72305961 -1.12863445 5.67494011 C-1.12793003 4.78991936 -1.1272256 3.9048986 -1.12649983 2.99305904 C-1 1 -1 1 0 0 Z " fill="#1F3649" transform="translate(477,363)"/>
<path d="M0 0 C4.34328016 2.24652422 6.86867049 4.9645878 9 9.3125 C9.47534068 13.82823647 9.34999419 17.39584301 7 21.3125 C4.01307702 24.87440565 1.10119572 27.79129856 -3.50390625 28.93359375 C-8.86033743 29.20345975 -12.41262555 28.07766664 -16.625 24.796875 C-20.62871948 20.47467783 -20.47627516 15.88331768 -20.38671875 10.234375 C-19.79584641 5.77000624 -18.37904235 4.23076385 -15 1.3125 C-10.29915203 -1.46746759 -5.17641284 -1.77939191 0 0 Z " fill="#60A2DB" transform="translate(552,399.6875)"/>
<path d="M0 0 C2.71699568 3.145995 3.86779012 5.28606665 4.625 9.375 C3.77874941 14.28325341 1.50393869 17.50409787 -2 21 C-5.81030335 23.33779568 -9.62074221 23.84732766 -14 23 C-16.50841108 21.57645025 -17.97206143 20.1293355 -20 18 C-20 17.34 -20 16.68 -20 16 C-20.66 16 -21.32 16 -22 16 C-23.20643566 12.38069302 -23.32268559 9.80768995 -23 6 C-18.86206897 -1.31034483 -18.86206897 -1.31034483 -15.3125 -2.625 C-9.41028071 -3.58211664 -5.0523099 -3.3682066 0 0 Z " fill="#F4F7F8" transform="translate(551,525)"/>
<path d="M0 0 C4.49371389 2.99580926 4.60706997 7.06772868 5.9375 12.12890625 C6.288125 13.07636719 6.63875 14.02382813 7 15 C7.99 15.33 8.98 15.66 10 16 C10 16.66 10 17.32 10 18 C11.2375 18.144375 12.475 18.28875 13.75 18.4375 C16.56504499 18.78688502 19.2701497 19.20379366 22 20 C22 20.66 22 21.32 22 22 C21.04738281 22.22171875 20.09476563 22.4434375 19.11328125 22.671875 C11.55668504 24.64574661 11.55668504 24.64574661 6.02734375 29.86328125 C4.82181502 32.88263301 3.87768333 35.87217755 3 39 C2.36826035 40.35023229 1.71514883 41.69203044 1 43 C-2.11093224 39.88906776 -2.72494248 35.89393694 -4 31.75 C-4.8162462 28.90183016 -4.8162462 28.90183016 -7 27 C-10.348311 25.8853477 -13.73126235 24.95268 -17.12890625 24 C-20 23 -20 23 -21 21 C-20.02417969 20.69707031 -19.04835938 20.39414062 -18.04296875 20.08203125 C-16.75750219 19.65979771 -15.47236257 19.23656794 -14.1875 18.8125 C-13.22360352 18.51762695 -13.22360352 18.51762695 -12.24023438 18.21679688 C-9.0864105 17.15462821 -7.22851901 16.29035925 -5.15234375 13.65234375 C-4.01584538 11.03647124 -3.12450415 8.50092733 -2.375 5.75 C-1.09387755 1.09387755 -1.09387755 1.09387755 0 0 Z " fill="#2C4255" transform="translate(555,242)"/>
<path d="M0 0 C0.66 0 1.32 0 2 0 C2.268125 0.97582031 2.53625 1.95164062 2.8125 2.95703125 C4.65564905 9.97078084 4.65564905 9.97078084 8.90234375 15.52734375 C10.94644012 16.25317452 12.85878511 16.67026125 15 17 C16.155 17.391875 17.31 17.78375 18.5 18.1875 C19.7375 18.5896875 19.7375 18.5896875 21 19 C21 19.66 21 20.32 21 21 C20.03578125 21.13792969 19.0715625 21.27585937 18.078125 21.41796875 C13.87159121 22.26356789 10.81584108 23.02157893 7 25 C4.5959289 29.17359124 3.67182635 33.25608332 3 38 C2.01 38 1.02 38 0 38 C-0.67031719 36.0429132 -1.33614683 34.08428887 -2 32.125 C-2.37125 31.03445313 -2.7425 29.94390625 -3.125 28.8203125 C-4 26 -4 26 -4 24 C-4.59167969 23.96261719 -5.18335938 23.92523438 -5.79296875 23.88671875 C-10.60667451 23.48623099 -14.00841777 22.9614965 -18 20 C-17.01 19.67 -16.02 19.34 -15 19 C-15 18.34 -15 17.68 -15 17 C-14.38511719 16.91363281 -13.77023437 16.82726562 -13.13671875 16.73828125 C-8.08961751 15.95048829 -8.08961751 15.95048829 -4.125 13 C-2.52304871 8.72812988 -1.20447303 4.3993164 0 0 Z " fill="#2D4456" transform="translate(488,270)"/>
<path d="M0 0 C0.99 0 1.98 0 3 0 C4.33333333 5.33333333 5.66666667 10.66666667 7 16 C7.67546875 16.13277344 8.3509375 16.26554687 9.046875 16.40234375 C9.93890625 16.57894531 10.8309375 16.75554687 11.75 16.9375 C13.07257812 17.19853516 13.07257812 17.19853516 14.421875 17.46484375 C16.63235053 17.92368488 18.81512068 18.43336074 21 19 C21 19.66 21 20.32 21 21 C19.62714844 21.41572266 19.62714844 21.41572266 18.2265625 21.83984375 C17.03804687 22.20207031 15.84953125 22.56429688 14.625 22.9375 C13.44164062 23.29714844 12.25828125 23.65679687 11.0390625 24.02734375 C8.12073182 24.87576274 8.12073182 24.87576274 6 26 C5.08514427 28.80478195 5.08514427 28.80478195 4.375 32.0625 C3.98441406 33.71958984 3.98441406 33.71958984 3.5859375 35.41015625 C3.39257812 36.26480469 3.19921875 37.11945313 3 38 C2.01 38 1.02 38 0 38 C-0.15855469 37.24074219 -0.31710937 36.48148437 -0.48046875 35.69921875 C-1.70783197 29.81458133 -1.70783197 29.81458133 -5 25 C-9.61585468 23.46138177 -14.27702328 22.16626921 -19 21 C-19 20.34 -19 19.68 -19 19 C-18.34773437 18.80664062 -17.69546875 18.61328125 -17.0234375 18.4140625 C-15.71246094 18.02347656 -15.71246094 18.02347656 -14.375 17.625 C-13.51648438 17.36976563 -12.65796875 17.11453125 -11.7734375 16.8515625 C-10.85820313 16.57054687 -9.94296875 16.28953125 -9 16 C-7.9378125 15.7834375 -6.875625 15.566875 -5.78125 15.34375 C-2.66018247 14.22823077 -2.66018247 14.22823077 -1.7578125 10.7421875 C-1.54898438 9.46601563 -1.34015625 8.18984375 -1.125 6.875 C-0.90070312 5.59367187 -0.67640625 4.31234375 -0.4453125 2.9921875 C-0.29835938 2.00476563 -0.15140625 1.01734375 0 0 Z " fill="#2F4556" transform="translate(622,267)"/>
<path d="M0 0 C3.28933329 1.73874028 6.31178909 3.62357818 8 7 C8.61415993 12.08875367 8.36984763 15.14163159 5.5625 19.5 C3.72854833 21.688631 2.56418577 22.81398223 -0.15625 23.7109375 C-4.44067761 24.01906414 -7.55548943 23.09552567 -11.0625 20.625 C-13.81900891 17.91346909 -14.53517925 15.84354962 -14.75 12 C-14.39094528 6.82492876 -12.75091532 4.48299279 -9 1 C-5.84017111 -0.57991444 -3.49944139 -0.34420735 0 0 Z " fill="#F2F6F6" transform="translate(572,570)"/>
<path d="M0 0 C2.9383803 1.54621565 5.06526522 3.29479562 7 6 C8.02524867 9.85021444 7.56158493 12.9789365 5.625 16.5 C4 18 4 18 2 18 C2 18.66 2 19.32 2 20 C-1.26667909 21.63333955 -4.48224424 21.65795061 -8 21 C-10.82175696 19.50020061 -12.48384009 17.8109826 -14 15 C-14.71011145 11.5259163 -14.70909979 8.47399309 -14 5 C-10.43179813 -0.04469919 -5.93213479 -0.69208239 0 0 Z " fill="#69A6DA" transform="translate(575,444)"/>
<path d="M0 0 C3.60067126 0.87838956 4.94522296 2.42198203 6.9375 5.47265625 C7.62215518 8.62655963 7.66148133 11.32363177 6.9375 14.47265625 C4.31995127 17.64544259 2.37545789 18.34752543 -1.5625 19.47265625 C-5.0625 19.47265625 -5.0625 19.47265625 -7.9375 17.66015625 C-10.81942041 14.69347348 -11.0217308 13.88714315 -11.4375 9.66015625 C-11.37577317 6.27135355 -11.05116791 5.45565811 -9.0625 2.47265625 C-5.73419602 0.25378693 -3.92294665 -0.2897631 0 0 Z " fill="#66A5DC" transform="translate(580.0625,301.52734375)"/>
<path d="M0 0 C2.84713784 1.3574961 3.85787537 2.48300356 6 5 C6.77152986 9.32056721 6.52747866 11.19119939 4.125 14.875 C1.4126761 17.5873239 0.53758847 17.93914093 -3.3125 18.375 C-7 18 -7 18 -9.9375 16.0625 C-12.36291117 12.4611319 -12.68687004 10.35088516 -12.41015625 6.09375 C-12 4 -12 4 -10.5 1.4375 C-6.97877839 -0.58720242 -3.89651885 -0.85096389 0 0 Z " fill="#63A4DC" transform="translate(537,308)"/>
<path d="M0 0 C3.33443684 0.69329875 4.85232439 1.75974142 6.97265625 4.41015625 C7.77020455 9.43471054 7.79625788 11.24742454 4.84765625 15.41015625 C1.97265625 17.41015625 1.97265625 17.41015625 -0.96484375 17.97265625 C-4.9755665 17.23599289 -7.0620458 16.23424953 -10.02734375 13.41015625 C-10.77065653 8.72728571 -10.63133175 6.61813226 -8.52734375 2.41015625 C-5.65039898 0.10860043 -3.67162792 -0.26765138 0 0 Z " fill="#F1F6F5" transform="translate(539.02734375,629.58984375)"/>
<path d="M0 0 C12.54 0 25.08 0 38 0 C35 3 35 3 31.98486328 3.37231445 C30.17091064 3.36784302 30.17091064 3.36784302 28.3203125 3.36328125 C27.67053436 3.36377975 27.02075623 3.36427826 26.35128784 3.36479187 C24.97781312 3.36245396 23.60433391 3.35274191 22.23095703 3.33618164 C20.13925382 3.31266029 18.04883253 3.31561325 15.95703125 3.32226562 C4.79143344 3.27567608 4.79143344 3.27567608 0 1 C0 0.67 0 0.34 0 0 Z " fill="#223845" transform="translate(533,719)"/>
<path d="M0 0 C2.5625 0.3125 2.5625 0.3125 4.375 1.5 C5.97371458 3.94014331 5.92090349 5.44527207 5.5625 8.3125 C4.5725 9.7975 4.5725 9.7975 3.5625 11.3125 C0.5625 11.6875 0.5625 11.6875 -2.4375 11.3125 C-4.73913882 7.86004176 -4.78240322 6.36511287 -4.4375 2.3125 C-2.4375 0.3125 -2.4375 0.3125 0 0 Z " fill="#6AAADD" transform="translate(575.4375,380.6875)"/>
<path d="M0 0 C0 3.82716898 -1.47112904 4.83206538 -4.0652771 7.45646667 C-4.64959503 8.03157486 -5.23391296 8.60668304 -5.8359375 9.19921875 C-6.43048737 9.79426712 -7.02503723 10.38931549 -7.63760376 11.00239563 C-8.8967406 12.25919069 -10.15957498 13.5122905 -11.42578125 14.76196289 C-13.36896569 16.68153901 -15.29847703 18.61409917 -17.2265625 20.54882812 C-18.44973015 21.76641982 -19.67366305 22.98324335 -20.8984375 24.19921875 C-21.47870697 24.78039963 -22.05897644 25.36158051 -22.65682983 25.96037292 C-26.76898927 30 -26.76898927 30 -29 30 C-29 30.66 -29 31.32 -29 32 C-29.66 31.67 -30.32 31.34 -31 31 C-25.57478168 24.58345146 -19.76501323 18.61377144 -13.8125 12.6875 C-12.92369141 11.79482422 -12.03488281 10.90214844 -11.11914062 9.98242188 C-9.83233398 8.69754883 -9.83233398 8.69754883 -8.51953125 7.38671875 C-7.74714111 6.61545654 -6.97475098 5.84419434 -6.17895508 5.04956055 C-4.2064446 3.19418514 -2.20184126 1.57149182 0 0 Z " fill="#DCEBF3" transform="translate(318,201)"/>
<path d="M0 0 C2.5 0.25 2.5 0.25 4.5 2.25 C4.75 5.25 4.75 5.25 4.5 8.25 C2.5 10.25 2.5 10.25 0.0625 10.5625 C-2.5 10.25 -2.5 10.25 -4.375 9.0625 C-5.5 7.25 -5.5 7.25 -5.3125 4.6875 C-4.22827241 1.43481722 -3.47807945 0.34780795 0 0 Z " fill="#ECF3F7" transform="translate(535.5,582.75)"/>
<path d="M0 0 C2 2 2 2 2.3125 4.5 C2.1578125 5.7375 2.1578125 5.7375 2 7 C-1.22373677 9.14915785 -2.26703674 9.38286803 -6 9 C-8 7 -8 7 -8.125 3.875 C-8.08375 2.92625 -8.0425 1.9775 -8 1 C-5.23749964 -0.38125018 -3.05268901 -0.19079306 0 0 Z " fill="#F1F6F7" transform="translate(579,515)"/>
<path d="M0 0 C3 0.25 3 0.25 5 2.25 C5.25 4.75 5.25 4.75 5 7.25 C3 9.25 3 9.25 0 9.5 C-3 9.25 -3 9.25 -5 7.25 C-5.25 4.75 -5.25 4.75 -5 2.25 C-3 0.25 -3 0.25 0 0 Z " fill="#5DA2DB" transform="translate(543,465.75)"/>
<path d="M0 0 C2.97 0 5.94 0 9 0 C9 0.33 9 0.66 9 1 C7.02 1 5.04 1 3 1 C3.01047363 1.95890137 3.02094727 2.91780273 3.03173828 3.90576172 C3.06789328 7.45780719 3.09088393 11.00983634 3.10986328 14.56201172 C3.11993118 16.10045098 3.13358646 17.63887107 3.15087891 19.17724609 C3.17509317 21.38644133 3.18647491 23.59538395 3.1953125 25.8046875 C3.20563507 26.49432587 3.21595764 27.18396423 3.22659302 27.89450073 C3.22699478 29.59800906 3.12191026 31.30085943 3 33 C2.34 33.66 1.68 34.32 1 35 C0.505 17.675 0.505 17.675 0 0 Z " fill="#5297D1" transform="translate(508,495)"/>
<path d="M0 0 C4.875 1.75 4.875 1.75 6 4 C6.46194226 11.16010499 6.46194226 11.16010499 4.625 14.5 C3 16 3 16 1 16 C-0.06723961 12.53777385 -0.10173486 9.35960734 -0.0625 5.75 C-0.04896484 4.13351562 -0.04896484 4.13351562 -0.03515625 2.484375 C-0.02355469 1.66453125 -0.01195312 0.8446875 0 0 Z " fill="#20374C" transform="translate(651,343)"/>
<path d="M0 0 C1.60463449 0.31008884 3.20869231 0.62316287 4.8125 0.9375 C5.70582031 1.11152344 6.59914063 1.28554688 7.51953125 1.46484375 C10 2 10 2 13 3 C13 3.66 13 4.32 13 5 C8.46298506 6.45184478 4.81938524 7.23509196 0 7 C-1.125 2.25 -1.125 2.25 0 0 Z " fill="#293F52" transform="translate(496,286)"/>
<path d="M0 0 C0.98871094 0.165 1.97742188 0.33 2.99609375 0.5 C7.02352734 1.0743365 11.00246144 1.07136878 15.0625 1 C22.75979876 0.92532661 30.32857174 1.31917594 38 2 C33.28321154 4.72054719 28.82072686 4.34085358 23.5 4.3125 C22.51563965 4.31121094 21.5312793 4.30992187 20.51708984 4.30859375 C13.2809617 4.21317752 6.86001274 3.43139692 0 1 C0 0.67 0 0.34 0 0 Z " fill="#5E727B" transform="translate(531,720)"/>
<path d="M0 0 C0 3 0 3 -1.65234375 4.99291992 C-2.78349609 6.10050659 -2.78349609 6.10050659 -3.9375 7.23046875 C-4.74960938 8.03291016 -5.56171875 8.83535156 -6.3984375 9.66210938 C-7.25695312 10.49548828 -8.11546875 11.32886719 -9 12.1875 C-10.28777344 13.4549707 -10.28777344 13.4549707 -11.6015625 14.74804688 C-13.7278365 16.83888298 -15.86078464 18.92241983 -18 21 C-18.66 20.67 -19.32 20.34 -20 20 C-13.6688763 12.89967436 -7.30341903 6.13126536 0 0 Z " fill="#7EB6DE" transform="translate(245,143)"/>
<path d="M0 0 C2.51083114 1.25541557 2.87125446 2.50063488 4 5 C5.65 5 7.3 5 9 5 C9 5.99 9 6.98 9 8 C7 10 7 10 5 11 C0.07692308 6.81538462 0.07692308 6.81538462 -0.3125 2.6875 C-0.209375 1.800625 -0.10625 0.91375 0 0 Z " fill="#233D50" transform="translate(453,350)"/>
<path d="M0 0 C0.99 0.33 1.98 0.66 3 1 C1.77801556 2.58888299 0.54705525 4.17086464 -0.6875 5.75 C-1.71423828 7.07257812 -1.71423828 7.07257812 -2.76171875 8.421875 C-4.98461943 10.98228416 -7.29250406 12.97056346 -10 15 C-9.6875 13.0625 -9.6875 13.0625 -9 11 C-8.01 10.67 -7.02 10.34 -6 10 C-5.938125 9.278125 -5.87625 8.55625 -5.8125 7.8125 C-4.75543353 4.15342375 -2.79449929 2.50788398 0 0 Z " fill="#314B5F" transform="translate(617,689)"/>
<path d="M0 0 C0 0.33 0 0.66 0 1 C-1.60681641 1.19916016 -1.60681641 1.19916016 -3.24609375 1.40234375 C-4.64325769 1.5805056 -6.04039159 1.75890319 -7.4375 1.9375 C-8.14455078 2.02451172 -8.85160156 2.11152344 -9.58007812 2.20117188 C-13.08817968 2.38216191 -13.08817968 2.38216191 -16 4 C-17.84891946 4.23363881 -19.70488031 4.41303635 -21.5625 4.5625 C-23.08037109 4.68818359 -23.08037109 4.68818359 -24.62890625 4.81640625 C-25.41136719 4.87699219 -26.19382812 4.93757813 -27 5 C-18.91301565 -0.3913229 -9.38674467 -0.14899595 0 0 Z " fill="#BED9EA" transform="translate(496,21)"/>
<path d="M0 0 C0.66 0 1.32 0 2 0 C2 1.32 2 2.64 2 4 C0.34928604 5.02611949 -1.31970006 6.02308143 -3 7 C-3.495 7.886875 -3.99 8.77375 -4.5 9.6875 C-4.995 10.450625 -5.49 11.21375 -6 12 C-8.6875 12.3125 -8.6875 12.3125 -11 12 C-8.42306907 7.70511511 -6.35919966 5.40903139 -2 3 C-1.34 2.01 -0.68 1.02 0 0 Z " fill="#243C4E" transform="translate(600,682)"/>
<path d="M0 0 C0.66 0 1.32 0 2 0 C2.69670416 1.78810766 3.38211189 3.58062052 4.0625 5.375 C4.63677734 6.87160156 4.63677734 6.87160156 5.22265625 8.3984375 C6 11 6 11 5 13 C4.01 12.67 3.02 12.34 2 12 C2.33 10.35 2.66 8.7 3 7 C1.68 7.33 0.36 7.66 -1 8 C-0.67 5.36 -0.34 2.72 0 0 Z " fill="#475C6A" transform="translate(488,270)"/>
<path d="M0 0 C-0.66 1.65 -1.32 3.3 -2 5 C-4.31 5.33 -6.62 5.66 -9 6 C-8.625 3.5625 -8.625 3.5625 -8 1 C-5.29120665 -0.35439668 -2.99066732 -0.06501451 0 0 Z " fill="#273D4F" transform="translate(463,342)"/>
<path d="M0 0 C0.33 0.99 0.66 1.98 1 3 C-3.29 7.29 -7.58 11.58 -12 16 C-12.66 15.67 -13.32 15.34 -14 15 C-12.98679687 14.00419922 -12.98679687 14.00419922 -11.953125 12.98828125 C-11.06109375 12.10527344 -10.1690625 11.22226562 -9.25 10.3125 C-8.36828125 9.44238281 -7.4865625 8.57226562 -6.578125 7.67578125 C-4.21194702 5.21997532 -2.08107444 2.69858952 0 0 Z " fill="#72B0DF" transform="translate(843,748)"/>
<path d="M0 0 C1.05078125 1.8828125 1.05078125 1.8828125 2 4 C1.1875 5.875 1.1875 5.875 0 8 C-0.38290462 9.99110401 -0.72604615 11.99100513 -1 14 C-1.66 14 -2.32 14 -3 14 C-3 15.98 -3 17.96 -3 20 C-3.33 20 -3.66 20 -4 20 C-4.66268329 12.87615459 -2.25388064 6.69120815 0 0 Z " fill="#9BC5E5" transform="translate(116,358)"/>
<path d="M0 0 C7.42857143 1 7.42857143 1 11 2 C11 2.66 11 3.32 11 4 C9.02 4.33 7.04 4.66 5 5 C4.67 4.34 4.34 3.68 4 3 C1.97536745 2.34786708 1.97536745 2.34786708 0 2 C0 1.34 0 0.68 0 0 Z M-1 2 C-0.67 2.99 -0.34 3.98 0 5 C-0.99 4.67 -1.98 4.34 -3 4 C-2.34 3.34 -1.68 2.68 -1 2 Z " fill="#384C5C" transform="translate(632,284)"/>
<path d="M0 0 C3 3 3 3 3.3984375 4.9375 C3.39070312 5.618125 3.38296875 6.29875 3.375 7 C3.38273438 7.680625 3.39046875 8.36125 3.3984375 9.0625 C3 11 3 11 0 14 C0 9.38 0 4.76 0 0 Z " fill="#5A6C7A" transform="translate(654,344)"/>
<path d="M0 0 C0.99 0 1.98 0 3 0 C2.71125 0.556875 2.4225 1.11375 2.125 1.6875 C0.9586747 4.08494645 -0.0339881 6.51596939 -1 9 C-1.33 9 -1.66 9 -2 9 C-2.25 3.375 -2.25 3.375 0 0 Z " fill="#4E98D8" transform="translate(528,310)"/>
<path d="M0 0 C1.65 0.33 3.3 0.66 5 1 C4.67 1.99 4.34 2.98 4 4 C1.69 4.33 -0.62 4.66 -3 5 C-2.34 4.67 -1.68 4.34 -1 4 C-0.34786708 1.97536745 -0.34786708 1.97536745 0 0 Z " fill="#22374A" transform="translate(633,285)"/>
<path d="M0 0 C-0.33 0.66 -0.66 1.32 -1 2 C-3.97 2 -6.94 2 -10 2 C-5.86678317 -0.75547789 -4.77928863 -1.13193678 0 0 Z " fill="#253C4F" transform="translate(535,700)"/>
<path d="M0 0 C0.66 1.32 1.32 2.64 2 4 C0.68 5.65 -0.64 7.3 -2 9 C-2.6875 7.3125 -2.6875 7.3125 -3 5 C-1.5625 2.25 -1.5625 2.25 0 0 Z " fill="#3B5363" transform="translate(626,673)"/>
<path d="M0 0 C0.99 0 1.98 0 3 0 C3.25 2.3125 3.25 2.3125 3 5 C1 6.8125 1 6.8125 -1 8 C-0.67 5.36 -0.34 2.72 0 0 Z " fill="#5A6D79" transform="translate(622,267)"/>
<path d="M0 0 C2.29013653 3.4352048 2.17842973 4.985331 2 9 C1.01 9.495 1.01 9.495 0 10 C-1.125 2.25 -1.125 2.25 0 0 Z " fill="#4C95D3" transform="translate(534,409)"/>
<path d="M0 0 C0.6875 1.6875 0.6875 1.6875 1 4 C-0.3125 6.75 -0.3125 6.75 -2 9 C-2.66 9 -3.32 9 -4 9 C-2.80100302 5.9168649 -1.52299523 2.93720508 0 0 Z " fill="#D1D7D9" transform="translate(626,678)"/>
<path d="M0 0 C2.125 0.375 2.125 0.375 4 1 C1.44008376 3.01136276 -1.04590299 4.62845496 -4 6 C-2.84826645 3.53199953 -1.95216435 1.95216435 0 0 Z " fill="#7FB6DF" transform="translate(537,401)"/>
<path d="M0 0 C0.66 0.33 1.32 0.66 2 1 C1.09972412 2.03531726 0.17906965 3.05294165 -0.75 4.0625 C-1.51570312 4.91521484 -1.51570312 4.91521484 -2.296875 5.78515625 C-2.85890625 6.18605469 -3.4209375 6.58695312 -4 7 C-5.32 6.67 -6.64 6.34 -8 6 C-5.36 4.02 -2.72 2.04 0 0 Z " fill="#D6E5F0" transform="translate(896,258)"/>
<path d="M0 0 C0.33 0.66 0.66 1.32 1 2 C-0.65 3.98 -2.3 5.96 -4 8 C-4.66 7.67 -5.32 7.34 -6 7 C-4.02 4.69 -2.04 2.38 0 0 Z " fill="#73B2DE" transform="translate(859,730)"/>
</svg>
