<?xml version="1.0" encoding="UTF-8"?>
<svg version="1.1" xmlns="http://www.w3.org/2000/svg" width="1056" height="992">
<path d="M0 0 C348.48 0 696.96 0 1056 0 C1056 327.36 1056 654.72 1056 992 C707.52 992 359.04 992 0 992 C0 664.64 0 337.28 0 0 Z " fill="#FDFEFE" transform="translate(0,0)"/>
<path d="M0 0 C2.45031448 0.00060797 4.90061265 -0.00191992 7.35092545 -0.00460434 C29.11179159 -0.01315709 50.48762429 0.49324802 71.92059708 4.61389542 C74.84711436 5.15834817 77.76001852 5.58132944 80.71747208 5.91858292 C97.00764978 7.82256493 112.63456349 12.11551778 128.43744278 16.36999893 C131.07350722 17.06983454 133.70743736 17.74345069 136.35589981 18.39148331 C139.57518931 19.21027036 142.68965178 20.11958981 145.83465958 21.18030167 C146.8375502 21.51674698 147.84044083 21.85319229 148.87372208 22.19983292 C149.8972377 22.54659073 150.92075333 22.89334854 151.97528458 23.25061417 C153.48735489 23.75914932 153.48735489 23.75914932 155.02997208 24.27795792 C157.06648415 24.96287182 159.10245544 25.64939578 161.13788223 26.33752823 C163.23946539 27.04414942 165.34341815 27.74375325 167.44940567 28.4371376 C172.49172346 30.09738446 177.47198665 31.77069261 182.35028458 33.87561417 C185.93743096 35.40631606 189.5284871 36.89814536 193.16278458 38.31311417 C199.29823889 40.74527632 205.25462064 43.56809194 211.22528458 46.37561417 C211.22528458 47.03561417 211.22528458 47.69561417 211.22528458 48.37561417 C211.79964249 48.50468155 212.3740004 48.63374893 212.96576309 48.76672745 C215.22681141 49.37602561 217.23825377 50.16964463 219.37762833 51.11780167 C220.15428848 51.46198135 220.93094864 51.80616104 221.73114395 52.16077042 C222.53358536 52.52041885 223.33602676 52.88006729 224.16278458 53.25061417 C225.3606459 53.77848526 225.3606459 53.77848526 226.58270645 54.31702042 C230.63037664 56.1212015 234.47340717 57.99895498 238.22528458 60.37561417 C239.55137279 61.05657838 240.88215059 61.72892002 242.22528458 62.37561417 C242.22528458 63.03561417 242.22528458 63.69561417 242.22528458 64.37561417 C242.88270645 64.43491104 243.54012833 64.49420792 244.21747208 64.55530167 C248.48727008 65.71979203 251.70395171 68.04437574 255.35028458 70.50061417 C256.88123288 71.51409089 258.41248251 72.52711257 259.94403458 73.53967667 C261.0519838 74.27685928 261.0519838 74.27685928 262.18231583 75.02893448 C264.70829578 76.69400444 267.27618814 78.28618715 269.85028458 79.87561417 C275.16163632 83.22585142 280.17969911 86.95108731 285.18866348 90.73303604 C287.85224395 92.72773216 290.04537614 94.31564469 293.22528458 95.37561417 C294.3568317 96.50716129 295.48438664 97.64295703 296.59247208 98.79748917 C300.93799671 102.99746991 305.91024318 106.57379567 310.67450333 110.28186417 C316.01304156 114.47704397 321.07236195 118.88338248 326.02753067 123.51941299 C328.21807974 125.56434753 330.41897454 127.52913801 332.76825333 129.39123917 C335.45992292 131.5651154 337.79976415 133.90562016 340.22528458 136.37561417 C341.69872166 137.81758381 343.17418604 139.25748327 344.65106583 140.69592667 C346.28014919 142.29730901 347.90905094 143.89887612 349.53778458 145.50061417 C350.37374161 146.31143448 351.20969864 147.12225479 352.0709877 147.95764542 C353.25531387 149.12746964 353.25531387 149.12746964 354.46356583 150.32092667 C355.18584366 151.02749405 355.90812149 151.73406143 356.65228653 152.46203995 C358.22528458 154.37561417 358.22528458 154.37561417 358.22528458 157.37561417 C358.78087051 157.59733292 359.33645645 157.81905167 359.90887833 158.04748917 C369.15638266 163.34959958 376.4234633 175.20117782 382.84930801 183.59241104 C384.26286319 185.42431434 385.69824635 187.23719675 387.13934708 189.04748917 C388.06394778 190.21926827 388.98843142 191.39113977 389.91278458 192.56311417 C390.56452652 193.37413589 390.56452652 193.37413589 391.22943497 194.2015419 C394.22528458 198.03586219 394.22528458 198.03586219 394.22528458 201.37561417 C395.21528458 201.70561417 396.20528458 202.03561417 397.22528458 202.37561417 C397.22528458 203.69561417 397.22528458 205.01561417 397.22528458 206.37561417 C395.54559708 207.85998917 395.54559708 207.85998917 393.35028458 209.12561417 C392.6309877 209.55358292 391.91169083 209.98155167 391.17059708 210.42248917 C389.22528458 211.37561417 389.22528458 211.37561417 387.22528458 211.37561417 C387.22528458 212.03561417 387.22528458 212.69561417 387.22528458 213.37561417 C385.28387833 214.67248917 385.28387833 214.67248917 382.66278458 216.12561417 C379.3518961 218.03484662 376.42100928 219.92203984 373.60028458 222.50061417 C371.32098637 224.56258394 369.27860039 225.9339992 366.47528458 227.18811417 C361.70945823 229.3919645 358.05060315 232.72798233 354.06122208 236.09436417 C351.46556375 238.18233175 348.87469462 239.95018729 346.03778458 241.68811417 C338.96176161 246.02998643 332.44423145 251.11559656 325.8600502 256.15808487 C321.53990258 259.37561417 321.53990258 259.37561417 318.22528458 259.37561417 C316.64715958 257.50452042 316.64715958 257.50452042 314.97528458 254.93811417 C306.46300068 242.27609186 296.34656369 230.77058234 286.22528458 219.37561417 C285.51758926 218.57510635 284.80989395 217.77459854 284.08075333 216.94983292 C277.55828327 209.62733246 270.85758357 202.67823992 263.41669083 196.28577042 C260.85078187 194.04917598 258.35372028 191.7443735 255.85028458 189.43811417 C251.41133705 185.37166573 246.82041501 181.60799932 242.02606583 177.96936417 C241.43180801 177.44342667 240.8375502 176.91748917 240.22528458 176.37561417 C240.22528458 175.71561417 240.22528458 175.05561417 240.22528458 174.37561417 C239.29715958 174.15905167 239.29715958 174.15905167 238.35028458 173.93811417 C236.22528458 173.37561417 236.22528458 173.37561417 234.22528458 172.37561417 C234.22528458 171.71561417 234.22528458 171.05561417 234.22528458 170.37561417 C233.42090958 170.00436417 233.42090958 170.00436417 232.60028458 169.62561417 C229.64288638 168.0690888 226.92804407 166.34125743 224.22528458 164.37561417 C224.22528458 163.71561417 224.22528458 163.05561417 224.22528458 162.37561417 C223.35903458 162.18998917 223.35903458 162.18998917 222.47528458 162.00061417 C220.20192691 161.36912593 218.29993168 160.48703226 216.22528458 159.37561417 C216.22528458 158.71561417 216.22528458 158.05561417 216.22528458 157.37561417 C215.40028458 157.14873917 214.57528458 156.92186417 213.72528458 156.68811417 C209.56018972 155.12620359 205.72519028 153.1471131 202.22528458 150.37561417 C202.22528458 149.71561417 202.22528458 149.05561417 202.22528458 148.37561417 C201.45958145 148.23832901 201.45958145 148.23832901 200.67840958 148.09827042 C197.24014614 147.08540619 194.15193993 145.44340985 190.97528458 143.81311417 C190.00075333 143.31908096 190.00075333 143.31908096 189.00653458 142.81506729 C187.41094163 142.00553852 185.81785974 141.19106375 184.22528458 140.37561417 C184.22528458 139.71561417 184.22528458 139.05561417 184.22528458 138.37561417 C182.90528458 138.37561417 181.58528458 138.37561417 180.22528458 138.37561417 C180.22528458 137.71561417 180.22528458 137.05561417 180.22528458 136.37561417 C178.90528458 136.37561417 177.58528458 136.37561417 176.22528458 136.37561417 C176.22528458 135.71561417 176.22528458 135.05561417 176.22528458 134.37561417 C174.90528458 134.37561417 173.58528458 134.37561417 172.22528458 134.37561417 C172.22528458 133.71561417 172.22528458 133.05561417 172.22528458 132.37561417 C171.49390274 132.24799698 170.7625209 132.12037979 170.00897598 131.98889542 C167.37819949 131.40930319 165.15403004 130.62672404 162.68622208 129.56311417 C161.85864395 129.20991104 161.03106583 128.85670792 160.17840958 128.49280167 C159.32762833 128.12412979 158.47684708 127.75545792 157.60028458 127.37561417 C155.90015762 126.64552962 154.19965245 125.91632498 152.49872208 125.18811417 C151.75026016 124.86455948 151.00179825 124.54100479 150.23065567 124.20764542 C148.58959502 123.52676708 146.91081352 122.93745715 145.22528458 122.37561417 C145.22528458 121.71561417 145.22528458 121.05561417 145.22528458 120.37561417 C143.52372208 120.06623917 143.52372208 120.06623917 141.78778458 119.75061417 C137.22775602 118.74514203 132.91276097 117.23222658 128.53778458 115.62561417 C119.83628543 112.44401745 110.97995172 110.03198659 102.02606583 107.67248917 C99.36470092 106.97104612 96.80048644 106.2281681 94.19794083 105.32483292 C89.9830906 103.9789609 85.69851248 103.23084803 81.35028458 102.43811417 C79.44786957 102.08824098 77.54552624 101.73797782 75.64325333 101.38733292 C74.7130336 101.216371 73.78281387 101.04540909 72.82440567 100.86926651 C70.63203427 100.45286833 68.45450922 100.00291087 66.27606583 99.52014542 C37.58355756 93.40941663 7.37468705 95.03800285 -21.77471542 95.37561417 C-22.51900803 95.38292557 -23.26330063 95.39023697 -24.03014755 95.39776993 C-44.96101998 95.60590982 -65.25843271 98.10728455 -85.50127792 103.51233292 C-88.19604546 104.2230055 -90.84839679 104.81302271 -93.58721542 105.31311417 C-105.12096196 107.51838212 -116.56132694 110.75150858 -127.62237167 114.67639542 C-129.77471542 115.37561417 -129.77471542 115.37561417 -131.77471542 115.37561417 C-131.77471542 116.03561417 -131.77471542 116.69561417 -131.77471542 117.37561417 C-132.53091171 117.63254044 -133.287108 117.88946671 -134.06621933 118.15417862 C-137.51223125 119.32776677 -140.95597635 120.50787415 -144.39971542 121.68811417 C-145.58952011 122.09223526 -146.7793248 122.49635635 -148.00518417 122.91272354 C-149.15889511 123.30911026 -150.31260605 123.70549698 -151.50127792 124.11389542 C-152.55911484 124.47523575 -153.61695175 124.83657608 -154.70684433 125.20886612 C-157.8487109 126.33954549 -157.8487109 126.33954549 -160.97930527 128.01697159 C-163.77471542 129.37561417 -163.77471542 129.37561417 -166.77471542 129.37561417 C-166.77471542 130.03561417 -166.77471542 130.69561417 -166.77471542 131.37561417 C-167.59455917 131.70174698 -168.41440292 132.02787979 -169.25909042 132.36389542 C-170.33674667 132.8008876 -171.41440292 133.23787979 -172.52471542 133.68811417 C-173.59205917 134.11737198 -174.65940292 134.54662979 -175.75909042 134.98889542 C-178.70496815 136.21209669 -178.70496815 136.21209669 -180.72784042 137.85608292 C-182.77471542 139.37561417 -182.77471542 139.37561417 -186.10284042 140.79358292 C-189.86323616 142.41375342 -193.14393132 144.41438056 -196.52471542 146.68811417 C-200.72952139 149.46375542 -204.91890835 152.05728355 -209.39971542 154.37561417 C-214.8481325 157.24149774 -219.52094638 160.81932803 -224.34112167 164.61780167 C-226.77471542 166.37561417 -226.77471542 166.37561417 -228.77471542 166.37561417 C-228.77471542 167.03561417 -228.77471542 167.69561417 -228.77471542 168.37561417 C-230.35674667 169.56702042 -230.35674667 169.56702042 -232.58721542 170.93811417 C-237.56269099 174.12083902 -241.99882908 177.79025956 -246.48955917 181.61780167 C-248.77471542 183.37561417 -248.77471542 183.37561417 -250.77471542 183.37561417 C-250.77471542 184.03561417 -250.77471542 184.69561417 -250.77471542 185.37561417 C-252.17315292 186.78577042 -252.17315292 186.78577042 -254.14971542 188.43811417 C-255.26539902 189.39137589 -255.26539902 189.39137589 -256.40362167 190.36389542 C-257.18608261 191.0277626 -257.96854355 191.69162979 -258.77471542 192.37561417 C-265.71351801 198.3287177 -272.22265632 204.69023111 -278.71221542 211.12561417 C-279.55373154 211.95415909 -280.39524765 212.78270401 -281.26226425 213.63635635 C-282.05914658 214.43203018 -282.8560289 215.22770401 -283.67705917 216.04748917 C-284.39369736 216.76001846 -285.11033554 217.47254776 -285.84869003 218.20666885 C-287.85096954 220.46148583 -289.26859119 222.7710344 -290.77471542 225.37561417 C-292.83721542 227.68811417 -292.83721542 227.68811417 -294.77471542 229.37561417 C-295.43471542 229.37561417 -296.09471542 229.37561417 -296.77471542 229.37561417 C-296.77471542 230.03561417 -296.77471542 230.69561417 -296.77471542 231.37561417 C-297.43471542 231.37561417 -298.09471542 231.37561417 -298.77471542 231.37561417 C-299.43471542 233.02561417 -300.09471542 234.67561417 -300.77471542 236.37561417 C-301.43471542 236.37561417 -302.09471542 236.37561417 -302.77471542 236.37561417 C-303.43471542 238.02561417 -304.09471542 239.67561417 -304.77471542 241.37561417 C-305.43471542 241.37561417 -306.09471542 241.37561417 -306.77471542 241.37561417 C-307.00803574 242.0755751 -307.24135605 242.77553604 -307.48174667 243.49670792 C-309.01145432 246.90273371 -311.12368334 249.56853316 -313.46221542 252.43811417 C-317.71721689 257.77616481 -321.15942403 263.18662318 -324.39971542 269.20764542 C-324.85346542 269.9230751 -325.30721542 270.63850479 -325.77471542 271.37561417 C-326.43471542 271.37561417 -327.09471542 271.37561417 -327.77471542 271.37561417 C-328.10471542 273.02561417 -328.43471542 274.67561417 -328.77471542 276.37561417 C-329.43471542 276.37561417 -330.09471542 276.37561417 -330.77471542 276.37561417 C-331.10471542 278.02561417 -331.43471542 279.67561417 -331.77471542 281.37561417 C-332.43471542 281.37561417 -333.09471542 281.37561417 -333.77471542 281.37561417 C-334.84996736 284.02790229 -335.86927694 286.65929871 -336.77471542 289.37561417 C-337.43471542 289.37561417 -338.09471542 289.37561417 -338.77471542 289.37561417 C-339.14596542 290.92248917 -339.14596542 290.92248917 -339.52471542 292.50061417 C-340.16866114 295.18372133 -341.06096513 296.80408096 -342.62237167 299.14123917 C-344.95439879 302.64562837 -346.71700488 306.18320375 -348.46221542 310.00061417 C-348.92337753 310.98287979 -348.92337753 310.98287979 -349.39385605 311.98498917 C-350.82012953 315.06848633 -352.13720331 318.02655052 -352.77471542 321.37561417 C-353.43471542 321.37561417 -354.09471542 321.37561417 -354.77471542 321.37561417 C-354.69221542 322.03561417 -354.60971542 322.69561417 -354.52471542 323.37561417 C-354.81814352 326.8967513 -355.97026389 328.96695809 -357.61846542 332.03967667 C-359.73852155 336.32276304 -361.21569266 340.86439937 -362.77471542 345.37561417 C-363.43471542 345.37561417 -364.09471542 345.37561417 -364.77471542 345.37561417 C-364.88686386 346.34627823 -364.9990123 347.31694229 -365.11455917 348.31702042 C-365.75267951 352.78386276 -367.01970429 357.00629204 -368.33721542 361.31311417 C-368.57118027 362.09235245 -368.80514511 362.87159073 -369.0461998 363.67444229 C-369.61788964 365.57618604 -370.19567233 367.47609642 -370.77471542 369.37561417 C-371.43471542 369.37561417 -372.09471542 369.37561417 -372.77471542 369.37561417 C-372.83659042 370.63373917 -372.89846542 371.89186417 -372.96221542 373.18811417 C-373.47748746 378.46778564 -374.7529703 383.40218817 -376.14971542 388.50061417 C-379.63848212 401.30654335 -381.88043909 414.06465043 -383.30596542 427.25452042 C-383.71286096 430.97951115 -384.2705375 434.67137394 -384.83721542 438.37561417 C-386.30065814 449.32262663 -386.52366815 460.34503071 -386.77471542 471.37561417 C-386.80339706 472.5509169 -386.8320787 473.72621964 -386.86162949 474.9371376 C-387.18566586 490.13403315 -386.57865142 504.82475554 -384.49737167 519.88342667 C-383.86313877 524.47473847 -383.49716421 528.99678621 -383.27471542 533.62561417 C-382.9572454 539.38542744 -381.93800897 544.6888243 -380.52471542 550.27405167 C-379.80715442 553.2414654 -379.29267752 556.17067779 -378.83721542 559.18811417 C-375.51838947 579.71665854 -368.26815114 599.54796764 -361.26397324 619.05163956 C-360.93880722 619.96679337 -360.6136412 620.88194717 -360.27862167 621.82483292 C-359.84271713 623.03659195 -359.84271713 623.03659195 -359.39800644 624.27283096 C-358.77471542 626.37561417 -358.77471542 626.37561417 -358.77471542 629.37561417 C-358.11471542 629.37561417 -357.45471542 629.37561417 -356.77471542 629.37561417 C-356.49498886 630.07944229 -356.2152623 630.78327042 -355.92705917 631.50842667 C-353.01647201 638.67726837 -349.73954197 645.51044151 -346.13018417 652.34436417 C-344.77471542 655.37561417 -344.77471542 655.37561417 -344.77471542 659.37561417 C-344.11471542 659.37561417 -343.45471542 659.37561417 -342.77471542 659.37561417 C-342.34803574 660.21479385 -341.92135605 661.05397354 -341.48174667 661.91858292 C-332.78039905 678.76490768 -322.76450428 694.68527924 -311.11211777 709.64123917 C-309.13660135 712.2031356 -307.24468143 714.82533742 -305.33721542 717.43811417 C-299.86166438 724.74216138 -293.82080543 731.54457252 -287.77471542 738.37561417 C-286.97936386 739.28440323 -286.1840123 740.19319229 -285.36455917 741.12952042 C-277.71027732 749.78399881 -269.61644239 758.14119865 -260.80205917 765.62170792 C-258.39564461 767.70355789 -256.09595184 769.88673946 -253.77471542 772.06311417 C-243.31813396 781.60347222 -231.34650323 790.9889522 -219.00518417 797.93420792 C-218.26912949 798.40987198 -217.5330748 798.88553604 -216.77471542 799.37561417 C-216.77471542 800.03561417 -216.77471542 800.69561417 -216.77471542 801.37561417 C-215.99096542 801.56123917 -215.20721542 801.74686417 -214.39971542 801.93811417 C-210.08244188 803.65013643 -206.76387328 806.06872488 -203.04424667 808.81702042 C-200.77557011 810.52887368 -200.77557011 810.52887368 -197.77471542 811.37561417 C-197.44471542 812.03561417 -197.11471542 812.69561417 -196.77471542 813.37561417 C-194.75008287 814.02774708 -194.75008287 814.02774708 -192.77471542 814.37561417 C-192.77471542 815.03561417 -192.77471542 815.69561417 -192.77471542 816.37561417 C-192.05284042 816.48002823 -191.33096542 816.58444229 -190.58721542 816.69202042 C-187.49852528 817.44274371 -185.44523134 818.60648759 -182.77471542 820.31311417 C-179.50501499 822.39243929 -176.3904286 823.98939825 -172.77471542 825.37561417 C-171.39170544 826.04685528 -170.01603553 826.73352164 -168.64971542 827.43811417 C-166.33746781 828.63022626 -164.259114 829.54748131 -161.77471542 830.37561417 C-161.77471542 831.03561417 -161.77471542 831.69561417 -161.77471542 832.37561417 C-160.97034042 832.45811417 -160.16596542 832.54061417 -159.33721542 832.62561417 C-155.56709763 833.41932318 -152.56796715 834.76766557 -149.09893417 836.38733292 C-145.72486522 837.82202106 -142.35221309 838.59506922 -138.77471542 839.37561417 C-138.77471542 840.03561417 -138.77471542 840.69561417 -138.77471542 841.37561417 C-138.06677841 841.50395645 -137.3588414 841.63229874 -136.62945175 841.76453018 C-133.70475969 842.39058887 -130.94133121 843.2237445 -128.09893417 844.15295792 C-127.02321152 844.50164932 -125.94748886 844.85034073 -124.83916855 845.20959854 C-123.16757675 845.75583878 -123.16757675 845.75583878 -121.46221542 846.31311417 C-114.60462245 848.55355512 -107.80262588 850.73678472 -100.77471542 852.37561417 C-99.70608261 852.63342667 -98.6374498 852.89123917 -97.53643417 853.15686417 C-91.58040474 854.54937931 -85.63416993 855.82683558 -79.60284042 856.84827042 C-77.37879219 857.26297554 -75.17152843 857.76776062 -72.97393417 858.30530167 C-65.85396516 859.90467217 -58.57682959 860.59387929 -51.33721542 861.43811417 C-49.87297554 861.6128495 -48.40878242 861.78797719 -46.9446373 861.96350479 C-42.88930388 862.4462508 -38.83361355 862.92372823 -34.77471542 863.37561417 C-34.02685776 863.46385956 -33.27900009 863.55210495 -32.50848007 863.64302444 C-25.66755092 864.40188034 -18.8644662 864.5902454 -11.98565292 864.69202042 C-10.80121597 864.71280151 -9.61677902 864.73358261 -8.39645004 864.75499344 C-4.64759219 864.81988936 -0.8986699 864.87909259 2.85028458 864.93811417 C5.40628057 864.98135653 7.96227028 865.02497255 10.51825333 865.06897354 C16.75386415 865.17550848 22.98953773 865.27738131 29.22528458 865.37561417 C29.22528458 864.71561417 29.22528458 864.05561417 29.22528458 863.37561417 C29.84121475 863.34121231 30.45714493 863.30681046 31.09173965 863.27136612 C47.05486048 862.32389093 62.45778452 860.11830608 78.12860489 856.97131729 C82.23759494 856.1808777 86.36292645 855.51644428 90.49701309 854.87170792 C94.27262174 854.18517219 97.91607838 853.14499464 101.60028458 852.08264542 C104.01682345 851.43176218 106.38409214 850.97553486 108.85028458 850.56311417 C120.33350349 848.34641684 131.4357987 843.54557851 141.96014786 838.56042862 C145.53308122 836.91263531 148.27707622 835.99887673 152.22528458 836.37561417 C152.22528458 835.71561417 152.22528458 835.05561417 152.22528458 834.37561417 C155.19528458 833.71561417 158.16528458 833.05561417 161.22528458 832.37561417 C161.22528458 831.71561417 161.22528458 831.05561417 161.22528458 830.37561417 C161.91235489 830.11006729 162.5994252 829.84452042 163.30731583 829.57092667 C164.20837051 829.21772354 165.1094252 828.86452042 166.03778458 828.50061417 C166.93110489 828.15256729 167.8244252 827.80452042 168.74481583 827.44592667 C171.40240049 826.38729262 171.40240049 826.38729262 174.22528458 824.37561417 C175.21528458 824.37561417 176.20528458 824.37561417 177.22528458 824.37561417 C177.22528458 823.71561417 177.22528458 823.05561417 177.22528458 822.37561417 C177.79633926 822.17967667 178.36739395 821.98373917 178.95575333 821.78186417 C186.04561062 819.16684526 192.17441794 815.52061463 198.52557755 811.45764542 C219.07546508 798.37561417 219.07546508 798.37561417 222.22528458 798.37561417 C222.22528458 797.71561417 222.22528458 797.05561417 222.22528458 796.37561417 C223.73822403 795.06287003 223.73822403 795.06287003 225.83856583 793.59045792 C226.59202286 793.0600087 227.34547989 792.52955948 228.12176895 791.98303604 C228.91905411 791.43196182 229.71633926 790.8808876 230.53778458 790.31311417 C231.32346817 789.75817276 232.10915176 789.20323135 232.91864395 788.63147354 C238.81274454 784.51312751 238.81274454 784.51312751 242.22528458 783.37561417 C242.22528458 782.71561417 242.22528458 782.05561417 242.22528458 781.37561417 C244.34247208 779.43030167 244.34247208 779.43030167 247.10028458 777.25061417 C248.00520645 776.52616104 248.91012833 775.80170792 249.84247208 775.05530167 C252.22528458 773.37561417 252.22528458 773.37561417 254.22528458 773.37561417 C254.22528458 772.71561417 254.22528458 772.05561417 254.22528458 771.37561417 C255.67943412 770.11247579 257.1930571 768.91781098 258.72528458 767.75061417 C263.96360108 763.56403219 268.74176794 759.06096811 273.47528458 754.31311417 C274.13592911 753.65295303 274.79657364 752.9927919 275.4772377 752.31262589 C282.60371059 745.10946673 289.03424343 737.44722567 295.30731583 729.50061417 C295.94024551 728.79936417 296.5731752 728.09811417 297.22528458 727.37561417 C297.88528458 727.37561417 298.54528458 727.37561417 299.22528458 727.37561417 C299.45860489 726.84194229 299.6919252 726.30827042 299.93231583 725.75842667 C301.60946341 722.66761087 303.73935146 719.99960607 305.91278458 717.25061417 C310.20750893 711.75127201 314.29390794 706.14250109 318.22528458 700.37561417 C321.63887667 701.00118195 323.80365114 702.28483906 326.60028458 704.31311417 C327.46524551 704.93315323 328.33020645 705.55319229 329.22137833 706.19202042 C330.21266739 706.91260635 331.20395645 707.63319229 332.22528458 708.37561417 C334.07514192 709.71750849 335.92634419 711.05743131 337.78046036 712.39343643 C339.01995807 713.28712875 340.25669612 714.18466306 341.4904213 715.08630753 C344.06081711 716.94286563 346.19674457 718.36610083 349.22528458 719.37561417 C349.22528458 720.03561417 349.22528458 720.69561417 349.22528458 721.37561417 C349.89430801 721.59217667 350.56333145 721.80873917 351.25262833 722.03186417 C355.18408937 723.80902921 358.3662999 726.27165238 361.78778458 728.87561417 C363.09945478 729.86802153 364.41319601 730.85769871 365.72919083 731.84436417 C366.3048378 732.28200089 366.88048477 732.7196376 367.47357559 733.17053604 C369.31919951 734.44022241 371.20197287 735.41955294 373.22528458 736.37561417 C373.22528458 737.03561417 373.22528458 737.69561417 373.22528458 738.37561417 C374.87528458 738.70561417 376.52528458 739.03561417 378.22528458 739.37561417 C378.22528458 740.03561417 378.22528458 740.69561417 378.22528458 741.37561417 C378.74090958 741.62311417 379.25653458 741.87061417 379.78778458 742.12561417 C388.71106138 746.70165355 388.71106138 746.70165355 392.22528458 750.37561417 C393.11215958 750.84998917 393.99903458 751.32436417 394.91278458 751.81311417 C395.67590958 752.32873917 396.43903458 752.84436417 397.22528458 753.37561417 C397.22528458 757.37561417 397.22528458 757.37561417 395.91278458 758.81311417 C395.35590958 759.32873917 394.79903458 759.84436417 394.22528458 760.37561417 C393.70965958 761.24186417 393.19403458 762.10811417 392.66278458 763.00061417 C391.22528458 765.37561417 391.22528458 765.37561417 389.22528458 766.37561417 C388.26692182 768.09405773 387.31008012 769.8133947 386.36590958 771.53967667 C384.70838711 774.20760667 382.46648668 776.19187878 380.22528458 778.37561417 C379.66840958 779.30373917 379.11153458 780.23186417 378.53778458 781.18811417 C378.10465958 781.90998917 377.67153458 782.63186417 377.22528458 783.37561417 C376.56528458 783.37561417 375.90528458 783.37561417 375.22528458 783.37561417 C375.03965958 784.24186417 374.85403458 785.10811417 374.66278458 786.00061417 C373.00095385 789.90230369 371.20408799 791.30431932 367.95965958 793.87170792 C365.4886942 796.01432429 363.97637665 798.63223658 362.22528458 801.37561417 C360.5821421 803.06547758 358.91038178 804.72758414 357.22528458 806.37561417 C356.12669839 807.48081948 355.03023085 808.58813335 353.93548965 809.69714737 C350.67522478 812.99285622 347.4089919 816.28257797 344.14056778 819.57019424 C342.73156913 820.98933546 341.32435829 822.4102538 339.91888809 823.83288956 C337.88634208 825.88956215 335.847521 827.9398241 333.80731583 829.98889542 C333.17711029 830.62942352 332.54690475 831.26995163 331.89760208 831.92988968 C330.37765571 833.45022898 328.80601481 834.91857591 327.22528458 836.37561417 C326.56528458 836.37561417 325.90528458 836.37561417 325.22528458 836.37561417 C325.22528458 837.03561417 325.22528458 837.69561417 325.22528458 838.37561417 C323.90528458 838.70561417 322.58528458 839.03561417 321.22528458 839.37561417 C321.22528458 840.03561417 321.22528458 840.69561417 321.22528458 841.37561417 C316.10847705 846.66024319 309.92418307 851.03202426 304.10028458 855.50061417 C302.55523593 856.68970837 301.01094932 857.87979346 299.46747208 859.07092667 C298.74269669 859.62941299 298.0179213 860.18789932 297.27118301 860.76330948 C295.40403879 862.2347439 293.5961297 863.7537208 291.79559708 865.30530167 C289.22528458 867.37561417 289.22528458 867.37561417 287.22528458 867.37561417 C287.22528458 868.03561417 287.22528458 868.69561417 287.22528458 869.37561417 C284.24259398 870.90010047 281.40708258 872.31501483 278.22528458 873.37561417 C277.89528458 874.36561417 277.56528458 875.35561417 277.22528458 876.37561417 C275.47528458 877.55139542 275.47528458 877.55139542 273.22528458 878.68811417 C270.05731495 880.36147743 267.05422173 882.09829228 264.10028458 884.12561417 C259.54764926 887.22140618 254.83784165 890.02900436 250.10370255 892.83411026 C244.44116569 896.20557819 238.93292714 899.78410875 233.44403458 903.43030167 C229.233958 905.97474115 225.25054527 908.37561417 220.22528458 908.37561417 C220.22528458 909.03561417 220.22528458 909.69561417 220.22528458 910.37561417 C219.57301895 910.62955948 218.92075333 910.88350479 218.24872208 911.14514542 C214.34256007 912.68341275 210.53221278 914.21935981 206.78778458 916.12561417 C204.22528458 917.37561417 204.22528458 917.37561417 201.22528458 917.37561417 C201.22528458 918.03561417 201.22528458 918.69561417 201.22528458 919.37561417 C200.17469864 919.76233292 199.1241127 920.14905167 198.04169083 920.54748917 C191.38560766 923.01158861 184.76526445 925.46684225 178.31512833 928.43811417 C175.08426119 929.88747512 171.785818 931.16039824 168.48700333 932.44592667 C166.25097347 933.31842226 166.25097347 933.31842226 164.32684708 934.40295792 C160.62165769 936.11781323 156.5923379 936.67237827 152.61200333 937.49670792 C149.62628378 938.27154863 147.03746383 939.32871259 144.23285294 940.58386612 C140.01339141 942.24794416 135.56396235 943.18857851 131.16278458 944.25061417 C129.5782045 944.63805801 129.5782045 944.63805801 127.9616127 945.03332901 C124.71801149 945.82195981 121.47195422 946.59972445 118.22528458 947.37561417 C117.27540665 947.60571182 116.32552872 947.83580948 115.34686661 948.07287979 C94.00009889 953.2262031 72.6887761 956.56207299 50.82342911 958.42493057 C49.51873672 958.53627335 48.21404434 958.64761612 46.86981583 958.76233292 C45.70812881 958.85732071 44.5464418 958.9523085 43.34955215 959.05017471 C40.34750271 959.30195981 40.34750271 959.30195981 37.93678665 959.88687515 C34.81688747 960.44922635 31.88772356 960.51027219 28.7169838 960.52087784 C26.76742279 960.53044762 26.76742279 960.53044762 24.77847672 960.54021072 C23.36230888 960.54174157 21.94614055 960.54285437 20.52997208 960.54358292 C19.0580581 960.54680281 17.58614444 960.55016741 16.11423111 960.55366898 C13.02249794 960.5596548 9.93079266 960.56150992 6.83905411 960.5609169 C3.70488004 960.56083625 0.570854 960.56767847 -2.56328964 960.58142471 C-19.09128291 960.65287543 -35.36361221 960.5859505 -51.77471542 958.37561417 C-54.23458402 958.12778566 -56.69551795 957.89024126 -59.15752792 957.66467667 C-70.63980547 956.54995686 -81.80769286 955.28189072 -92.97393417 952.34436417 C-96.91166151 951.3407091 -100.83844509 950.58028378 -104.83721542 949.87561417 C-112.21832506 948.54980181 -119.44810749 946.79274108 -126.70440292 944.90930557 C-130.38899605 943.95948003 -134.08242776 943.04497731 -137.77471542 942.12561417 C-139.12891869 941.78721893 -140.48308891 941.44869142 -141.83721542 941.10998917 C-142.80659042 940.86764542 -143.77596542 940.62530167 -144.77471542 940.37561417 C-144.77471542 939.71561417 -144.77471542 939.05561417 -144.77471542 938.37561417 C-145.42955917 938.27764542 -146.08440292 938.17967667 -146.75909042 938.07873917 C-157.5446731 936.3116098 -167.42287693 932.57287423 -177.57159042 928.61389542 C-182.27933119 926.79395173 -187.02405231 925.07975985 -191.77471542 923.37561417 C-191.77471542 922.71561417 -191.77471542 922.05561417 -191.77471542 921.37561417 C-192.4940123 921.25702042 -193.21330917 921.13842667 -193.95440292 921.01623917 C-196.85274257 920.35789055 -199.21511632 919.3917833 -201.89971542 918.12561417 C-203.32090683 917.46239151 -203.32090683 917.46239151 -204.77080917 916.78577042 C-206.25774277 916.08774307 -206.25774277 916.08774307 -207.77471542 915.37561417 C-209.83599206 914.43542742 -211.89844059 913.49780445 -213.96221542 912.56311417 C-215.56638209 911.8339475 -217.17054876 911.10478083 -218.77471542 910.37561417 C-218.77471542 909.71561417 -218.77471542 909.05561417 -218.77471542 908.37561417 C-221.41471542 907.71561417 -224.05471542 907.05561417 -226.77471542 906.37561417 C-226.77471542 905.71561417 -226.77471542 905.05561417 -226.77471542 904.37561417 C-227.37799667 904.18225479 -227.98127792 903.98889542 -228.60284042 903.78967667 C-229.80166855 903.39909073 -229.80166855 903.39909073 -231.02471542 903.00061417 C-231.81362167 902.74537979 -232.60252792 902.49014542 -233.41534042 902.22717667 C-235.640995 901.4238775 -237.68403215 900.47849755 -239.77471542 899.37561417 C-239.77471542 898.71561417 -239.77471542 898.05561417 -239.77471542 897.37561417 C-240.68221542 897.08686417 -241.58971542 896.79811417 -242.52471542 896.50061417 C-245.0967445 895.61029641 -247.38818308 894.66067004 -249.77471542 893.37561417 C-249.77471542 892.71561417 -249.77471542 892.05561417 -249.77471542 891.37561417 C-250.41409042 891.14873917 -251.05346542 890.92186417 -251.71221542 890.68811417 C-255.90791803 888.88995591 -259.81372098 886.63657396 -263.77471542 884.37561417 C-263.77471542 883.71561417 -263.77471542 883.05561417 -263.77471542 882.37561417 C-264.76471542 882.37561417 -265.75471542 882.37561417 -266.77471542 882.37561417 C-266.77471542 881.71561417 -266.77471542 881.05561417 -266.77471542 880.37561417 C-267.70284042 880.08686417 -268.63096542 879.79811417 -269.58721542 879.50061417 C-272.77471542 878.37561417 -272.77471542 878.37561417 -275.77471542 876.37561417 C-275.77471542 875.71561417 -275.77471542 875.05561417 -275.77471542 874.37561417 C-276.32643417 874.2815126 -276.87815292 874.18741104 -277.44659042 874.09045792 C-280.39877108 873.18399976 -282.50192886 871.71217899 -285.02471542 869.93811417 C-286.3627623 869.01192276 -286.3627623 869.01192276 -287.72784042 868.06702042 C-288.40330917 867.50885635 -289.07877792 866.95069229 -289.77471542 866.37561417 C-289.77471542 865.71561417 -289.77471542 865.05561417 -289.77471542 864.37561417 C-290.35221542 864.27248917 -290.92971542 864.16936417 -291.52471542 864.06311417 C-294.131327 863.26664952 -295.74824652 862.1849614 -297.77471542 860.37561417 C-297.77471542 859.71561417 -297.77471542 859.05561417 -297.77471542 858.37561417 C-298.53784042 858.08686417 -299.30096542 857.79811417 -300.08721542 857.50061417 C-302.77471542 856.37561417 -302.77471542 856.37561417 -305.77471542 854.37561417 C-305.77471542 853.71561417 -305.77471542 853.05561417 -305.77471542 852.37561417 C-306.6486998 851.98116104 -306.6486998 851.98116104 -307.54034042 851.57873917 C-309.88078709 850.31849865 -311.56930843 848.91941727 -313.52471542 847.12561417 C-316.24862071 844.68069359 -319.00550713 842.40806105 -321.96221542 840.25061417 C-325.20422299 837.86010664 -327.99189205 835.30114643 -330.77471542 832.37561417 C-331.99954659 831.12136566 -333.22894852 829.871569 -334.46221542 828.62561417 C-335.04358261 828.03264542 -335.6249498 827.43967667 -336.22393417 826.82873917 C-337.72985516 825.27919612 -337.72985516 825.27919612 -339.77471542 824.37561417 C-339.77471542 823.38561417 -339.77471542 822.39561417 -339.77471542 821.37561417 C-340.43471542 821.37561417 -341.09471542 821.37561417 -341.77471542 821.37561417 C-341.77471542 820.71561417 -341.77471542 820.05561417 -341.77471542 819.37561417 C-342.60422714 819.03336807 -342.60422714 819.03336807 -343.45049667 818.68420792 C-351.41600697 814.19942481 -357.8730974 805.21426164 -363.47784042 798.16858292 C-365.88375427 795.24302441 -368.42476318 792.50460982 -371.02471542 789.75061417 C-375.5907171 784.86974402 -379.76041974 779.73296303 -383.83721542 774.43811417 C-384.39763535 773.71607803 -384.95805527 772.9940419 -385.53545761 772.25012589 C-388.18973855 768.75545876 -390.43855871 765.61645939 -391.77471542 761.37561417 C-392.43471542 761.37561417 -393.09471542 761.37561417 -393.77471542 761.37561417 C-394.35221542 760.32373917 -394.92971542 759.27186417 -395.52471542 758.18811417 C-396.90137987 755.75928475 -398.26390718 753.76412447 -400.02471542 751.56311417 C-401.77471542 749.37561417 -401.77471542 749.37561417 -401.77471542 747.37561417 C-402.43471542 747.37561417 -403.09471542 747.37561417 -403.77471542 747.37561417 C-404.04284042 746.87674698 -404.31096542 746.37787979 -404.58721542 745.86389542 C-407.18108572 741.11131069 -409.92000415 736.47667343 -412.77471542 731.87561417 C-415.92889696 726.7872647 -418.97188241 721.66623307 -421.77471542 716.37561417 C-422.14854355 715.69627823 -422.52237167 715.01694229 -422.90752792 714.31702042 C-423.77471542 712.37561417 -423.77471542 712.37561417 -423.77471542 709.37561417 C-424.43471542 709.37561417 -425.09471542 709.37561417 -425.77471542 709.37561417 C-439.77471542 681.69541112 -439.77471542 681.69541112 -439.77471542 677.37561417 C-440.43471542 677.37561417 -441.09471542 677.37561417 -441.77471542 677.37561417 C-442.44731893 675.60702726 -443.11259938 673.835654 -443.77471542 672.06311417 C-444.14596542 671.07698135 -444.51721542 670.09084854 -444.89971542 669.07483292 C-445.77471542 666.37561417 -445.77471542 666.37561417 -445.77471542 663.37561417 C-446.43471542 663.37561417 -447.09471542 663.37561417 -447.77471542 663.37561417 C-450.36311169 655.95813418 -452.93147047 648.53393248 -455.48711777 641.10510635 C-456.32094472 638.68994888 -457.15950986 636.2764199 -458.00371933 633.86487198 C-463.10462105 619.2926509 -467.34814324 604.90466736 -470.28594589 589.74133682 C-470.75632923 587.46460631 -471.31150997 585.22882806 -471.90362167 582.98108292 C-472.77471542 579.37561417 -472.77471542 579.37561417 -472.77471542 575.37561417 C-499.83471542 575.37561417 -526.89471542 575.37561417 -554.77471542 575.37561417 C-554.77471542 512.01561417 -554.77471542 448.65561417 -554.77471542 383.37561417 C-527.71471542 383.37561417 -500.65471542 383.37561417 -472.77471542 383.37561417 C-472.44471542 380.40561417 -472.11471542 377.43561417 -471.77471542 374.37561417 C-471.26601868 371.96778293 -470.70302467 369.57080227 -470.08721542 367.18811417 C-469.91568954 366.52303848 -469.74416367 365.8579628 -469.56744003 365.17273331 C-468.9780981 362.90478475 -468.37699782 360.64015912 -467.77471542 358.37561417 C-467.54590683 357.50581924 -467.31709824 356.63602432 -467.08135605 355.73987198 C-464.02249537 344.13998343 -460.75942362 332.69553594 -456.77471542 321.37561417 C-456.51094101 320.6224794 -456.2471666 319.86934464 -455.97539902 319.0933876 C-454.25533763 314.18261731 -452.52059041 309.27726319 -450.77471542 304.37561417 C-450.11471542 304.37561417 -449.45471542 304.37561417 -448.77471542 304.37561417 C-448.69221542 303.61248917 -448.60971542 302.84936417 -448.52471542 302.06311417 C-447.48693677 296.96070247 -445.6318451 292.23006477 -443.77471542 287.37561417 C-443.11471542 287.37561417 -442.45471542 287.37561417 -441.77471542 287.37561417 C-441.70123886 286.58541885 -441.6277623 285.79522354 -441.55205917 284.98108292 C-440.51358053 280.16442066 -438.4972665 276.09683587 -436.33721542 271.68811417 C-435.88910507 270.76329239 -435.44099472 269.83847061 -434.97930527 268.88562393 C-428.55091835 255.70844257 -421.74433755 242.80699339 -414.27471542 230.18811417 C-413.75796249 229.30760391 -413.24120956 228.42709366 -412.70879745 227.51990128 C-412.22523788 226.71560684 -411.74167831 225.91131241 -411.24346542 225.08264542 C-410.81485214 224.36568497 -410.38623886 223.64872452 -409.9446373 222.91003799 C-409.55856308 222.40367813 -409.17248886 221.89731827 -408.77471542 221.37561417 C-408.11471542 221.37561417 -407.45471542 221.37561417 -406.77471542 221.37561417 C-406.56846542 220.57897354 -406.36221542 219.78233292 -406.14971542 218.96155167 C-404.31575487 214.1786659 -401.63425246 210.229222 -398.77471542 206.00061417 C-398.22815292 205.16916885 -397.68159042 204.33772354 -397.11846542 203.48108292 C-396.59252792 202.69604385 -396.06659042 201.91100479 -395.52471542 201.10217667 C-395.04518417 200.38626358 -394.56565292 199.67035049 -394.07159042 198.93274307 C-393.64362167 198.41889053 -393.21565292 197.90503799 -392.77471542 197.37561417 C-392.11471542 197.37561417 -391.45471542 197.37561417 -390.77471542 197.37561417 C-390.52721542 196.67049698 -390.27971542 195.96537979 -390.02471542 195.23889542 C-388.61367884 192.00673974 -386.84964283 189.41232514 -384.77471542 186.56311417 C-384.07346542 185.58729385 -383.37221542 184.61147354 -382.64971542 183.60608292 C-381.72159042 182.50200089 -381.72159042 182.50200089 -380.77471542 181.37561417 C-380.11471542 181.37561417 -379.45471542 181.37561417 -378.77471542 181.37561417 C-378.52721542 180.82002823 -378.27971542 180.26444229 -378.02471542 179.69202042 C-373.56499201 171.42759547 -366.12022339 164.449409 -359.74346542 157.59045792 C-357.74799754 155.53882296 -357.74799754 155.53882296 -356.77471542 153.37561417 C-356.11471542 153.37561417 -355.45471542 153.37561417 -354.77471542 153.37561417 C-354.77471542 152.71561417 -354.77471542 152.05561417 -354.77471542 151.37561417 C-354.11471542 151.37561417 -353.45471542 151.37561417 -352.77471542 151.37561417 C-352.41893417 150.53305069 -352.41893417 150.53305069 -352.05596542 149.67346573 C-350.48152185 146.84978759 -348.55786997 144.89946574 -346.27471542 142.60998917 C-345.38784042 141.72053604 -344.50096542 140.83108292 -343.58721542 139.91467667 C-342.65909042 138.99428604 -341.73096542 138.07389542 -340.77471542 137.12561417 C-339.84659042 136.18975479 -338.91846542 135.25389542 -337.96221542 134.28967667 C-337.07534042 133.40537979 -336.18846542 132.52108292 -335.27471542 131.60998917 C-334.46002792 130.79755753 -333.64534042 129.98512589 -332.80596542 129.1480751 C-330.77471542 127.37561417 -330.77471542 127.37561417 -328.77471542 127.37561417 C-328.77471542 126.71561417 -328.77471542 126.05561417 -328.77471542 125.37561417 C-328.11471542 125.37561417 -327.45471542 125.37561417 -326.77471542 125.37561417 C-326.77471542 124.71561417 -326.77471542 124.05561417 -326.77471542 123.37561417 C-325.31377792 121.86780167 -325.31377792 121.86780167 -323.39971542 120.25061417 C-322.77323105 119.71178604 -322.14674667 119.17295792 -321.50127792 118.61780167 C-319.77471542 117.37561417 -319.77471542 117.37561417 -317.77471542 117.37561417 C-317.77471542 116.71561417 -317.77471542 116.05561417 -317.77471542 115.37561417 C-315.68551393 113.58745036 -313.58812246 111.90963565 -311.39971542 110.25061417 C-310.09336944 109.24456636 -308.78738086 108.2380543 -307.48174667 107.23108292 C-306.84059921 106.73914444 -306.19945175 106.24720596 -305.53887558 105.74036026 C-303.35685656 104.05236049 -301.22160198 102.31080902 -299.08721542 100.56311417 C-287.81542331 91.53075095 -276.1449231 82.84349384 -263.77471542 75.37561417 C-262.27809324 74.45850721 -260.78205328 73.54044978 -259.28643417 72.62170792 C-255.42507392 70.25259727 -251.56213597 67.88625909 -247.68584824 65.54162979 C-246.08504741 64.56495315 -244.50181349 63.55956197 -242.92315292 62.54748917 C-240.77471542 61.37561417 -240.77471542 61.37561417 -237.77471542 61.37561417 C-237.77471542 60.71561417 -237.77471542 60.05561417 -237.77471542 59.37561417 C-227.63799667 54.30725479 -227.63799667 54.30725479 -217.50127792 49.23889542 C-216.81952499 48.89785782 -216.13777206 48.55682022 -215.43535995 48.20544815 C-214.07487726 47.52553314 -212.71387128 46.84666422 -211.35235214 46.16882706 C-208.61519112 44.80496231 -205.88641493 43.43449192 -203.18096542 42.00842667 C-195.73646095 38.10771028 -187.90926939 35.20686598 -180.05889511 32.23987198 C-177.9327363 31.43540402 -175.81035083 30.62177007 -173.68877792 29.80530167 C-159.51492911 24.3790039 -145.35581164 19.53985928 -130.52862167 16.24280167 C-127.52356642 15.54860576 -124.64207451 14.76201678 -121.71221542 13.81311417 C-116.0927183 12.04258767 -110.31229508 11.0988642 -104.52471542 10.05920792 C-101.73424167 9.55052781 -98.97556462 9.00888169 -96.21221542 8.37561417 C-84.20816026 5.6323515 -72.21268131 3.47458545 -59.96221542 2.18811417 C-59.14120346 2.1015657 -58.3201915 2.01501724 -57.47430038 1.9258461 C-38.35697036 0.00982249 -19.19279037 -0.0058514 0 0 Z " fill="#5BA2DC" transform="translate(554.774715423584,19.624385833740234)"/>
<path d="M0 0 C2.32293479 0.01078497 4.64510493 -0.00000847 6.96801758 -0.01269531 C19.50809574 -0.0261613 31.35043187 1.41299979 43.4387207 4.88574219 C44.77821777 5.2694397 44.77821777 5.2694397 46.14477539 5.66088867 C54.69097627 8.23069863 62.34816039 11.93663788 70.1262207 16.26074219 C71.11106445 16.79570312 72.0959082 17.33066406 73.1105957 17.88183594 C75.12853788 18.987944 77.13378406 20.10955657 79.1262207 21.26074219 C79.1262207 21.92074219 79.1262207 22.58074219 79.1262207 23.26074219 C80.1162207 23.57011719 80.1162207 23.57011719 81.1262207 23.88574219 C92.44403728 29.07307479 103.02958105 40.0102336 111.1262207 49.26074219 C111.1262207 49.92074219 111.1262207 50.58074219 111.1262207 51.26074219 C111.7862207 51.26074219 112.4462207 51.26074219 113.1262207 51.26074219 C114.78426772 53.30980943 116.30977448 55.35209092 117.8137207 57.51074219 C118.26142822 58.14753906 118.70913574 58.78433594 119.17041016 59.44042969 C123.16707525 65.1943666 126.78557922 71.10069407 130.1262207 77.26074219 C130.72305664 78.34871094 131.31989258 79.43667969 131.93481445 80.55761719 C137.72957549 91.57389409 141.65120654 103.05090987 143.7668457 115.34277344 C144.12044058 117.47023823 144.12044058 117.47023823 145.1262207 120.26074219 C146.40317526 128.83472267 146.28093523 137.53088869 146.2565918 146.17749023 C146.25120553 148.45465677 146.25658208 150.73162828 146.26293945 153.00878906 C146.26227896 154.48209678 146.2609984 155.95540438 146.2590332 157.42871094 C146.25790527 158.74121826 146.25677734 160.05372559 146.25561523 161.40600586 C145.8830855 172.50387739 145.8830855 172.50387739 144.1262207 174.26074219 C143.80117186 175.94213118 143.51651708 177.631396 143.2512207 179.32324219 C142.53200673 183.41803708 141.61838247 187.09476971 140.0559082 190.93652344 C138.75907934 194.17859559 137.60493852 197.47009234 136.4387207 200.76074219 C136.00172852 201.98792969 135.56473633 203.21511719 135.11450195 204.47949219 C134.78836914 205.39730469 134.46223633 206.31511719 134.1262207 207.26074219 C133.4662207 207.26074219 132.8062207 207.26074219 132.1262207 207.26074219 C132.0643457 208.06511719 132.0024707 208.86949219 131.9387207 209.69824219 C130.86085077 214.42428729 128.61030651 218.13587645 126.1262207 222.26074219 C125.4662207 222.26074219 124.8062207 222.26074219 124.1262207 222.26074219 C124.05532227 222.79183594 123.98442383 223.32292969 123.91137695 223.87011719 C122.80566867 227.23675137 120.71768428 229.75314103 118.5637207 232.51074219 C118.13897461 233.06503906 117.71422852 233.61933594 117.27661133 234.19042969 C116.23223729 235.55163629 115.17999606 236.90680052 114.1262207 238.26074219 C116.36114003 243.28808653 120.1213706 246.70150419 123.9387207 250.57324219 C124.65092773 251.32669922 125.36313477 252.08015625 126.09692383 252.85644531 C126.79366211 253.56349609 127.49040039 254.27054688 128.20825195 254.99902344 C129.15535034 255.97415894 129.15535034 255.97415894 130.12158203 256.96899414 C132.09736562 258.54047864 132.09736562 258.54047864 134.72412109 257.97290039 C135.51681396 257.73788818 136.30950684 257.50287598 137.1262207 257.26074219 C138.66599649 257.17377811 140.20900018 257.13044246 141.7512207 257.13574219 C142.50661133 257.13316406 143.26200195 257.13058594 144.0402832 257.12792969 C146.1262207 257.26074219 146.1262207 257.26074219 149.1262207 258.26074219 C149.1262207 258.92074219 149.1262207 259.58074219 149.1262207 260.26074219 C149.69727539 260.35097656 150.26833008 260.44121094 150.85668945 260.53417969 C158.38052533 262.94284315 165.2641908 272.30878801 170.8137207 277.82324219 C171.73954956 278.74194092 171.73954956 278.74194092 172.68408203 279.67919922 C175.55125578 282.55670719 178.31906795 285.45994646 180.92944336 288.57275391 C186.23385674 294.65864617 192.04558829 300.25643016 197.78180504 305.93036079 C199.92474448 308.05107169 202.06351875 310.17590203 204.2011261 312.30198669 C210.27386184 318.34131338 216.35081009 324.37635106 222.43798828 330.40112305 C226.17428396 334.09969837 229.90316595 337.80561175 233.62745094 341.51627922 C235.04201085 342.92281124 236.4593375 344.32656662 237.87952232 345.7274189 C239.86547696 347.68678746 241.84185497 349.65537007 243.81640625 351.6262207 C244.39882584 352.19628342 244.98124542 352.76634613 245.58131409 353.35368347 C250.75534856 358.55327632 254.61698282 363.67250898 254.62426758 371.27050781 C254.60428711 371.94791016 254.58430664 372.6253125 254.5637207 373.32324219 C254.57081055 374.00451172 254.57790039 374.68578125 254.58520508 375.38769531 C254.51587665 380.93930254 253.22599309 385.02795254 249.3996582 389.09667969 C248.77317383 389.60457031 248.14668945 390.11246094 247.5012207 390.63574219 C243.6096301 393.85240748 239.8983617 397.21763241 236.2043457 400.65917969 C231.37743653 404.37916608 224.94569386 403.80139002 219.1262207 403.26074219 C215.23898524 402.34726668 211.57546477 401.29416479 208.1262207 399.26074219 C207.12079425 397.59734343 206.12142028 395.93027972 205.1262207 394.26074219 C203.94491549 392.91188733 202.71449595 391.60486397 201.44482422 390.33883667 C200.70459015 389.59585327 199.96435608 388.85286987 199.20169067 388.08737183 C197.99064163 386.88710861 197.99064163 386.88710861 196.75512695 385.66259766 C195.90119354 384.80837219 195.04726013 383.95414673 194.16744995 383.07403564 C191.832238 380.73997602 189.49268428 378.41043631 187.15107346 376.08280706 C184.69852464 373.64279539 182.25167136 371.19708558 179.80419922 368.75198364 C175.1688397 364.12283449 170.52840858 359.49880426 165.8861208 354.8766042 C160.61223631 349.62505024 155.34400513 344.36784079 150.07625771 339.11013198 C139.6770836 328.73100397 129.2714993 318.35833123 118.86131287 307.99024773 C118.28873245 307.4195109 117.71615204 306.84877407 117.1262207 306.26074219 C116.32203453 305.50337863 116.32203453 305.50337863 115.50160217 304.7307148 C112.92702092 301.97906807 111.80065802 298.89314476 111.1262207 295.26074219 C111.26157227 294.11089844 111.39692383 292.96105469 111.53637695 291.77636719 C112.53380526 283.94070083 112.53380526 283.94070083 109.47094727 276.90185547 C105.24276847 272.13662584 100.55518358 267.89513785 95.68676758 263.79443359 C94.91429687 263.03525635 94.91429687 263.03525635 94.1262207 262.26074219 C94.1262207 261.60074219 94.1262207 260.94074219 94.1262207 260.26074219 C89.90601174 262.25978854 86.01048664 264.23284252 82.2512207 267.01074219 C79.1262207 269.26074219 79.1262207 269.26074219 77.1262207 269.26074219 C77.1262207 269.92074219 77.1262207 270.58074219 77.1262207 271.26074219 C62.01782613 279.64102429 62.01782613 279.64102429 55.39575195 281.55761719 C52.57987549 282.43000576 49.91285245 283.5719511 47.1887207 284.69824219 C41.82185175 286.78570825 36.48433553 288.26597885 30.8762207 289.51074219 C30.14411377 289.67372803 29.41200684 289.83671387 28.65771484 290.00463867 C1.93083857 295.65522362 -26.32523496 292.42816104 -51.8737793 283.26074219 C-51.8737793 282.60074219 -51.8737793 281.94074219 -51.8737793 281.26074219 C-52.72456055 281.16019531 -53.5753418 281.05964844 -54.4519043 280.95605469 C-64.4735447 278.91969397 -73.82091878 272.31297017 -81.8737793 266.26074219 C-82.8637793 265.54789063 -83.8537793 264.83503906 -84.8737793 264.10058594 C-91.0840471 259.57485328 -96.60185284 254.83878051 -101.8737793 249.26074219 C-102.67041992 248.46667969 -103.46706055 247.67261719 -104.2878418 246.85449219 C-127.8737793 223.19729808 -127.8737793 223.19729808 -127.8737793 213.26074219 C-128.5337793 213.26074219 -129.1937793 213.26074219 -129.8737793 213.26074219 C-130.2656543 212.18824219 -130.6575293 211.11574219 -131.0612793 210.01074219 C-132.35939687 206.5143972 -133.81394751 203.11345265 -135.3112793 199.69824219 C-139.97730655 188.50541549 -142.46527804 177.37280439 -142.8737793 165.26074219 C-143.5337793 165.26074219 -144.1937793 165.26074219 -144.8737793 165.26074219 C-145.08309969 148.48129716 -145.2499543 131.91518303 -142.8737793 115.26074219 C-142.2137793 115.26074219 -141.5537793 115.26074219 -140.8737793 115.26074219 C-140.8325293 113.98199219 -140.7912793 112.70324219 -140.7487793 111.38574219 C-139.96287261 103.01885872 -136.67521538 95.12532422 -133.8737793 87.26074219 C-133.2137793 87.26074219 -132.5537793 87.26074219 -131.8737793 87.26074219 C-131.7912793 86.60074219 -131.7087793 85.94074219 -131.6237793 85.26074219 C-129.44735729 76.55505415 -123.6364218 68.75818332 -118.8737793 61.26074219 C-118.34397461 60.40270996 -118.34397461 60.40270996 -117.8034668 59.52734375 C-116.88029116 58.06992295 -115.88248832 56.66032596 -114.8737793 55.26074219 C-114.2137793 55.26074219 -113.5537793 55.26074219 -112.8737793 55.26074219 C-112.54700195 54.45830078 -112.54700195 54.45830078 -112.21362305 53.63964844 C-110.39817034 50.41629363 -107.95531072 47.87491835 -105.4362793 45.19824219 C-104.94579102 44.66908203 -104.45530273 44.13992188 -103.94995117 43.59472656 C-102.59955577 42.14227698 -101.2371128 40.7010544 -99.8737793 39.26074219 C-99.30530273 38.64328125 -98.73682617 38.02582031 -98.15112305 37.38964844 C-96.8737793 36.26074219 -96.8737793 36.26074219 -94.8737793 36.26074219 C-94.8737793 35.60074219 -94.8737793 34.94074219 -94.8737793 34.26074219 C-93.59545898 33.04321289 -93.59545898 33.04321289 -91.7956543 31.68652344 C-91.13476807 31.18685059 -90.47388184 30.68717773 -89.79296875 30.17236328 C-89.07713623 29.64465332 -88.36130371 29.11694336 -87.6237793 28.57324219 C-86.89956787 28.03521973 -86.17535645 27.49719727 -85.42919922 26.94287109 C-66.75772255 13.26074219 -66.75772255 13.26074219 -58.8737793 13.26074219 C-58.8737793 12.60074219 -58.8737793 11.94074219 -58.8737793 11.26074219 C-39.8311123 2.60820821 -20.70532149 -0.1140185 0 0 Z " fill="#31485A" transform="translate(534.873779296875,303.7392578125)"/>
<path d="M0 0 C0 0.66 0 1.32 0 2 C0.83789062 2.09152344 1.67578125 2.18304688 2.5390625 2.27734375 C6.5174342 3.10804213 9.8126503 4.68464343 13.375 6.5625 C14.01566406 6.89185547 14.65632812 7.22121094 15.31640625 7.56054688 C16.88138632 8.36639482 18.44124021 9.18218493 20 10 C20 10.66 20 11.32 20 12 C20.721875 12.268125 21.44375 12.53625 22.1875 12.8125 C27.50738677 15.05867441 31.01683117 17.83577805 35 22 C35.64839844 22.60457031 36.29679688 23.20914062 36.96484375 23.83203125 C41.67482554 28.2936836 45.70435691 33.00774406 49.5 38.25 C49.9333667 38.84031006 50.3667334 39.43062012 50.81323242 40.03881836 C53.12350527 43.31413602 54.57779917 45.98909212 55 50 C55.66 50 56.32 50 57 50 C69.79416566 76.44127571 74.69012527 110.61486705 64.91015625 139.18359375 C63.8125 141.6875 63.8125 141.6875 62 145 C61.34 145 60.68 145 60 145 C59.67 147.31 59.34 149.62 59 152 C58.34 152 57.68 152 57 152 C56.814375 152.78375 56.62875 153.5675 56.4375 154.375 C47.8027919 176.1494813 26.26720855 192.10023372 5.98828125 202.22265625 C4 203 4 203 1 203 C1 203.66 1 204.32 1 205 C-16.99372045 210.64593384 -34.029391 213.30582049 -53 212 C-53.33 211.67 -53.66 211.34 -54 211 C-56.03667627 210.67531248 -58.07977297 210.3905534 -60.125 210.125 C-67.42700613 209.05912982 -67.42700613 209.05912982 -70.75 207.5 C-74.0141084 205.81507392 -74.0141084 205.81507392 -77.9375 205.375 C-85.58844841 203.88213202 -92.39222315 198.94034301 -99 195 C-99 194.34 -99 193.68 -99 193 C-99.71414063 192.75507812 -100.42828125 192.51015625 -101.1640625 192.2578125 C-119.07742906 184.31276562 -133.48322924 161.20145116 -141 144 C-146.40796345 129.07836173 -148.74435818 112.81761132 -148 97 C-147.9690625 95.86304688 -147.938125 94.72609375 -147.90625 93.5546875 C-147.31989259 80.44959935 -143.30715991 68.30289824 -139 56 C-138.34 56 -137.68 56 -137 56 C-136.505 53.03 -136.505 53.03 -136 50 C-135.34 50 -134.68 50 -134 50 C-133.9175 49.484375 -133.835 48.96875 -133.75 48.4375 C-132.67859775 44.95544268 -130.86476395 42.12799115 -129 39 C-128.34 39 -127.68 39 -127 39 C-126.690625 37.9790625 -126.690625 37.9790625 -126.375 36.9375 C-124.57104973 33.08360625 -122.0989655 29.92212236 -119 27 C-118.34 27 -117.68 27 -117 27 C-116.67 26.01 -116.34 25.02 -116 24 C-115.34 24 -114.68 24 -114 24 C-114 23.34 -114 22.68 -114 22 C-109.52941176 18 -109.52941176 18 -107 18 C-107 17.34 -107 16.68 -107 16 C-104.98805283 14.4986838 -102.99634488 13.14422853 -100.875 11.8125 C-100.24698486 11.41466309 -99.61896973 11.01682617 -98.97192383 10.60693359 C-89.89310653 4.95542919 -80.36922235 -0.1946282 -70 -3 C-69.0203125 -3.26554687 -68.040625 -3.53109375 -67.03125 -3.8046875 C-44.18473597 -9.74251912 -22.16005034 -7.47522246 0 0 Z " fill="#FDFDFD" transform="translate(575,347)"/>
<path d="M0 0 C4.34372387 2.17186194 5.45452024 9.62766169 7 14 C8.94933012 19.93058909 10.53931639 25.93254502 12 32 C12.66 32 13.32 32 14 32 C14.33 32.99 14.66 33.98 15 35 C16.99707152 36.12907446 16.99707152 36.12907446 19.48046875 36.97265625 C20.39763672 37.31490234 21.31480469 37.65714844 22.25976562 38.00976562 C23.22591797 38.35716797 24.19207031 38.70457031 25.1875 39.0625 C26.13431641 39.41376953 27.08113281 39.76503906 28.05664062 40.12695312 C37.10277308 43.48429661 37.10277308 43.48429661 46.375 46.125 C47.57125 46.41375 48.7675 46.7025 50 47 C50 47.99 50 48.98 50 50 C47.5636811 50.67126129 45.12611117 51.33716354 42.6875 52 C41.99720703 52.19078125 41.30691406 52.3815625 40.59570312 52.578125 C37.64212051 53.37716184 35.07440781 54 32 54 C32 54.66 32 55.32 32 56 C28.08904015 57.50949328 24.39542012 58.9061715 20.3125 59.875 C16.29974475 61.23782254 14.74772928 62.79212467 12 66 C10.5119459 69.25829077 10.5119459 69.25829077 9.5 72.875 C9.09031236 74.19675992 8.68014064 75.51836988 8.26953125 76.83984375 C8.06408691 77.51901855 7.85864258 78.19819336 7.64697266 78.89794922 C6.55901359 82.4327898 5.3683697 85.93284744 4.1875 89.4375 C3.76385569 90.70687541 3.34063451 91.97639217 2.91796875 93.24609375 C2.61503906 94.15488281 2.31210937 95.06367188 2 96 C1.01 96 0.02 96 -1 96 C-1.31751221 95.04633545 -1.63502441 94.0926709 -1.9621582 93.11010742 C-3.14408926 89.56798896 -4.33772513 86.02990823 -5.53491211 82.49291992 C-6.05112999 80.96241901 -6.56418011 79.43084581 -7.07397461 77.89819336 C-7.80790499 75.69354367 -8.5531943 73.4930193 -9.30078125 71.29296875 C-9.52590897 70.60849167 -9.75103668 69.92401459 -9.98298645 69.21879578 C-11.5984467 64.49318717 -11.5984467 64.49318717 -15 61 C-17.60611077 60.27802838 -17.60611077 60.27802838 -20 60 C-20 59.34 -20 58.68 -20 58 C-21.093125 57.9175 -22.18625 57.835 -23.3125 57.75 C-27.89658329 57.1830639 -31.93659483 55.69936874 -36.234375 54.0546875 C-40.11456016 52.57495587 -44.05245147 51.28660841 -48 50 C-48 49.01 -48 48.02 -48 47 C-47.31035156 46.81824219 -46.62070312 46.63648438 -45.91015625 46.44921875 C-39.8578937 44.83030078 -33.89050226 43.13371134 -28 41 C-26.85789062 40.63648438 -25.71578125 40.27296875 -24.5390625 39.8984375 C-18.45642751 37.71787024 -13.74604072 35.94544799 -10.625 30.0625 C-9.67014588 27.71415566 -8.81897079 25.39495077 -8 23 C-7.29250623 21.03485379 -6.5840923 19.07003872 -5.875 17.10546875 C-3.84999524 11.42554527 -1.90379959 5.72157951 0 0 Z " fill="#334A5D" transform="translate(539,401)"/>
<path d="M0 0 C0.66 0 1.32 0 2 0 C2.19335938 0.71027344 2.38671875 1.42054688 2.5859375 2.15234375 C2.97652344 3.53099609 2.97652344 3.53099609 3.375 4.9375 C3.63023437 5.85402344 3.88546875 6.77054687 4.1484375 7.71484375 C4.76660104 10.16745087 4.76660104 10.16745087 7 11 C7 11.66 7 12.32 7 13 C8.11375 13.12375 9.2275 13.2475 10.375 13.375 C14 14 14 14 16 16 C15.32453125 16.18433594 14.6490625 16.36867188 13.953125 16.55859375 C8.46194761 18.25954433 8.46194761 18.25954433 4.515625 22.19921875 C3.47869301 24.59000139 3.47869301 24.59000139 2.71875 26.9765625 C2 29 2 29 0 31 C-0.16822266 29.96939453 -0.16822266 29.96939453 -0.33984375 28.91796875 C-0.97117747 26.03364017 -1.64156321 23.62772617 -3 21 C-5.25089676 19.62303096 -7.17664148 19.05649728 -9.74609375 18.5 C-12.08374064 17.98142322 -13.90679502 17.14434896 -16 16 C-13.70258398 13.70258398 -12.77750624 13.69088782 -9.6875 13.0625 C-6.31588696 12.04013992 -5.23659329 11.36682812 -3.296875 8.359375 C-2.06690762 5.60255157 -0.9660316 2.85925936 0 0 Z " fill="#3B5366" transform="translate(503,396)"/>
<path d="M0 0 C-0.66 0 -1.32 0 -2 0 C-1.67 1.98 -1.34 3.96 -1 6 C-2.48117801 5.71872579 -3.95993249 5.42466268 -5.4375 5.125 C-6.26121094 4.96257812 -7.08492188 4.80015625 -7.93359375 4.6328125 C-8.61550781 4.42398437 -9.29742187 4.21515625 -10 4 C-10.33 3.34 -10.66 2.68 -11 2 C-9.73392393 1.46770674 -8.46189588 0.94955456 -7.1875 0.4375 C-6.47980469 0.14746094 -5.77210938 -0.14257812 -5.04296875 -0.44140625 C-3 -1 -3 -1 0 0 Z " fill="#5E7484" transform="translate(498,409)"/>
<path d="M0 0 C1.30247199 3.90741596 0.43006995 6.9555805 -0.375 10.875 C-0.51421875 11.58269531 -0.6534375 12.29039062 -0.796875 13.01953125 C-1.19066115 15.01446674 -1.5950452 17.00730164 -2 19 C-2.19851562 19.99257813 -2.39703125 20.98515625 -2.6015625 22.0078125 C-2.73304688 22.66523438 -2.86453125 23.32265625 -3 24 C-3.33 24 -3.66 24 -4 24 C-4.02689216 22.52093108 -4.04634621 21.04172517 -4.0625 19.5625 C-4.07410156 18.73878906 -4.08570313 17.91507812 -4.09765625 17.06640625 C-4 15 -4 15 -3 14 C-2.62819644 12.02769832 -2.30199332 10.04669048 -2 8.0625 C-1.10806175 2.2161235 -1.10806175 2.2161235 0 0 Z " fill="#8AB8DD" transform="translate(176,410)"/>
<path d="M0 0 C-0.350625 0.61875 -0.70125 1.2375 -1.0625 1.875 C-1.5265625 2.926875 -1.5265625 2.926875 -2 4 C-1.67 4.66 -1.34 5.32 -1 6 C-3.64 5.34 -6.28 4.68 -9 4 C-9 3.01 -9 2.02 -9 1 C-2.25 -1.125 -2.25 -1.125 0 0 Z " fill="#687E8C" transform="translate(500,447)"/>
<path d="M0 0 C0.66 0.33 1.32 0.66 2 1 C-1.96 4.96 -5.92 8.92 -10 13 C-10.66 12.67 -11.32 12.34 -12 12 C-11.34 11.01 -10.68 10.02 -10 9 C-9.34 9 -8.68 9 -8 9 C-7.67 8.01 -7.34 7.02 -7 6 C-6.34 6 -5.68 6 -5 6 C-5 5.34 -5 4.68 -5 4 C-3.37373596 2.61767557 -1.7074998 1.28062485 0 0 Z " fill="#DDE1E1" transform="translate(466,365)"/>
<path d="M0 0 C0.99 0.33 1.98 0.66 3 1 C-0.63 4.63 -4.26 8.26 -8 12 C-8.66 11.67 -9.32 11.34 -10 11 C-8.38405168 8.95880212 -6.7143618 6.95927063 -5 5 C-4.34 5 -3.68 5 -3 5 C-3 4.34 -3 3.68 -3 3 C-2.34 3 -1.68 3 -1 3 C-0.67 2.01 -0.34 1.02 0 0 Z " fill="#72B0E1" transform="translate(203,168)"/>
<path d="M0 0 C0 3 0 3 -1.96875 5.26171875 C-2.8040625 6.06222656 -3.639375 6.86273438 -4.5 7.6875 C-5.3353125 8.49574219 -6.170625 9.30398437 -7.03125 10.13671875 C-8.00578125 11.05904297 -8.00578125 11.05904297 -9 12 C-9.99 11.67 -10.98 11.34 -12 11 C-10.68 10.34 -9.36 9.68 -8 9 C-8 8.34 -8 7.68 -8 7 C-7.34 7 -6.68 7 -6 7 C-6 6.34 -6 5.68 -6 5 C-4.04072937 3.2856382 -2.04119788 1.61594832 0 0 Z " fill="#75B3E2" transform="translate(234,138)"/>
<path d="M0 0 C0 3.58912412 -0.66436554 4.10857029 -3 6.6875 C-3.556875 7.31011719 -4.11375 7.93273437 -4.6875 8.57421875 C-5.120625 9.04472656 -5.55375 9.51523437 -6 10 C-6.99 9.67 -7.98 9.34 -9 9 C-6.03 6.03 -3.06 3.06 0 0 Z " fill="#78B4E3" transform="translate(846,755)"/>
<path d="M0 0 C0.66 0.33 1.32 0.66 2 1 C2.59355614 3.64860427 2.74209269 6.29197322 3 9 C2.67 8.34 2.34 7.68 2 7 C0.68 7.33 -0.64 7.66 -2 8 C-1.34 5.36 -0.68 2.72 0 0 Z " fill="#3A5063" transform="translate(539,401)"/>
<path d="M0 0 C0.33 0.99 0.66 1.98 1 3 C-1.64 5.97 -4.28 8.94 -7 12 C-7.66 11.67 -8.32 11.34 -9 11 C-6.03 7.37 -3.06 3.74 0 0 Z " fill="#78B5E2" transform="translate(187,186)"/>
<path d="M0 0 C2.31 0.66 4.62 1.32 7 2 C4.4345406 4.5654594 2.52313332 4.54046087 -1 5 C-0.67 3.35 -0.34 1.7 0 0 Z " fill="#465C6E" transform="translate(512,409)"/>
<path d="M0 0 C0.66 0 1.32 0 2 0 C2.33 1.65 2.66 3.3 3 5 C1.68 5 0.36 5 -1 5 C-1.33 6.32 -1.66 7.64 -2 9 C-2.33 8.34 -2.66 7.68 -3 7 C-2.06421005 4.64018187 -1.06652192 2.30368736 0 0 Z " fill="#5E7484" transform="translate(503,396)"/>
<path d="M0 0 C0.66 0 1.32 0 2 0 C0.34832443 3.5786304 -1.78286492 6.74820188 -4 10 C-4.33 9.34 -4.66 8.68 -5 8 C-4.2578125 6.30859375 -4.2578125 6.30859375 -3.125 4.4375 C-2.75632812 3.81746094 -2.38765625 3.19742187 -2.0078125 2.55859375 C-1 1 -1 1 0 0 Z " fill="#CDD1D3" transform="translate(554,462)"/>
<path d="M0 0 C0.66 0.33 1.32 0.66 2 1 C-0.1875 3.0625 -0.1875 3.0625 -3 5 C-5.8125 4.75 -5.8125 4.75 -8 4 C-5.31143836 2.20762558 -3.0466145 1.01553817 0 0 Z " fill="#5A7081" transform="translate(523,437)"/>
<path d="M0 0 C-0.66 0 -1.32 0 -2 0 C-2 0.66 -2 1.32 -2 2 C-4.31 2.33 -6.62 2.66 -9 3 C-9 2.34 -9 1.68 -9 1 C-3.375 -1.125 -3.375 -1.125 0 0 Z " fill="#526879" transform="translate(498,409)"/>
<path d="M0 0 C-1.0625 1.5 -1.0625 1.5 -3 3 C-6.6875 3.1875 -6.6875 3.1875 -10 3 C-3.66666667 -1.22222222 -3.66666667 -1.22222222 0 0 Z " fill="#637482" transform="translate(486,313)"/>
</svg>
