<?xml version="1.0" encoding="utf-8"?>
<!-- Generator: Adobe Illustrator 19.2.0, SVG Export Plug-In . SVG Version: 6.00 Build 0)  -->
<svg version="1.1" xmlns="http://www.w3.org/2000/svg" xmlns:xlink="http://www.w3.org/1999/xlink" x="0px" y="0px"
	 viewBox="0 0 26 26" enable-background="new 0 0 26 26" xml:space="preserve">
<g id="guides">
</g>
<g id="white">
</g>
<g id="_x31_6_16" display="none">
</g>
<g id="content">
	<path fill="#114459" d="M5.3060303,7.4272461C4.1702271,8.9927979,3.499939,10.9179688,3.499939,13
		s0.6702881,4.0072021,1.8060913,5.5726318l-1.0722046,1.0721436C2.8322754,17.7987061,1.999939,15.4967041,1.999939,13
		s0.8323364-4.7987061,2.2338867-6.6448975L5.3060303,7.4272461z M21.7661743,6.3551025l-1.0722046,1.0721436
		C21.8297729,8.9927979,22.500061,10.9179688,22.500061,13s-0.6702881,4.0072021-1.8060913,5.5726318l1.0722046,1.0721436
		C23.1677856,17.7987061,24.000061,15.4967041,24.000061,13S23.1677856,8.2012939,21.7661743,6.3551025z"/>
	<path fill="#00A3E0" d="M21.7661743,6.3551025L6.3551636,21.7661133c-0.7999268-0.6071777-1.5140381-1.3212891-2.1213379-2.1213379
		L19.6448975,4.2338867C20.4447632,4.8410645,21.1589355,5.5551758,21.7661743,6.3551025z"/>
	<path fill="#087299" d="M6.3551025,4.2338867l5.2307129,5.2304688l-2.1212769,2.1213379L4.2338257,6.3551025
		C4.8411255,5.5551758,5.5552979,4.8410645,6.3551025,4.2338867z M16.5355835,14.4141846l-2.1213379,2.1212158l5.2306519,5.2307129
		c0.7998657-0.6071777,1.5140381-1.3212891,2.1212769-2.1213379L16.5355835,14.4141846z"/>
</g>
<g id="grid">
</g>
</svg>
